<?xml version="1.0" encoding="UTF-8" standalone="no"?>
<!-- Created with Inkscape (http://www.inkscape.org/) -->

<svg
   version="1.1"
   id="svg2"
   width="5007.8535"
   height="3405.9868"
   viewBox="0 0 5007.8535 3405.9868"
   sodipodi:docname="vecteezy_cartoon-funny-otter-floating-on-water_.eps"
   xmlns:inkscape="http://www.inkscape.org/namespaces/inkscape"
   xmlns:sodipodi="http://sodipodi.sourceforge.net/DTD/sodipodi-0.dtd"
   xmlns="http://www.w3.org/2000/svg"
   xmlns:svg="http://www.w3.org/2000/svg">
  <defs
     id="defs6" />
  <sodipodi:namedview
     id="namedview4"
     pagecolor="#ffffff"
     bordercolor="#000000"
     borderopacity="0.25"
     inkscape:showpageshadow="2"
     inkscape:pageopacity="0.0"
     inkscape:pagecheckerboard="0"
     inkscape:deskcolor="#d1d1d1" />
  <g
     id="g8"
     inkscape:groupmode="layer"
     inkscape:label="ink_ext_XXXXXX"
     transform="matrix(1.3333333,0,0,-1.3333333,0,3405.9867)">
    <g
       id="g10"
       transform="scale(0.1)">
      <path
         d="m 26854.3,253.301 c 0,0 -21190.67,-880 -21281.45,640 C 5482.08,2413.3 11873.7,3776.7 9157.87,5255 6442.08,6733.3 -3077.92,9326.8 1002.08,12574.7 c 4080,3247.9 7979.08,2400.7 7026.96,4575.5 -952.12,2174.8 -6237.52,3264.9 -2352.24,4544 3885.28,1279.1 -1660.08,2666 3551.29,3464.2 5211.31,798.3 18186.21,311.9 19134.01,-1016.6 947.7,-1328.5 -3598.1,-2610.8 -1999.1,-3009.6 1599.1,-398.9 7508.1,-445.7 8159.1,-3003.3 480,-1885.7 -6000,-4013.8 -3760,-4771.6 2240,-757.7 8400,-4572.9 3200,-5918.4 -5200,-1345.6 -8716,-2720.2 -7158,-3312.9 1558,-592.7 6782.4,-2832.7 50.2,-3872.699"
         style="fill:#80ccf9;fill-opacity:1;fill-rule:nonzero;stroke:none"
         id="path12" />
      <path
         d="m 4099.87,9004.7 c 251.1,45.2 497.19,45.2 838.68,-145.6 180.8,195.8 587.59,361.5 898.95,291.2 155.69,288.8 374.15,371.7 514.76,401.8 -125.55,356.6 -352.25,1326.6 -981.81,1345.9 -552.42,17 -1172.03,-14.2 -1270.58,-1893.3"
         style="fill:#bfaaa3;fill-opacity:1;fill-rule:nonzero;stroke:none"
         id="path14" />
      <path
         d="m 4348.38,9054.6 c 193.7,0 380.18,-52.3 585.37,-164.2 169.99,172.9 487.22,301.5 748.15,301.5 49.81,0 97.66,-4.4 142.56,-13.2 116.31,206.9 282.62,338.5 494.97,391.6 -12.46,36.7 -25.91,78.7 -40.58,124.5 -130.06,406 -372.14,1161.6 -909.17,1178.1 -40.58,1.2 -81.56,2.2 -122.63,2.2 -492.37,0 -1024.98,-142.9 -1120.39,-1840.3 81.91,13.5 153.02,19.8 221.72,19.8 z m 595.23,-227.1 -17.32,9.6 c -204.1,114.1 -387.74,167.2 -577.91,167.2 -74.2,0 -151.74,-7.7 -244.05,-24.3 l -31.21,-5.7 1.67,31.7 c 92.85,1771.1 653.77,1919.4 1172.26,1919.4 41.61,0 83.08,-1 124.2,-2.3 572.51,-17.6 821.62,-795.2 955.44,-1213 18.16,-56.7 34.45,-107.5 49.28,-149.6 l 9.46,-27 -27.92,-6 c -216.17,-46.3 -383.67,-177.2 -497.86,-389.1 l -9.08,-16.8 -18.6,4.2 c -46.57,10.5 -97.07,15.9 -150.07,15.9 -255.59,0 -567.21,-128.9 -724.89,-299.7 l -13.4,-14.5"
         style="fill:#68504a;fill-opacity:1;fill-rule:nonzero;stroke:none"
         id="path16" />
      <path
         d="m 7369.23,11997.8 c -1355.95,281.3 -2199.66,0 -2822.39,-924 -622.74,-924.1 -743.27,-1366 -646.18,-1801.3 67.19,-301.2 243.17,-509.8 381.68,-157.3 46.17,117.5 40.17,304.7 142.76,537.7 21.29,-424.7 392.93,-947 644.03,-894.3 168.87,35.5 -63.61,403.5 -85.38,693.1 -18.95,252.2 77.37,282 192.88,779.2 43.16,-580 404.75,-1145.8 701.05,-1216.2 296.3,-70.3 -251.1,914.1 -180.8,1476.5 296.31,-838.7 537.36,-994.3 698.07,-994.3 150.49,0 -180.79,607.6 -165.73,878.8 170.75,145.7 366.61,160.8 728.2,50.3 361.59,-110.5 813.58,-341.6 1371.02,266.1 557.45,607.7 -959.21,1305.7 -959.21,1305.7"
         style="fill:#98675a;fill-opacity:1;fill-rule:nonzero;stroke:none"
         id="path18" />
      <path
         d="m 4566.27,10842.7 c 622.74,924.1 1548.39,1202.4 2904.35,921.2 0,0 702.64,-323.5 975.57,-721.7 -81.08,497.2 -1076.96,955.6 -1076.96,955.6 -1355.95,281.3 -2199.66,0 -2822.39,-924 -600.99,-891.8 -734.16,-1334.5 -655.47,-1755.6 -18.64,496.7 163.4,765.5 674.9,1524.5"
         style="fill:#ad857b;fill-opacity:1;fill-rule:nonzero;stroke:none"
         id="path20" />
      <path
         d="m 4105.04,9402.4 c -66.99,-169.2 -184.32,-103.1 -216.26,-69.3 3.53,-20.2 7.39,-40.4 11.88,-60.6 67.19,-301.2 243.17,-509.8 381.68,-157.3 46.17,117.5 40.17,304.7 142.76,537.7 0.82,-16.4 2.35,-33 4.19,-49.7 30.11,265.6 -30.39,398.6 136.98,706.4 -309.62,-202 -291.99,-547.5 -461.23,-907.2"
         style="fill:#84574e;fill-opacity:1;fill-rule:nonzero;stroke:none"
         id="path22" />
      <path
         d="m 4722.05,9176.8 c -88.15,-17.6 -156.03,40.4 -175.65,42.9 135.02,-276.3 355.52,-496.2 522.73,-461.1 168.87,35.5 -63.62,403.5 -85.38,693.1 -18.95,252.2 77.37,282 192.88,779.2 1.81,-24.4 4.38,-48.7 7.29,-73 0,138.4 -9.15,176.1 17.63,376.3 -126.93,-444.3 -317.65,-649.9 -384.31,-916.7 -49.77,-199.2 40.2,-413.6 -95.19,-440.7"
         style="fill:#84574e;fill-opacity:1;fill-rule:nonzero;stroke:none"
         id="path24" />
      <path
         d="m 5543.54,9430.6 c -12.99,-32.4 -42,-48.8 -77.71,-52.5 126.32,-194.4 275.9,-331.1 411.85,-363.4 296.3,-70.3 -251.1,914.1 -180.8,1476.5 6.94,-19.6 13.83,-38.8 20.7,-57.6 -19.24,111.6 -22.93,139.4 -36.54,291 -250.76,-461.9 -10.57,-870.9 -137.5,-1294"
         style="fill:#84574e;fill-opacity:1;fill-rule:nonzero;stroke:none"
         id="path26" />
      <path
         d="m 8206.38,11440 c -77.75,-157.2 -213.3,-289 -357,-380.5 -444.25,-296.1 -955.48,-116.9 -1399.72,-159.2 -288.05,-48.8 -320.85,-136.9 -331.42,-431.9 -28.21,-424.3 172.76,-755.7 -135.29,-623.2 167.08,-281.5 306.77,-348.3 412,-348.3 150.49,0 -180.79,607.6 -165.73,878.8 170.75,145.7 366.61,160.8 728.2,50.3 361.59,-110.5 813.58,-341.6 1371.02,266.1 231.68,252.6 105,520.7 -122.06,747.9"
         style="fill:#84574e;fill-opacity:1;fill-rule:nonzero;stroke:none"
         id="path28" />
      <path
         d="m 4444.86,9760.2 5.31,-106 c 19.28,-384 346.02,-874.2 582.71,-874.2 10.65,0 21.1,1.1 31.11,3.2 20.47,4.3 28.12,13.9 32.1,20.8 27.39,47.1 -11.09,166.3 -51.82,292.5 -36.07,111.7 -76.95,238.3 -85.59,353.3 -11.09,147.8 16.59,223.7 62.37,349.3 34.26,94 81.18,222.6 131.08,437.5 l 37.3,160.5 12.27,-164.4 c 43.29,-581.8 408.35,-1128.6 681.75,-1193.5 27.29,-6.5 41.08,0.5 46.08,7.2 39.7,53.2 -24.24,268.8 -91.97,497.1 -89.12,300.7 -200.07,674.9 -165.63,950.8 l 13.21,105.6 35.43,-100.3 c 229.18,-648.7 456.05,-977.6 674.39,-977.6 6.52,0 7.9,1.9 8.78,3.1 25.13,35 -33.76,209.9 -81.07,350.3 -58.89,174.8 -125.68,373 -118.51,501.7 l 0.58,10.8 8.2,6.9 c 102.96,87.9 215.54,128.8 354.32,128.8 106.93,0 233.2,-23.4 397.51,-73.6 34.15,-10.4 69.14,-22 104.97,-33.7 144.57,-47.6 308.43,-101.6 482.8,-101.6 266.18,0 513.96,129 757.42,394.4 96.88,105.6 133.54,221.2 108.9,343.6 -92.8,461.2 -1002.5,895.3 -1057.57,921.2 -335.33,69.3 -630.76,103.1 -903.02,103.1 -822.16,0 -1422.94,-323.3 -1890.57,-1017.2 -653.53,-969.7 -730.43,-1387.6 -642.49,-1781.8 41.62,-186.7 123.47,-322.2 194.63,-322.2 46.97,0 96.39,59.8 139.08,168.6 17.17,43.6 27.09,99.3 38.57,163.8 18.26,102.5 40.98,230.2 104.58,374.8 z m 588.02,-1030.4 c -241.69,0 -555.67,428.6 -621.43,818.9 -34.6,-101.3 -50.84,-192.5 -64.49,-269.4 -11.93,-67 -22.28,-125 -41.22,-173.3 -52.27,-133 -114.84,-200.5 -185.9,-200.5 -120.33,0 -206.51,194.8 -243.71,361.6 -106,475.1 64.09,951.5 649.86,1820.7 477.89,709.1 1091.87,1039.4 1932.28,1039.4 276.53,0 576.18,-34.3 916.08,-104.7 l 5.4,-1.8 c 40.28,-18.6 988.17,-460 1088.38,-958.1 27.97,-139 -12.81,-269.3 -121.17,-387.5 -253.47,-276.3 -513.37,-410.7 -794.37,-410.7 -0.05,0 -0.05,0 -0.05,0 -182.41,0.1 -350.35,55.3 -498.51,104.1 -35.48,11.7 -70.12,23.1 -103.99,33.5 -159.34,48.7 -281,71.3 -382.78,71.3 -124.11,0 -221.18,-33.9 -313.34,-109.7 -2.41,-119.7 60.61,-306.6 116.35,-472.1 73.12,-217 112.58,-342.4 74.3,-395.7 -7.9,-11 -22.91,-24.1 -49.61,-24.1 -230.75,0 -453.41,292.7 -679.1,893.8 4.27,-249.1 94.91,-554.8 169.9,-807.7 88.67,-298.9 136.28,-471.5 84.06,-541.4 -13.39,-17.9 -45.64,-38.5 -97.95,-26.1 -273.25,64.8 -617.71,544.9 -704.37,1100.5 -37.74,-140.3 -72.34,-235.1 -99.23,-308.9 -44.96,-123.3 -69.74,-191.3 -59.44,-328.3 8.15,-109.1 48.05,-232.7 83.24,-341.7 48.09,-149 86.07,-266.6 47.5,-333.1 -13.59,-23.5 -35.58,-38.5 -65.27,-44.8 -13.35,-2.8 -27.29,-4.2 -41.42,-4.2"
         style="fill:#63413b;fill-opacity:1;fill-rule:nonzero;stroke:none"
         id="path30" />
      <path
         d="m 4426.26,9466.4 c -108.35,613 140.01,843.2 140.01,843.2 -1.95,-2.4 -194.38,-246.9 -90.54,-834.5 l -49.47,-8.7"
         style="fill:#63413b;fill-opacity:1;fill-rule:nonzero;stroke:none"
         id="path32" />
      <path
         d="m 6209.36,10282.2 c -18.55,146.9 53.19,341.9 53.19,341.9 -0.2,-2 -21.15,-194.7 -3.33,-335.6 l -49.86,-6.3"
         style="fill:#63413b;fill-opacity:1;fill-rule:nonzero;stroke:none"
         id="path34" />
      <path
         d="m 23841.6,2241.7 c 174.1,187.5 522.3,535.6 937.4,669.6 33.5,415.1 80.4,1051.3 314.7,1272.2 -107.1,261.2 -174,589.3 -133.9,756.7 -816.9,26.8 -1272.2,435.2 -1613.7,234.3 -341.5,-200.8 -602.7,-1372.7 -348.2,-1915 254.4,-542.4 843.7,-1017.8 843.7,-1017.8"
         style="fill:#bfaaa3;fill-opacity:1;fill-rule:nonzero;stroke:none"
         id="path36" />
      <path
         d="m 23562,5204.8 c -77.4,0 -143.8,-17 -203.1,-51.9 -329.7,-193.9 -587.3,-1352 -338.3,-1882.8 224.3,-478.1 718.4,-909.4 818.8,-994 314.6,335.1 622.6,554.9 915.9,653.8 l 0.7,7.8 c 32.7,407.2 81.9,1018.8 308.2,1251.9 -92.3,230.8 -163.9,541.8 -134.7,726.6 -368.1,16.3 -664.7,109.3 -904.3,184.4 -178.3,55.9 -332.2,104.2 -463.2,104.2 z m 282.1,-2997.4 -18.3,14.7 c -5.9,4.8 -596.7,485.3 -850.7,1026.7 -263.1,560.9 6.2,1740.3 358.2,1947.4 67.3,39.6 142.1,58.8 228.7,58.8 138.6,0 296,-49.3 478.3,-106.4 243,-76.2 545.4,-171 920.4,-183.3 l 30.7,-1 -7.1,-30 c -36.7,-152.6 19.2,-464.4 132.7,-741.2 l 6.5,-16 -12.5,-11.9 c -222.8,-210 -272.2,-824.7 -305,-1231.5 l -3.3,-41.2 -16,-5.1 c -294.9,-95.2 -606.7,-318.2 -926.7,-662.9 l -15.9,-17.1"
         style="fill:#68504a;fill-opacity:1;fill-rule:nonzero;stroke:none"
         id="path38" />
      <path
         d="m 18940.1,9145.3 c 267.8,-1352.6 1205.2,-1898.3 1848.1,-2069.1 642.8,-170.7 1315.8,-401.7 1396.1,-1014.4 80.4,-612.7 -50.2,-1737.7 361.6,-2591.4 411.8,-853.8 1080.7,-1387.7 1359.3,-1319.1 217.6,53.5 -140.6,590.2 -279.6,706.4 -204.2,170.7 -435.9,436.6 -452.6,701.1 284.6,-321.4 1080.4,-826.6 1605.6,-711.6 464,101.6 -190.4,392.2 -485,593.1 -294.7,200.8 -658.9,569 -665.6,790 517.3,-341.5 1295,-344.8 1529.4,-117.1 234.3,227.7 -599.3,217.6 -867.2,344.9 -267.8,127.2 -412.1,275 -448.9,419 229.6,-144.5 1091.7,-184.7 1205.6,-10.6 113.8,174.1 -318.7,312.9 -716.5,381.7 -376.2,65.1 -555.8,408.5 -562.5,736.6 -6.7,328.1 314.7,1057.9 134,1473.1 -180.9,415.2 -535.7,575.9 -509,970.9 26.8,395.1 542.4,977.7 200.9,1667.4 -341.5,689.7 -4653.7,-950.9 -4653.7,-950.9"
         style="fill:#98675a;fill-opacity:1;fill-rule:nonzero;stroke:none"
         id="path40" />
      <path
         d="m 24330.4,5248.2 c -376.2,65.1 -555.8,408.5 -562.5,736.6 -6.7,328.1 314.7,1058 134,1473.1 -180.9,415.2 -535.7,575.9 -509,970.9 26.8,395.1 542.4,977.7 200.9,1667.4 -287.8,581.2 -3395.8,-492.6 -4366.1,-844.6 257.8,-201.2 480.6,-401.4 722,-582.5 232.7,-169.3 444.3,-338.5 698.1,-380.8 909.6,-126.9 2295.3,-79.3 2591.4,-1158.2 105.8,-423.1 54.4,-562.6 100.5,-1089.5 31.7,-362.5 216,-623.7 523.6,-862 304.5,-236 1260.2,-190.4 1104.6,-369.1 36.8,15.6 64.2,34.5 79,57 113.8,174.1 -318.7,312.9 -716.5,381.7"
         style="fill:#84574e;fill-opacity:1;fill-rule:nonzero;stroke:none"
         id="path42" />
      <path
         d="m 23625.6,2857.7 c -111.5,93.3 -435.7,395.8 -442.8,681.4 -179.4,245 -164.1,222.7 -250.3,518.3 -36.6,-511.2 437.2,-955.5 246.8,-1315.1 -21.7,-36.2 -85.6,-51.2 -118.7,-56.4 328.3,-375.4 666.3,-578.5 844.6,-534.6 217.6,53.5 -140.6,590.2 -279.6,706.4"
         style="fill:#84574e;fill-opacity:1;fill-rule:nonzero;stroke:none"
         id="path44" />
      <path
         d="m 24293.6,3440.3 c -289.1,197.1 -645,555.2 -664.6,777.3 -63.6,63.3 -120.4,135.6 -167.7,220.6 0,-631.1 825.1,-1269.3 506,-1438.4 277.4,-128.7 572.3,-205 811.3,-152.6 464,101.6 -190.4,392.2 -485,593.1"
         style="fill:#84574e;fill-opacity:1;fill-rule:nonzero;stroke:none"
         id="path46" />
      <path
         d="m 24290.2,4458.1 c -263,124.9 -406.6,269.7 -446.6,411.2 -37.2,24.6 -123.2,146.5 -186.6,219.4 26.5,-592.3 474.2,-558.8 643.5,-855 46,-103.5 31.7,-193.9 -37.3,-247.9 379.9,-68.1 745.8,-16.7 894.2,127.4 234.3,227.7 -599.3,217.6 -867.2,344.9"
         style="fill:#84574e;fill-opacity:1;fill-rule:nonzero;stroke:none"
         id="path48" />
      <path
         d="m 18968.9,9129.3 c 300.9,-1472.8 1375.9,-1909.3 1825.7,-2028.8 641,-170.3 1331.9,-404.8 1414.6,-1035.5 23.5,-178.7 28.9,-394.8 35.3,-644.9 15.1,-595.7 33.8,-1337.2 324,-1938.8 407.2,-844 1018.1,-1310.8 1284.7,-1310.8 16.6,0 32,1.7 46,5.1 25.9,6.4 40.7,21.2 46.5,46.3 33.5,144.4 -226.9,525.2 -336.2,616.5 -132.1,110.5 -441.5,401.6 -461.6,718.8 l -4.6,73.1 48.5,-54.8 c 266.2,-300.6 936.4,-719.9 1423.5,-719.9 55.9,0 109.1,5.4 157.9,16.1 86.2,18.9 136.3,45.9 141.2,76.1 13.1,80.9 -235.8,229 -417.6,337.1 -80.1,47.6 -155.8,92.6 -217.4,134.6 -276.4,188.5 -669,564.4 -676.5,810 l -1.5,48.4 40.4,-26.6 c 256.3,-169.2 610.7,-270.3 948,-270.3 247.6,0 453.3,56.2 550,150.2 18.2,17.7 38.5,42.9 32.3,62.8 -20.6,65.9 -262.1,106.1 -456.1,138.3 -166,27.6 -337.6,56 -436.6,103.1 -261.4,124.2 -421.4,274.8 -462.4,435.5 l -15.6,61.1 53.3,-33.6 c 112,-70.5 403.6,-121.7 693.4,-121.7 h 0.1 c 252.9,0 435.9,39.7 477.6,103.6 15.9,24.3 18.6,46.4 8.6,69.6 -43.9,100.7 -315.2,205.6 -708.3,273.5 -393.6,68.1 -576.6,431.2 -583.3,760.9 -2.4,119.1 35.7,283.3 79.9,473.3 79.6,342 169.7,729.6 56.2,990.3 -70.8,162.5 -167.4,283.5 -260.7,400.6 -137.3,172.1 -267.1,334.8 -250.3,582 8.7,128.5 65.2,270.3 130.6,434.6 134.4,337.5 301.7,757.6 72.8,1219.9 -51,103.1 -209.7,155.3 -471.4,155.3 -1144.8,0 -3870.2,-1013 -4131,-1111 z m 4884.3,-7009.1 c -323.5,0 -949.2,550 -1330,1339.3 -294.8,611.3 -313.7,1358.8 -328.9,1959.4 -6.4,248.7 -11.8,463.5 -34.9,639.6 -78.7,599.9 -752.4,827.3 -1377.7,993.4 -461,122.5 -1565.8,571.2 -1866.3,2088.5 l -4.1,20.9 19.8,7.5 c 29.5,11.2 2962.8,1121.8 4168.8,1121.8 286.4,0 455.4,-60 516.5,-183.3 238.8,-482.3 66.9,-914 -71.2,-1260.8 -63.9,-160.3 -119,-298.8 -127.2,-419.4 -15.4,-227.8 102.7,-375.9 239.4,-547.3 91,-114 194.1,-243.3 267.5,-411.9 120.2,-275.9 28.1,-672.1 -53.2,-1021.7 -41.6,-179 -80.9,-348 -78.6,-460.9 6.3,-309 176.1,-649.2 541.6,-712.3 199.6,-34.6 671.8,-133.3 745.8,-303.1 16.7,-38.5 12.3,-79 -12.6,-117.1 -74.6,-114 -388.2,-126.3 -519.7,-126.3 -0.1,0 -0.1,0 -0.1,0 -218.2,0 -500.9,31.3 -661.8,99.5 58,-124.8 199.8,-243.2 414.7,-345.2 92.6,-44 260.7,-71.9 423.3,-99 250,-41.5 465.9,-77.4 495.7,-172.8 11.2,-35.6 -4.1,-73.9 -45.1,-113.8 -107.6,-104.5 -320.8,-164.4 -585.1,-164.4 -326.7,0 -669.4,92.4 -928.8,249 52.8,-204 360.8,-523.8 646.7,-718.8 60.4,-41.1 135.4,-85.7 214.8,-133 236.6,-140.6 460.1,-273.5 441.5,-388.3 -8.7,-54.2 -67.6,-92.5 -180,-117.1 -52.4,-11.5 -109.2,-17.3 -168.7,-17.3 -488.2,0 -1110.8,383 -1406.5,679 57.9,-268.3 316.7,-510.2 432.9,-607.3 119.8,-100.2 393.1,-493.2 353,-666.4 -10.1,-43.8 -39,-72.8 -83.5,-83.7 -17.9,-4.4 -37.4,-6.7 -58,-6.7"
         style="fill:#63413b;fill-opacity:1;fill-rule:nonzero;stroke:none"
         id="path50" />
      <path
         d="m 23232.6,3461.1 c -250.3,237.9 -293.4,561.2 -293.4,561.2 0.8,-3 87.9,-296.6 328,-524.7 l -34.6,-36.5"
         style="fill:#63413b;fill-opacity:1;fill-rule:nonzero;stroke:none"
         id="path52" />
      <path
         d="m 23757.9,4126 c -187.8,76 -332.3,339.2 -332.3,339.2 1.8,-2.2 175.8,-221.6 351.2,-292.6 l -18.9,-46.6"
         style="fill:#63413b;fill-opacity:1;fill-rule:nonzero;stroke:none"
         id="path54" />
      <path
         d="m 23950.9,4801.9 c -163.4,48.7 -237.7,208.4 -237.7,208.4 1,-1.1 102.9,-115.8 252.1,-160.3 l -14.4,-48.1"
         style="fill:#63413b;fill-opacity:1;fill-rule:nonzero;stroke:none"
         id="path56" />
      <path
         d="m 10671,17595 c 141.7,-2129.7 1680.1,-2798.2 3903.2,-2744.6 2223.1,53.5 3508.8,1473.1 5731.8,2437.4 2223.1,964.2 3721.7,525.9 4529.7,104 1643,-26.8 2294.6,1270.3 3773.5,2540.5 1801.2,1547.2 4044.4,2805.2 6421.5,2642 2331.2,-160 2899.4,-1356.5 2256.6,-1165.4 -642.8,191.1 -3053.4,601.7 -4767.6,-929.4 -1714.2,-1531.1 -2839.1,-3298.9 -3696.2,-4825.6 -857.1,-1526.7 -2050.3,-3887.1 -3445.2,-4884.8 -1931.8,1878.9 -1396.1,2909.7 -3545.5,2581.5 C 19683.3,13022.3 15284,10032.5 12752.9,11226.1 10221.8,12419.7 7947.95,15299.2 8502.29,16691.9 9639.2,16819 10671,17595 10671,17595"
         style="fill:#98675a;fill-opacity:1;fill-rule:nonzero;stroke:none"
         id="path58" />
      <path
         d="m 14625.8,14606.4 c 2397.5,56.4 3378.4,1348.7 5601.5,2312.9 2223.1,964.2 3792.9,818.6 4813.6,230.9 1643,-26.7 2010.6,1143.4 3489.5,2413.7 1801.3,1547.2 4358,3029.3 6735.1,2866.1 888.4,-60.9 1552.2,-299.9 1998.3,-561.6 -356.8,293.2 -1078.6,626.7 -2233.1,705.9 -2377.1,163.2 -4620.3,-1094.8 -6421.5,-2642 -1478.9,-1270.2 -2130.5,-2567.3 -3773.5,-2540.5 -808,421.9 -2306.6,860.2 -4529.7,-104 -2223,-964.3 -3508.7,-2383.9 -5731.8,-2437.4 -1420.1,-34.2 -2560.7,226.3 -3236.5,974 680.4,-860.2 1846.4,-1251.9 3288.1,-1218"
         style="fill:#ad857b;fill-opacity:1;fill-rule:nonzero;stroke:none"
         id="path60" />
      <path
         d="m 34355.9,21777.8 c -2073.2,-528.9 -2919.3,-1498 -4454.9,-3208.5 -3461,-3855.2 -7032,-4971.3 -7137.8,-5013.6 -126.9,-42.3 -253.8,-105.7 -380.7,-126.9 -38.4,-8.5 -76.3,-17.8 -114,-27.6 1647.5,119.8 1321.3,-892.6 3109.8,-2632.1 1394.9,997.7 2588.1,3358.1 3445.2,4884.8 857.1,1526.7 1982,3294.5 3696.2,4825.6 1714.2,1531.1 4124.8,1120.5 4767.6,929.4 225.6,-67.1 301.8,36.8 205.3,206.7 128.1,-197.5 -1232.8,535.9 -3136.7,162.2"
         style="fill:#84574e;fill-opacity:1;fill-rule:nonzero;stroke:none"
         id="path62" />
      <path
         d="m 22516.6,13436.1 c 847.3,0 1099.4,-369 1557.2,-1038.8 292.2,-427.6 655.3,-959 1307,-1595.5 1222.6,885.7 2313.8,2862.1 3111.4,4307 107.4,194.6 210.6,381.5 309.4,557.4 799.9,1425 1943.6,3262 3701.3,4832 1048.2,936.2 2342.1,1132.7 3242.9,1132.7 651.1,0 1226.9,-102.2 1548.7,-197.9 43.6,-13 82.3,-19.6 114.9,-19.6 64.1,0 97.5,24.2 99.1,71.8 8.5,245.6 -741.2,944.7 -2479.5,1064 -137.4,9.5 -277.4,14.3 -416.1,14.3 -1925.6,0 -3940,-891.7 -5987.3,-2650.2 -400.7,-344.2 -734,-683.6 -1056.3,-1011.9 -853.9,-869.8 -1528.2,-1553.6 -2734,-1534.7 l -6,0.1 -5.2,2.7 c -600.1,313.3 -1268.7,472.2 -1987.1,472.2 -790,0 -1638.2,-194.1 -2520.9,-577 -764.4,-331.5 -1411.6,-713.4 -2037.6,-1082.7 -1201.8,-709.1 -2239.8,-1321.5 -3703.7,-1356.8 -81.1,-1.9 -161.3,-2.9 -240.6,-2.9 -2338.7,0 -3544.6,891.9 -3685.1,2725.9 -194.1,-137.3 -1123.94,-762 -2128.9,-879.6 -245.13,-643.7 116.46,-1676.9 970.11,-2768.8 858.69,-1098.3 2082.39,-2089.4 3273.29,-2650.9 390.5,-184.2 853.2,-277.5 1375.4,-277.5 1511.4,0 3320.4,760.6 4916.4,1431.7 1054,443.2 2049.4,861.7 2773.6,972.3 267.4,40.8 492.3,60.7 687.6,60.7 z m 2859.3,-2699.6 -15.1,14.6 c -664.7,646.5 -1032.8,1185.1 -1328.5,1617.8 -553.4,809.8 -803.3,1169.5 -2195.8,956.9 -718,-109.7 -1710.7,-527.1 -2761.6,-969 -1600.4,-672.9 -3414.4,-1435.7 -4935.9,-1435.7 -529.7,0 -999.6,95 -1396.8,282.3 -1197.7,564.8 -2428.2,1561.2 -3291.44,2665.4 -883.99,1130.7 -1238.21,2163.1 -971.83,2832.4 l 5.59,14 14.97,1.7 c 1117.19,124.9 2146.11,890.5 2156.31,898.2 l 37.1,27.8 3.1,-46.2 c 65.2,-979.4 420.7,-1674.2 1086.9,-2124.2 597.6,-403.7 1432.1,-600 2551.3,-600 78.9,0 158.6,1 239.4,3 1450.8,35 2483.6,644.3 3679.4,1349.8 627.2,370.1 1275.8,752.7 2043,1085.5 889.1,385.6 1744.1,581.2 2541,581.2 724.5,0 1399,-159.9 2005,-475.2 1181.5,-16 1847.3,660 2691.5,1519.8 323,329 657.1,669.3 1059.3,1014.8 2056.7,1766.6 4082.2,2662.3 6020.1,2662.3 139.8,0 281,-4.8 419.6,-14.3 1797.4,-123.4 2535.4,-848.3 2526.3,-1115.9 -3.7,-106.3 -112.7,-148 -278.7,-98.7 -318.4,94.7 -888.6,195.8 -1534.3,195.8 -892.1,0 -2173.1,-194.3 -3209.4,-1119.9 -1752.2,-1565 -2893,-3397.5 -3691.1,-4819.1 -98.6,-175.8 -201.7,-362.6 -309.1,-557.1 -848.4,-1536.9 -1904.4,-3449.7 -3143.2,-4335.8 l -17.1,-12.2"
         style="fill:#63413b;fill-opacity:1;fill-rule:nonzero;stroke:none"
         id="path64" />
      <path
         d="m 25070.8,17150.2 c -1.9,1.4 -235.5,216.5 -375.6,283.6 l 21.1,45.6 c 231.1,-124.7 354.5,-329.2 354.5,-329.2"
         style="fill:#63413b;fill-opacity:1;fill-rule:nonzero;stroke:none"
         id="path66" />
      <path
         d="m 4927.8,17565.9 c 352.25,-5286.8 3152.49,-8500.9 8743.1,-9384.8 5590.6,-883.9 11211.3,1159.2 12667.6,3656 1226.1,2102 101.5,3357.5 -2754.7,3174 -3759.9,-241.6 -6731.1,-2561.8 -9177,-2413.9 -2445.9,147.9 -4868.68,1252.1 -5195.38,4252.5 -183.68,1687 -4283.62,716.2 -4283.62,716.2"
         style="fill:#d8c9c3;fill-opacity:1;fill-rule:nonzero;stroke:none"
         id="path68" />
      <path
         d="M 12079.5,12907.6 C 11762.9,10624.1 7439.13,9172.1 5430.28,14664 6502.56,11094.8 9190.42,8889.4 13670.9,8181.1 c 5590.6,-883.9 11211.3,1159.2 12667.6,3656 901.2,1545 532.4,2632.6 -860.4,3027.7 -3760.8,-3154.9 -10441.4,-4852.9 -13398.6,-1957.2"
         style="fill:#bfaaa3;fill-opacity:1;fill-rule:nonzero;stroke:none"
         id="path70" />
      <path
         d="M 4954.31,17546.3 C 5317.47,12206 8251.32,9063.4 13674.8,8205.9 c 878.5,-138.9 1786.7,-209.3 2699.1,-209.3 4387.1,0 8661.7,1656.5 9942.9,3853.2 518.7,889.3 625.7,1650.4 309.4,2201.1 -358,623.3 -1226.1,952.8 -2510.5,952.8 -169.5,0 -348,-6 -530.3,-17.7 -1925.6,-123.7 -3661.9,-800.8 -5193.7,-1398.1 -1407.1,-548.7 -2622.3,-1022.6 -3757.2,-1022.6 -77.2,0 -154.4,2.3 -229.2,6.8 -1357.2,82.1 -2534.8,449 -3405.3,1061.1 -1051.72,739.5 -1661.87,1820.8 -1813.56,3213.8 -70.22,644.8 -731.42,971.7 -1965.26,971.7 -1023.16,0 -2104.73,-235.7 -2266.87,-272.4 z m 11419.59,-9600 c -915.1,0 -1825.8,70.6 -2707,210 -2759.9,436.3 -4896.51,1462.2 -6350.46,3049.1 -1424.01,1554.3 -2236.1,3693.7 -2413.71,6358.9 l -1.42,21.2 20.71,4.9 c 11.78,2.8 1189.43,278.6 2299.16,278.6 1263.73,0 1941.75,-342 2015.22,-1016.6 373.6,-3431.1 3400.7,-4123.1 5171.9,-4230.1 73.8,-4.5 150,-6.8 226.2,-6.8 1125.4,0 2336.6,472.3 3738.9,1019.2 1535.3,598.7 3275.4,1277.2 5208.7,1401.5 183.5,11.7 363,17.7 533.6,17.7 1303.4,0 2186.6,-338.2 2554.1,-978 325.8,-567.1 218.7,-1345.7 -309.6,-2251.4 C 25070.6,9613.6 20777.5,7946.3 16373.9,7946.3"
         style="fill:#68504a;fill-opacity:1;fill-rule:nonzero;stroke:none"
         id="path72" />
      <path
         d="m 13918,6721.3 c 247.7,140.7 890.6,241.1 1145,67 247.8,294.6 629.5,589.3 997.7,502.2 73.7,147.3 234.4,783.4 569.2,796.8 -529,582.6 -850.4,1084.8 -1165.1,1084.8 -314.7,0 -1319.1,-435.2 -1399.5,-1178.5 C 13985,7250.3 13918,6721.3 13918,6721.3"
         style="fill:#bfaaa3;fill-opacity:1;fill-rule:nonzero;stroke:none"
         id="path74" />
      <path
         d="m 15464.8,9147 c -301.2,0 -1295.2,-422.8 -1374.5,-1156.1 -65.9,-609.2 -123.3,-1079.2 -141.4,-1225.3 173.3,82.5 457.4,140.2 701.3,140.2 123.3,0 291.1,-15 407.9,-84.5 142.8,166 484.9,509.8 868.2,509.8 40.6,0 80.9,-3.9 120.1,-11.8 12.2,27.6 26.7,66.5 43.2,110.3 88.6,236.2 233.3,622 489.4,676.6 -119.8,133.3 -230.2,263.4 -328.6,379.4 -325.7,384 -561,661.4 -785.6,661.4 z m -1578,-2472.3 6.3,49.8 c 0.7,5.3 67.8,537.3 147.2,1271.8 82.4,761.8 1112.4,1200.9 1424.5,1200.9 247.8,0 489.5,-284.8 823.9,-679.1 106.9,-126 228.1,-268.8 359.8,-413.9 l 36.2,-39.8 -53.8,-2.2 c -254.1,-10.1 -410.3,-426.5 -494.3,-650.3 -21.7,-57.7 -38.7,-103.3 -53.4,-132.6 l -8.9,-17.8 -19.4,4.5 c -41.6,9.9 -84.9,14.9 -128.6,14.9 -375.6,0 -715.4,-355.8 -844,-508.8 l -14.7,-17.4 -18.8,12.9 c -84.1,57.5 -222,88 -398.6,88 -253.6,0 -563,-67.1 -719.8,-156.1 l -43.6,-24.8"
         style="fill:#68504a;fill-opacity:1;fill-rule:nonzero;stroke:none"
         id="path76" />
      <path
         d="m 11936,13350.6 c 0,0 321.4,-1151.9 830.3,-1834.9 508.9,-683 783.4,-729.8 1004.4,-1131.6 221,-401.8 562.5,-1158.4 274.5,-1767.8 -287.9,-609.3 -373.3,-1017.8 -328.1,-1550.1 45.2,-532.3 291.3,-607.7 326.4,-351.6 35.2,256.2 95.6,848.8 311.5,1175.2 88.6,-696.4 461.9,-1175.2 733.1,-1210.3 271.2,-35.2 70,418.3 -5,631.1 -144,408.5 -85.4,785.1 -15.1,970.9 211,-517.2 611.9,-1090.5 1039.6,-1104.8 398.4,-13.4 73.7,277.9 -66.9,525.6 -161.9,285.1 -360,860.5 -214.3,810.2 145.6,-50.2 445.3,-502.2 883.9,-532.3 254.5,-17.5 -321.5,497.2 -512.3,793.5 -190.8,296.3 -112.2,522.3 -217.6,773.4 -111.3,265 -207,386.1 -314.7,944.1 -110.5,572.5 -192.8,1284.8 -482.1,1888.3 -351.6,733.2 -1014.5,1190.2 -1014.5,1190.2 L 11936,13350.6"
         style="fill:#98675a;fill-opacity:1;fill-rule:nonzero;stroke:none"
         id="path78" />
      <path
         d="m 13730.3,10763.4 c -690.2,828.2 -1341.6,1405.7 -1770.1,2593.9 v 0 c 0,0 297.2,-1158.6 806.1,-1841.6 508.9,-683 783.4,-729.8 1004.4,-1131.6 221,-401.8 562.5,-1158.4 274.5,-1767.8 -51.6,-109.3 -320.9,-644.9 -336.8,-1177.4 109.6,609.6 471.4,976.3 545.5,1309.5 148.1,666.6 -79.3,1464.9 -523.6,2015"
         style="fill:#ad857b;fill-opacity:1;fill-rule:nonzero;stroke:none"
         id="path80" />
      <path
         d="m 16036.1,8711.4 c 229.2,-289.1 648.6,-553.6 506.3,-698.4 53.5,-17.1 109.4,-28.8 167.9,-32.8 254.5,-17.5 -321.5,497.2 -512.3,793.5 -190.8,296.3 -112.2,522.3 -217.6,773.4 -111.3,265 -207,386.1 -314.7,944.1 -110.5,572.5 -192.8,1284.8 -482.1,1888.3 -351.6,733.2 -1018.8,1164 -1018.8,1164 l -10,5.6 c 725.2,-721.2 936.8,-1765.4 1035.2,-2828.1 42.3,-317.3 303.2,-620.5 451.3,-916.6 190.3,-380.8 95.2,-715 394.8,-1093"
         style="fill:#84574e;fill-opacity:1;fill-rule:nonzero;stroke:none"
         id="path82" />
      <path
         d="m 13857.2,7000.5 c -30.5,-30.5 -98.8,-61.4 -132.9,-1.3 59.3,-471 285.6,-529.5 319.2,-284.6 34.7,252.5 94,831.6 302.4,1160.7 17.8,222.4 10.1,226 85.1,429.6 -465.4,-627.4 -322.9,-965.9 -573.8,-1304.4"
         style="fill:#84574e;fill-opacity:1;fill-rule:nonzero;stroke:none"
         id="path84" />
      <path
         d="m 15077.1,8521 c -232.7,-465.4 -246.8,-867.3 -225.6,-1396.2 0,-42.3 26.4,-132.2 -39.7,-158.7 -71.4,-15.8 -124.4,66.6 -173,93.2 141.4,-224.4 309,-361.6 449.3,-379.8 271.2,-35.2 70,418.3 -5,631.1 -144,408.5 -85.4,785.1 -15.1,970.9 6.8,-16.4 13.7,-32.9 20.8,-49.5 -14.4,129.9 -25.1,155.5 -11.7,289"
         style="fill:#84574e;fill-opacity:1;fill-rule:nonzero;stroke:none"
         id="path86" />
      <path
         d="m 15710.4,8562.7 c -169.2,-380.7 256.1,-802.1 90.4,-1086.2 -55.5,-95.2 -170.9,-25.4 -210.1,-27.3 159.2,-160 335.7,-266.4 516.9,-272.5 398.4,-13.4 73.7,277.9 -66.9,525.6 -161.9,285.1 -360,860.5 -214.3,810.2 83.5,-28.8 217.9,-189.8 400.1,-327.5 -98,128.6 -205.8,184.7 -309.4,320.1 -42.3,42.3 -158.6,148.1 -206.7,57.6"
         style="fill:#84574e;fill-opacity:1;fill-rule:nonzero;stroke:none"
         id="path88" />
      <path
         d="m 13942,6547.6 c -0.8,0 -1.6,0 -2.4,0.1 -101.6,2.6 -217.6,163.3 -247.5,516.4 -45.9,540.5 40.5,949.5 330.4,1562.9 207.3,438.9 112.7,1042.3 -273.9,1745 -106.3,193.4 -227,304.6 -379.9,445.4 -161.2,148.5 -361.8,333.3 -622.6,683.3 -168.2,225.7 -316.4,503.9 -439.5,775 -247,544.3 -346.4,1081.6 -346.4,1081.6 3.1,-11.4 326,-1155.2 826.2,-1826.6 258,-346.2 456.7,-529.3 616.3,-676.3 156.3,-143.9 279.7,-257.6 390,-458.2 394.6,-717.4 489.7,-1336.6 275.2,-1790.6 -285.6,-604.4 -370.8,-1006.7 -325.8,-1537.3 28.9,-339.7 137.3,-468.8 198.8,-470.4 39.1,-1.3 67.4,45.1 77.8,120.1 3.1,23.1 6.5,48.8 10.1,76.8 36.9,282 105.6,807 305.3,1108.9 l 37.3,56.4 8.5,-67.1 c 83.7,-656.9 442.1,-1153.7 711.5,-1188.6 42.8,-5.5 71.6,2 88.4,23 63.3,79.7 -33.4,339.6 -91.2,494.9 -10.7,29 -20.8,56 -29.2,79.9 -138.4,392.6 -94.5,777.7 -14.9,988.2 l 22.6,59.8 24.2,-59.2 c 217.1,-532.4 615.8,-1075.7 1017.2,-1089.2 114.1,-3.8 150.2,18.5 160.6,37.8 26.5,49.3 -58,168.1 -132.6,272.9 -41.5,58.4 -84.4,118.8 -117.7,177.4 -116.6,205.5 -331.8,732.9 -249.5,831.9 8.9,10.7 29.2,26.9 65.3,14.5 51.8,-17.9 115.6,-76.6 196.4,-150.8 165.5,-152.1 392.2,-360.4 681,-380.2 26.4,-1.9 35,3.4 36.1,5.6 21.2,42.6 -161.3,251.8 -282,390.3 -109.2,125.1 -222,254.5 -289.2,358.9 -115.7,179.7 -134.9,333 -153.3,481.3 -12.6,100.9 -24.5,196.3 -66.4,295.9 -23.4,55.7 -46.1,105 -68.3,153.4 -83.5,181.3 -162.4,352.6 -247.9,795.8 -20.9,108.3 -40.8,221.7 -61.3,338.4 -87,495.6 -185.6,1057.4 -418.8,1543.7 -344.4,718.5 -999.5,1175.9 -1006.1,1180.5 0,0 397.7,-216.2 729,-643.1 117.4,-151.3 230.7,-324.4 322.4,-515.6 236.2,-492.6 335.5,-1058 423,-1556.8 20.4,-116.4 40.3,-229.5 61.1,-337.6 84.4,-437.2 162,-605.8 244.2,-784.3 22.5,-48.8 45.4,-98.6 69,-154.9 44.6,-106.1 57.5,-209.3 69.9,-309.2 17.8,-142.7 36.2,-290.2 145.7,-460.3 65.3,-101.3 176.9,-229.3 284.9,-353.1 207.7,-238.2 323.6,-376.4 289.1,-445.7 -12.5,-25.1 -40.9,-36 -84.5,-33.4 -306.5,21.1 -540.6,236.3 -711.5,393.4 -73.6,67.5 -137.1,125.8 -178.9,140.3 -6.1,2.1 -9.2,1.7 -9.6,1.5 -0.5,-0.2 -2.7,-2.7 -4.6,-9.6 -28.8,-103.4 126.2,-532.8 258.5,-766 32,-56.4 74.2,-115.7 115,-173 95,-133.7 177.1,-249.1 135.9,-325.9 -25.7,-47.7 -91.5,-68.3 -206.6,-64.2 -434.6,14.6 -822.6,565.8 -1036.1,1058.7 -62.2,-211 -85,-547.7 36.1,-891.4 8.3,-23.7 18.3,-50.4 29,-79 69.3,-186.5 164.3,-441.9 83.3,-543.7 -28.2,-35.5 -73.3,-49.5 -134.2,-41.7 -283.6,36.8 -641.6,508.4 -744.9,1162.1 -165.9,-298.7 -227.3,-768.3 -261.3,-1028.3 -3.7,-28.2 -7.1,-54 -10.3,-77.1 -16.5,-120.7 -75.7,-163.6 -126.4,-163.6"
         style="fill:#63413b;fill-opacity:1;fill-rule:nonzero;stroke:none"
         id="path90" />
      <path
         d="m 14352.2,7746.9 c -50.5,279.1 78.8,558 78.8,558 -0.8,-2.8 -77.7,-281.7 -29.4,-549.1 l -49.4,-8.9"
         style="fill:#63413b;fill-opacity:1;fill-rule:nonzero;stroke:none"
         id="path92" />
      <path
         d="m 22254.6,9252.5 c 308,33.4 636.1,-53.6 991,-227.7 442.9,351.2 770.1,582.5 1212,662.9 59.1,225.9 247.8,716.5 455.4,830.3 -381.7,388.4 -821.4,703.1 -725.4,1191.9 -1216.5,-535.7 -1604.9,-796.8 -1725.4,-1212 -120.5,-415.1 -207.6,-1245.4 -207.6,-1245.4"
         style="fill:#bfaaa3;fill-opacity:1;fill-rule:nonzero;stroke:none"
         id="path94" />
      <path
         d="m 22386.7,9284.7 c 256.1,0 536.2,-75.4 855.7,-230.4 416.1,329.6 748.6,569.9 1195.1,655.2 60.4,221.2 234.7,672.2 435.6,813.1 -53.2,53.5 -107.7,106 -160.6,156.9 -313.5,302.3 -610.3,588.3 -557.3,988.7 -1194,-528 -1554.6,-783.7 -1668.9,-1177.3 -105.5,-363.4 -186.3,-1056.9 -203.4,-1210.5 34.2,2.8 69,4.3 103.8,4.3 z m 862.1,-289.5 -14.2,7 c -373.6,183.3 -690.9,256.4 -977.3,225.3 l -30.9,-3.4 3.2,31 c 0.9,8.3 88.7,837.3 208.5,1249.8 120.7,415.9 494.6,679.9 1739.3,1228 l 44,19.4 -9.2,-47.2 c -78.2,-398.1 219.8,-685.3 535.2,-989.4 60.4,-58.2 122.9,-118.4 183.5,-180.1 l 23.2,-23.6 -29.1,-16 c -200.9,-110.2 -388.3,-605.6 -443.1,-814.7 l -4,-15.5 -15.7,-2.8 c -447.4,-81.3 -779.9,-324 -1201,-657.9 l -12.4,-9.9"
         style="fill:#68504a;fill-opacity:1;fill-rule:nonzero;stroke:none"
         id="path96" />
      <path
         d="m 19730.2,15948.5 c 0,0 -1044.6,-1727.6 -133.9,-3040 910.6,-1312.4 2812.3,-870.5 3508.7,-883.9 -920.7,-900.6 -1145,-2323.5 -950.8,-2758.8 194.2,-435.2 464.7,751.1 612,938.6 -16.9,-657.3 188.2,-1229.8 492.8,-1290.1 276,-54.6 130.6,585.9 97.1,880.5 -33.5,294.7 117.2,579.2 177.5,957.6 147.3,-662.9 575.8,-1138.4 897.2,-1145.1 321.5,-6.7 -15.9,511.7 -140.6,716.5 -117.2,192.5 -120.1,420.4 -80,668.1 154,-308 595.6,-664.7 783.1,-557.6 187.5,107.1 -408.5,539 -341.5,833.7 67,294.6 844.9,790.5 823.6,1312.4 -14.2,349 -265.3,524.8 -438.6,552.4 646.2,110.5 1075.4,730.6 1242.2,1489.9 254.4,1158.4 -388.4,1660.6 -388.4,1660.6 l -6160.4,-334.8"
         style="fill:#98675a;fill-opacity:1;fill-rule:nonzero;stroke:none"
         id="path98" />
      <path
         d="m 20235.3,12762.5 c -1066.4,797.1 -926.9,2102.3 -483.6,3173 v 0 c 0,0 -1066.1,-1714.6 -155.4,-3027 804.1,-1158.8 2692.7,-931.4 3530.1,-875.9 -134.1,58.9 -676.9,41 -871.8,56.4 -717.3,56.7 -1441,241.1 -2019.3,673.5"
         style="fill:#ad857b;fill-opacity:1;fill-rule:nonzero;stroke:none"
         id="path100" />
      <path
         d="m 22206.2,9511.7 c -27.2,-24.1 -79.9,-42.6 -108.3,-8.1 10,-96 29,-176.6 56.3,-237.8 180.7,-405 427.4,593.9 579.6,885.8 21.4,159 99.4,457.5 163.4,607.8 -299.7,-468.8 -433.6,-1018.5 -691,-1247.7"
         style="fill:#84574e;fill-opacity:1;fill-rule:nonzero;stroke:none"
         id="path102" />
      <path
         d="m 24210.1,9934.8 c -0.4,-153.8 -85,-149.8 -226.6,-76.7 148.1,-156.5 307.8,-247.9 447.3,-250.8 321.5,-6.7 -15.9,511.7 -140.6,716.5 -106,174.2 -118.4,377.5 -90,598.2 -38.1,122.5 -44.6,248.6 -44.6,407.2 -250,-592.7 75.7,-950.1 54.5,-1394.4"
         style="fill:#84574e;fill-opacity:1;fill-rule:nonzero;stroke:none"
         id="path104" />
      <path
         d="m 23548.6,11231.4 c -239.7,-669.9 -383.4,-1123.8 -425.7,-1737.3 -8,-179.8 -26.5,-179.8 -89.9,-201 -54.8,-9.1 -94.8,-2.4 -145.5,55 87.3,-239.6 216.5,-403.1 371.5,-433.8 276,-54.6 130.6,585.9 97.1,880.5 -31.6,277.9 100.6,547 166.3,894 -4.6,184.5 -13.4,325.8 26.2,542.6"
         style="fill:#84574e;fill-opacity:1;fill-rule:nonzero;stroke:none"
         id="path106" />
      <path
         d="m 25875.1,16263.6 v 0 c 248.3,-446.2 194.2,-1029.4 -65.6,-1459.7 -708.7,-1174.1 -2136.6,-1417.4 -2623.2,-1544.3 618.4,-119.6 1830,-211.6 1576.1,-973.1 -92.4,-282.8 -343.8,-391.4 -296.2,-1036.6 28,-380 627.9,-738.6 322.6,-808 80.1,-31.2 152.2,-37.5 204.5,-7.6 187.5,107.1 -408.5,539 -341.5,833.7 67,294.6 844.9,790.5 823.6,1312.4 -14.2,349 -265.3,524.8 -438.6,552.4 646.2,110.5 1075.4,730.6 1242.2,1489.9 254.4,1158.4 -403.9,1640.9 -403.9,1640.9"
         style="fill:#84574e;fill-opacity:1;fill-rule:nonzero;stroke:none"
         id="path108" />
      <path
         d="m 23290.7,8885.9 c -11.6,0 -23.8,1.2 -36.5,3.7 -295.6,58.5 -509.7,574.3 -514,1218.2 -36.7,-78.4 -79,-193.1 -122.9,-312.4 -139.3,-378 -247.1,-645.9 -366.6,-649.9 -0.9,-0.1 -1.9,-0.1 -2.9,-0.1 -45.4,0 -83.5,36.1 -116.6,110.2 -194.4,435.8 14.5,1828.2 913.2,2744 -114.1,-1.5 -254.7,-12 -413.6,-23.9 -859.8,-64 -2299,-171.3 -3055.2,918.5 -377.8,544.4 -420.6,1162.9 -340.7,1701.1 112.4,757.4 516.8,1340.2 516.8,1340.2 -10.4,-17.1 -1025.5,-1728.9 -134.8,-3012.7 739.8,-1066.1 2161.1,-960.2 3010.1,-896.9 189.4,14.1 353,26.1 478.5,23.8 l 60,-1.1 -42.9,-41.9 c -919.8,-899.7 -1138.1,-2299 -945.5,-2730.6 16.6,-37.3 42.8,-80 72,-80.4 94.8,3.2 225.6,358 321,617.1 68.1,184.6 126.8,344.1 176.3,407.1 l 46.9,59.6 -2,-75.8 c -16.8,-653.4 190.8,-1209 472.6,-1264.7 35,-7 61.7,-1.1 81.7,18 93.6,89 42.2,438.4 8.2,669.7 -8.9,61.2 -17.3,117.7 -22.7,165.3 -21.1,186.4 30.2,371.3 84.4,567.1 34.6,124.6 70.4,253.4 93.2,397.2 l 20.8,130.2 28.6,-128.7 c 147.9,-665.3 570.9,-1119 873.3,-1125.3 50.4,-1.2 82.2,11.4 97.5,38 64.2,112.1 -139.4,443.6 -237.2,602.8 l -22.9,37.5 c -106.2,174.4 -131.9,385.8 -83.3,685.2 l 12.4,76.8 34.8,-69.6 c 115.6,-231.2 395.5,-488.1 598.9,-549.7 62.7,-18.9 113,-18.1 149.2,2.6 17.3,9.9 21.4,21 23,28.5 11.5,54.9 -70.8,166 -150.4,273.4 -123.1,166.2 -262.7,354.5 -226.1,515.5 27.6,121.4 162.5,267.7 318.8,437.2 230.2,249.7 516.8,560.5 504.2,868.7 -13.9,341.2 -257.3,503.1 -417.5,528.6 l -196.7,47.9 196.5,1.7 c 584.7,100 1041.5,649.7 1221.8,1470.5 247.8,1128 -373,1630.5 -379.3,1635.5 0,0 352.6,-219.5 455.9,-769.5 44.3,-236.6 49.2,-527.7 -27.5,-876.8 -174.7,-795.4 -605.9,-1343 -1164.1,-1488.1 163.5,-67.1 348.6,-241 361.1,-547.8 13.4,-328.9 -281,-648.2 -517.5,-904.8 -151.4,-164.2 -282.1,-306 -306.7,-414.2 -31.4,-138.5 100.8,-317 217.5,-474.5 98,-132.2 175.3,-236.6 159.2,-313.6 -5.5,-26.3 -21.4,-47.1 -47.2,-61.8 -48.7,-27.8 -112.2,-30.2 -188.8,-7.1 -195.1,59.1 -456.1,287 -592.5,509.5 -31.3,-248.5 -3.6,-428.8 87.1,-578 l 22.9,-37.3 c 153.4,-249.7 311,-526.8 238,-654.1 -24.9,-43.4 -70.9,-64.8 -142.2,-63.3 -303.5,6.3 -719,425.6 -893.1,1052 -21.4,-101.6 -47.6,-196.2 -73.2,-288.6 -55.3,-199.2 -103,-371.2 -82.9,-547.9 5.3,-47.1 13.6,-103.1 22.5,-163.7 39.7,-270.2 89.1,-606.5 -23.3,-713.4 -24.3,-23.1 -54.3,-34.7 -89.6,-34.7"
         style="fill:#63413b;fill-opacity:1;fill-rule:nonzero;stroke:none"
         id="path110" />
      <path
         d="m 23058.3,11941.8 -37.5,33.4 c 151.5,170.3 438.3,230.3 438.3,230.3 -2.6,-1 -257.3,-102.5 -400.8,-263.7"
         style="fill:#63413b;fill-opacity:1;fill-rule:nonzero;stroke:none"
         id="path112" />
      <path
         d="m 22740.6,10078.6 c -14.6,396.1 156.6,680.8 156.6,680.8 -1.2,-2.8 -120.6,-294.4 -106.4,-678.9 l -50.2,-1.9"
         style="fill:#63413b;fill-opacity:1;fill-rule:nonzero;stroke:none"
         id="path114" />
      <path
         d="m 23527.4,10670.8 c -67.1,242.5 4.3,440.4 4.3,440.4 -0.2,-1.9 -20.3,-194.3 44.1,-427 l -48.4,-13.4"
         style="fill:#63413b;fill-opacity:1;fill-rule:nonzero;stroke:none"
         id="path116" />
      <path
         d="m 24223.2,10917 c -74.5,108.6 -67.4,314.4 -67.4,314.4 0.4,-1.9 40,-185.6 108.8,-286 l -41.4,-28.4"
         style="fill:#63413b;fill-opacity:1;fill-rule:nonzero;stroke:none"
         id="path118" />
      <path
         d="m 25183.8,13050.8 c -379.5,170.7 -1011.4,172.4 -1020.7,172.4 -0.1,0 -0.1,0 -0.1,0 0,0 654.2,47.6 1041.4,-126.5 l -20.6,-45.9"
         style="fill:#63413b;fill-opacity:1;fill-rule:nonzero;stroke:none"
         id="path120" />
      <path
         d="m 3117.03,20897.2 c -677.74,845.5 -727.07,2158.4 -353.8,2507.8 437.71,409.7 760.44,-274.5 1244.54,-623.1 484.1,-348.5 -890.74,-1884.7 -890.74,-1884.7"
         style="fill:#98675a;fill-opacity:1;fill-rule:nonzero;stroke:none"
         id="path122" />
      <path
         d="m 3200.92,23370.6 c -140.59,96.9 -359.29,67.2 -504.06,-44.3 9.46,10.8 56.27,69.2 66.37,78.7 437.71,409.7 760.44,-274.5 1244.54,-623.1 85.96,-61.9 113.09,-161.3 99.94,-282.8 -459.11,280.9 -592.3,653.3 -906.79,871.5"
         style="fill:#ad857b;fill-opacity:1;fill-rule:nonzero;stroke:none"
         id="path124" />
      <path
         d="m 2696.86,23326.3 c -158.93,-546.3 -0.58,-1580.4 630.65,-2179.7 -123,-151.7 -210.48,-249.4 -210.48,-249.4 -634.36,791.4 -718.13,1992.1 -420.17,2429.1"
         style="fill:#84574e;fill-opacity:1;fill-rule:nonzero;stroke:none"
         id="path126" />
      <path
         d="m 2780.06,23387 c -347.1,-324.9 -329.1,-1596.9 337.96,-2451.4 142.4,163.1 1017.72,1187.4 966.25,1660.1 -7.99,73.6 -37.72,128 -90.88,166.2 -143.31,103.2 -270.47,233.2 -393.43,358.9 -194.31,198.7 -377.84,386.4 -563.49,386.4 -86.15,0 -170.05,-39.4 -256.41,-120.2 z m 317.7,-2505.2 c -652,813.5 -754.08,2164.3 -351.37,2541.2 95.92,89.8 190.84,133.4 290.08,133.4 206.39,0 396.94,-194.8 598.71,-401.1 121.47,-124.3 247.13,-252.7 386.98,-353.4 64.27,-46.2 101.65,-113.8 111.08,-200.9 58.06,-533.6 -954.75,-1672.1 -997.85,-1720.3 l -19.44,-21.6 -18.19,22.7"
         style="fill:#63413b;fill-opacity:1;fill-rule:nonzero;stroke:none"
         id="path128" />
      <path
         d="m 3265.49,21452.3 c -264.65,290.4 -574.46,1174.7 -387.28,1361.9 187.19,187.2 606.74,-451.8 839.1,-438.9 -206.54,-348.6 -451.82,-923 -451.82,-923"
         style="fill:#3f2920;fill-opacity:1;fill-rule:nonzero;stroke:none"
         id="path130" />
      <path
         d="m 2824.18,22672.9 c 6.48,61.8 23.59,110.9 54.03,141.3 187.19,187.2 606.74,-451.8 839.1,-438.9 -35.99,-60.8 -73.15,-128.4 -109.99,-198.6 -235.35,68.8 -605.6,649.2 -783.14,496.2"
         style="fill:#281913;fill-opacity:1;fill-rule:nonzero;stroke:none"
         id="path132" />
      <path
         d="m 3322.05,22591.8 c -131.24,114.2 -266.95,232.1 -361.48,232.1 -25.46,0 -46.67,-8.8 -64.95,-27.1 -163.52,-163.6 96.65,-974.7 362.83,-1298.7 55.32,126.8 247.32,559.8 417.81,855.8 -103.72,20.1 -225.77,126.3 -354.21,237.9 z m -74.77,-1156.1 c -266.7,292.7 -585.42,1197 -386.49,1395.9 27.61,27.6 61.14,41.6 99.78,41.6 112.95,0 249.39,-118.6 393.8,-244.2 129.65,-112.7 263.73,-229.3 355.9,-229.3 l 51.77,2.7 -23.57,-39.7 c -203.31,-343.1 -447.88,-914.4 -450.34,-920.1 l -15.06,-35.2 -25.79,28.3"
         style="fill:#000000;fill-opacity:1;fill-rule:nonzero;stroke:none"
         id="path134" />
      <path
         d="m 12717.4,20887.9 c 677.7,845.6 727,2158.5 353.8,2507.9 -437.8,409.6 -760.5,-274.5 -1244.6,-623.1 -484.1,-348.6 890.8,-1884.8 890.8,-1884.8"
         style="fill:#98675a;fill-opacity:1;fill-rule:nonzero;stroke:none"
         id="path136" />
      <path
         d="m 12633.5,23361.4 c 140.6,96.9 359.3,67.2 504,-44.3 -9.4,10.8 -56.2,69.2 -66.3,78.7 -437.8,409.6 -760.5,-274.5 -1244.6,-623.1 -85.9,-61.9 -113.1,-161.3 -99.9,-282.9 459.1,281 592.3,653.3 906.8,871.6"
         style="fill:#ad857b;fill-opacity:1;fill-rule:nonzero;stroke:none"
         id="path138" />
      <path
         d="m 13137.5,23317.1 c 159,-546.3 0.6,-1580.4 -630.6,-2179.7 123,-151.7 210.5,-249.5 210.5,-249.5 634.3,791.5 718.1,1992.2 420.1,2429.2"
         style="fill:#84574e;fill-opacity:1;fill-rule:nonzero;stroke:none"
         id="path140" />
      <path
         d="m 12797.9,23497.9 c -185.6,0 -369.2,-187.6 -563.5,-386.3 -122.9,-125.7 -250.1,-255.7 -393.4,-358.9 -53.2,-38.3 -82.9,-92.6 -90.9,-166.2 -51.5,-472.7 823.9,-1497.1 966.3,-1660.1 667,854.5 685,2126.5 337.9,2451.4 -86.3,80.8 -170.2,120.1 -256.4,120.1 z m -79.5,-2648.1 -19.4,21.7 c -43.1,48.2 -1055.9,1186.7 -997.9,1720.3 9.5,87 46.9,154.6 111.1,200.9 139.9,100.7 265.5,229.1 387,353.4 201.8,206.3 392.3,401.1 598.7,401.1 99.3,0 194.2,-43.7 290.1,-133.4 402.7,-377 300.6,-1727.7 -351.4,-2541.3 l -18.2,-22.7"
         style="fill:#63413b;fill-opacity:1;fill-rule:nonzero;stroke:none"
         id="path142" />
      <path
         d="m 12568.9,21443 c 264.6,290.5 574.5,1174.8 387.3,1362 -187.2,187.2 -606.8,-451.9 -839.1,-438.9 206.5,-348.6 451.8,-923.1 451.8,-923.1"
         style="fill:#3f2920;fill-opacity:1;fill-rule:nonzero;stroke:none"
         id="path144" />
      <path
         d="m 13010.2,22663.7 c -6.5,61.7 -23.6,110.8 -54,141.3 -187.2,187.2 -606.8,-451.8 -839.1,-438.9 36,-60.8 73.1,-128.4 110,-198.6 235.3,68.8 605.6,649.2 783.1,496.2"
         style="fill:#281913;fill-opacity:1;fill-rule:nonzero;stroke:none"
         id="path146" />
      <path
         d="m 12158.1,22344.7 c 170.5,-296 362.5,-729 417.8,-855.8 266.2,324 526.4,1135.1 362.9,1298.7 -18.3,18.3 -39.5,27.1 -65,27.1 -94.5,0 -230.2,-118 -361.5,-232.1 -128.4,-111.7 -250.5,-217.8 -354.2,-237.9 z m 403.2,-946.6 -15,35.3 c -2.5,5.7 -247.1,577 -450.4,920.1 l -23.6,39.7 51.8,-2.7 c 92.2,0 226.3,116.6 355.9,229.3 144.4,125.6 280.9,244.2 393.8,244.2 38.7,0 72.2,-14 99.8,-41.6 198.9,-198.9 -119.8,-1103.2 -386.5,-1396 l -25.8,-28.3"
         style="fill:#000000;fill-opacity:1;fill-rule:nonzero;stroke:none"
         id="path148" />
      <path
         d="m 12261.1,22929.8 c -602.4,1170.4 -1570.6,1940.7 -4311.67,1940.7 -2741.1,0 -3709.29,-770.3 -4311.72,-1940.7 -539,-1047.2 -877.84,-3454 -1394.21,-3947.4 2099.91,-510.7 5705.93,-527.9 5705.93,-527.9 0,0 3605.97,17.2 5705.97,527.9 -516.4,493.4 -855.3,2900.2 -1394.3,3947.4"
         style="fill:#98675a;fill-opacity:1;fill-rule:nonzero;stroke:none"
         id="path150" />
      <path
         d="m 11209.7,24161.6 c -585,418.9 -1551.89,708.9 -3260.27,708.9 -2741.1,0 -3709.29,-770.3 -4311.72,-1940.7 -178.22,-346.3 -578.62,-1733.4 -726.72,-2258.6 369.34,1252 978.2,2431.1 1353.4,2851.4 778.48,850.9 1662.65,1022 2834.09,1137.5 1532.36,151 3288.82,-82.8 4111.22,-498.5"
         style="fill:#ad857b;fill-opacity:1;fill-rule:nonzero;stroke:none"
         id="path152" />
      <path
         d="m 12261.1,22929.8 c -246.9,479.7 -555.4,892.2 -1022.2,1212 1483.4,-1838.9 833.4,-3455.8 1900.7,-5294.9 228.2,40.8 311.3,85.8 515.8,135.5 -516.4,493.4 -855.3,2900.2 -1394.3,3947.4"
         style="fill:#84574e;fill-opacity:1;fill-rule:nonzero;stroke:none"
         id="path154" />
      <path
         d="m 2291.17,18996.2 c 2077.1,-493.8 5615.62,-516.8 5658.24,-517 42.63,0.2 3581.19,23.2 5658.29,517 -274.8,305.1 -496.4,1123.2 -730.3,1987.4 -195.2,720.9 -397,1466.3 -638.2,1934.9 -595.4,1156.9 -1552.7,1927.3 -4289.79,1927.3 -2736.94,0 -3694.34,-770.4 -4289.82,-1927.3 -241.16,-468.5 -442.93,-1213.9 -638.1,-1934.8 -234,-864.3 -455.48,-1682.4 -730.32,-1987.5 z m 5658.34,-566.3 h -0.19 c -36.13,0.2 -3632.96,23.1 -5711.65,528.5 l -43.73,10.7 32.52,31.1 c 279.27,266.8 506.67,1106.9 747.5,1996.4 195.8,723.3 398.29,1471.3 641.86,1944.5 603.7,1172.8 1571.68,1954 4333.59,1954 2761.99,0 3729.99,-781.2 4333.59,-1954 243.6,-473.3 446.1,-1221.2 641.9,-1944.6 240.8,-889.4 468.2,-1729.5 747.5,-1996.3 l 32.5,-31.1 -43.7,-10.7 C 11582.5,18453 7985.64,18430.1 7949.51,18429.9"
         style="fill:#63413b;fill-opacity:1;fill-rule:nonzero;stroke:none"
         id="path156" />
      <path
         d="m 11677.4,20565.2 c 66.2,630.1 -495.5,1700.9 -1145.7,1640 -684.22,-64 -761.68,-1698.1 -445.4,-2020.8 615.2,-627.8 1536.2,-142 1591.1,380.8"
         style="fill:#ffffff;fill-opacity:1;fill-rule:nonzero;stroke:none"
         id="path158" />
      <path
         d="m 10585,22183.1 c -17,0 -33.9,-0.8 -51,-2.4 -256,-23.9 -400.8,-277.8 -477.3,-486.6 -198.32,-541.5 -141.55,-1299.9 47.2,-1492.5 185.4,-189.1 414.7,-289.1 663,-289.1 427.7,0 850,312.3 886,655.3 41.2,392.5 -163.5,950.3 -476.2,1297.6 -130.5,144.9 -339.1,317.7 -591.7,317.7 z m 181.9,-2319.9 c -261.9,0 -503.4,105.1 -698.2,303.9 -220.62,225.2 -250.59,1018.8 -58.3,1544 116.7,318.4 296.1,497.8 519,518.7 234.8,21.7 470.1,-94.1 683.9,-331.5 321.1,-356.5 531.1,-930.7 488.6,-1335.7 -39.1,-372.5 -476,-699.4 -935,-699.4"
         style="fill:#000000;fill-opacity:1;fill-rule:nonzero;stroke:none"
         id="path160" />
      <path
         d="m 4059,20679.9 c -67.28,736.7 503.77,1988.8 1164.9,1917.6 695.64,-74.9 774.39,-1985.6 452.82,-2362.9 -625.54,-734.1 -1561.89,-166.1 -1617.72,445.3"
         style="fill:#84574e;fill-opacity:1;fill-rule:nonzero;stroke:none"
         id="path162" />
      <path
         d="m 4058.94,20593 c -66.49,655.9 497.86,1770.6 1151.24,1707.3 687.48,-66.7 765.31,-1767.8 447.51,-2103.8 -618.2,-653.5 -1543.58,-147.8 -1598.75,396.5"
         style="fill:#000000;fill-opacity:1;fill-rule:nonzero;stroke:none"
         id="path164" />
      <path
         d="m 4056.14,20565.2 c -66.18,630.1 495.48,1700.9 1145.74,1640 684.19,-64 761.65,-1698.1 445.38,-2020.8 -615.26,-627.8 -1536.21,-142 -1591.12,380.8"
         style="fill:#ffffff;fill-opacity:1;fill-rule:nonzero;stroke:none"
         id="path166" />
      <path
         d="m 4085.55,20973.5 c -31.01,-145.1 -42.35,-285.1 -29.41,-408.3 54.91,-522.8 975.86,-1008.6 1591.12,-380.8 70.72,72.1 121.58,210.1 150.55,381.2 -256.97,-382.3 -1459.78,-456.6 -1712.26,407.9"
         style="fill:#dbd8d2;fill-opacity:1;fill-rule:nonzero;stroke:none"
         id="path168" />
      <path
         d="m 5148.58,22183.1 c -252.61,0 -461.26,-172.8 -591.77,-317.8 -312.7,-347.2 -517.41,-905.1 -476.18,-1297.5 36.03,-343 458.28,-655.3 886.01,-655.3 248.37,0 477.66,100 663.01,289.1 188.73,192.6 245.5,951 47.15,1492.6 -76.44,208.7 -221.29,462.6 -477.23,486.5 -17.07,1.6 -34.01,2.4 -50.99,2.4 z m -181.94,-2319.9 c -458.95,0 -895.87,326.9 -934.98,699.4 -42.53,404.9 167.46,979.1 488.54,1335.7 213.83,237.4 449.42,353 683.99,331.5 222.79,-20.9 402.23,-200.2 518.84,-518.6 192.39,-525.3 162.46,-1318.9 -58.16,-1544.1 -194.84,-198.8 -436.29,-303.9 -698.23,-303.9"
         style="fill:#000000;fill-opacity:1;fill-rule:nonzero;stroke:none"
         id="path170" />
      <path
         d="m 4417.12,22026.5 c 0,0 307.84,547.5 709.47,613.6 336.55,55.3 457.14,-303.3 457.14,-303.3 -26.49,40.5 -179.78,299.5 -448.57,254.8 -382.35,-63.5 -714.58,-560.6 -718.04,-565.1"
         style="fill:#63413b;fill-opacity:1;fill-rule:nonzero;stroke:none"
         id="path172" />
      <path
         d="m 4436.89,23053.3 c 260.83,449.4 578.17,766.1 928.9,806.8 299.54,34.8 426.14,-222.7 438.9,-419.2 -73.04,121.9 -315.21,229.2 -570.22,159.4 -133.82,-36.7 -439.57,-162 -797.58,-547"
         style="fill:#3f2920;fill-opacity:1;fill-rule:nonzero;stroke:none"
         id="path174" />
      <path
         d="m 4436.89,23053.3 c 230.89,318.9 568.19,634 918.91,674.7 299.55,34.8 427.57,-183.4 448.89,-287.1 -73.04,121.9 -315.21,229.2 -570.22,159.4 -133.82,-36.7 -439.57,-162 -797.58,-547"
         style="fill:#281913;fill-opacity:1;fill-rule:nonzero;stroke:none"
         id="path176" />
      <path
         d="m 5455.47,23841.6 c -27.59,2.6 -56.86,2.2 -87.06,-1.3 -280.79,-32.6 -561.35,-253.8 -817.69,-642.7 315.61,297.5 573.32,393.2 677.69,421.8 75.37,20.7 152.91,27.4 230.48,20.1 124.78,-11.8 241.66,-60.9 314.69,-128.6 -27.95,137.3 -115.9,311.7 -318.11,330.7 z m -1130.57,-939.2 93.1,160.4 c 288.03,496.3 614.85,778.8 945.11,817.1 33.37,3.9 65.9,4.4 96.69,1.5 234.78,-22.1 353.16,-236.6 366.32,-439.3 l 5.68,-87.5 -45.83,76.5 c -51.38,85.8 -187.65,155.1 -331.4,168.6 -72.02,6.8 -144.05,0.6 -214.04,-18.6 -114.76,-31.4 -421.21,-147.1 -787.42,-540.8 l -128.21,-137.9"
         style="fill:#000000;fill-opacity:1;fill-rule:nonzero;stroke:none"
         id="path178" />
      <path
         d="m 4563.44,20754.8 c 0,-400.8 244.17,-725.7 545.39,-725.7 301.2,0 545.39,324.9 545.39,725.7 0,400.7 -244.19,725.6 -545.39,725.6 -301.22,0 -545.39,-324.9 -545.39,-725.6"
         style="fill:#542416;fill-opacity:1;fill-rule:nonzero;stroke:none"
         id="path180" />
      <path
         d="m 4563.44,20754.8 c 0,-400.8 244.17,-725.7 545.39,-725.7 301.2,0 545.39,324.9 545.39,725.7 -113.01,-362.9 -830.55,-556.6 -1090.78,0"
         style="fill:#a74f45;fill-opacity:1;fill-rule:nonzero;stroke:none"
         id="path182" />
      <path
         d="m 5108.82,21459.4 c -289.16,0 -524.41,-316.1 -524.41,-704.7 0,-388.5 235.25,-704.6 524.41,-704.6 289.17,0 524.43,316.1 524.43,704.6 0,388.6 -235.26,704.7 -524.43,704.7 z m 0,-1451.3 c -312.29,0 -566.36,335 -566.36,746.6 0,411.7 254.07,746.7 566.36,746.7 312.29,0 566.39,-335 566.39,-746.7 0,-411.6 -254.1,-746.6 -566.39,-746.6"
         style="fill:#261005;fill-opacity:1;fill-rule:nonzero;stroke:none"
         id="path184" />
      <path
         d="m 4749.23,20671.1 c 0,-269.4 164.16,-487.8 366.65,-487.8 202.49,0 366.64,218.4 366.64,487.8 0,269.5 -164.15,487.9 -366.64,487.9 -202.49,0 -366.65,-218.4 -366.65,-487.9"
         style="fill:#000000;fill-opacity:1;fill-rule:nonzero;stroke:none"
         id="path186" />
      <path
         d="m 5106.28,21117.4 c 0,-100 -67.18,-181.1 -150.05,-181.1 -82.88,0 -150.06,81.1 -150.06,181.1 0,100 67.18,181 150.06,181 82.87,0 150.05,-81 150.05,-181"
         style="fill:#ffffff;fill-opacity:1;fill-rule:nonzero;stroke:none"
         id="path188" />
      <path
         d="m 5308.65,20368.4 c 0,-40.7 -27.41,-73.8 -61.21,-73.8 -33.81,0 -61.21,33.1 -61.21,73.8 0,40.8 27.4,73.9 61.21,73.9 33.8,0 61.21,-33.1 61.21,-73.9"
         style="fill:#ffffff;fill-opacity:1;fill-rule:nonzero;stroke:none"
         id="path190" />
      <path
         d="m 11686.5,20679.9 c 67.2,736.7 -503.8,1988.8 -1165,1917.6 -695.59,-74.9 -774.34,-1985.6 -452.8,-2362.9 625.6,-734.1 1561.9,-166.1 1617.8,445.3"
         style="fill:#84574e;fill-opacity:1;fill-rule:nonzero;stroke:none"
         id="path192" />
      <path
         d="m 11686.5,20593 c 66.5,655.9 -497.8,1770.6 -1151.2,1707.3 -687.51,-66.7 -765.33,-1767.8 -447.5,-2103.8 618.2,-653.5 1543.5,-147.8 1598.7,396.5"
         style="fill:#000000;fill-opacity:1;fill-rule:nonzero;stroke:none"
         id="path194" />
      <path
         d="m 11689.3,20565.2 c 66.2,630.1 -495.5,1700.9 -1145.7,1640 -684.22,-64 -761.68,-1698.1 -445.4,-2020.8 615.2,-627.8 1536.2,-142 1591.1,380.8"
         style="fill:#ffffff;fill-opacity:1;fill-rule:nonzero;stroke:none"
         id="path196" />
      <path
         d="m 11659.9,20973.5 c 31,-145.1 42.3,-285.1 29.4,-408.3 -54.9,-522.8 -975.9,-1008.6 -1591.1,-380.8 -70.7,72.1 -121.59,210.1 -150.56,381.2 256.96,-382.3 1459.76,-456.6 1712.26,407.9"
         style="fill:#dbd8d2;fill-opacity:1;fill-rule:nonzero;stroke:none"
         id="path198" />
      <path
         d="m 10545.9,22180.7 c -256,-23.9 -400.8,-277.8 -477.3,-486.5 -198.3,-541.6 -141.53,-1300 47.2,-1492.6 185.4,-189.1 414.6,-289.1 663,-289.1 427.7,0 850,312.3 886,655.3 41.2,392.4 -163.5,950.3 -476.2,1297.5 -130.5,145 -339.1,317.8 -591.7,317.8 -17,0 -33.9,-0.8 -51,-2.4 z m -465.3,-2013.6 c -220.64,225.2 -250.57,1018.8 -58.2,1544.1 116.6,318.4 296.1,497.7 518.9,518.6 234.5,21.5 470.1,-94.1 684,-331.5 321,-356.6 531,-930.8 488.5,-1335.7 -39.1,-372.5 -476,-699.4 -935,-699.4 -261.9,0 -503.4,105.1 -698.2,303.9"
         style="fill:#000000;fill-opacity:1;fill-rule:nonzero;stroke:none"
         id="path200" />
      <path
         d="m 11328.3,22026.5 c 0,0 -307.8,547.5 -709.4,613.6 -336.6,55.3 -457.2,-303.3 -457.2,-303.3 26.5,40.5 179.8,299.5 448.6,254.8 382.3,-63.5 714.6,-560.6 718,-565.1"
         style="fill:#63413b;fill-opacity:1;fill-rule:nonzero;stroke:none"
         id="path202" />
      <path
         d="m 11308.6,23053.3 c -260.9,449.4 -578.2,766.1 -928.9,806.8 -299.6,34.8 -426.18,-222.7 -438.93,-419.2 73.03,121.9 315.23,229.2 570.23,159.4 133.8,-36.7 439.6,-162 797.6,-547"
         style="fill:#3f2920;fill-opacity:1;fill-rule:nonzero;stroke:none"
         id="path204" />
      <path
         d="m 11308.6,23053.3 c -230.9,318.9 -568.2,634 -919,674.7 -299.5,34.8 -427.52,-183.4 -448.83,-287.1 73.03,121.9 315.23,229.2 570.23,159.4 133.8,-36.7 439.6,-162 797.6,-547"
         style="fill:#281913;fill-opacity:1;fill-rule:nonzero;stroke:none"
         id="path206" />
      <path
         d="m 9971.87,23510.9 c 73.03,67.7 189.93,116.8 314.73,128.6 77.5,7.3 155.1,0.6 230.4,-20.1 104.4,-28.6 362.1,-124.3 677.7,-421.8 -256.3,388.9 -536.9,610.1 -817.7,642.7 -30.2,3.5 -59.4,3.9 -87,1.3 -202.2,-19 -290.18,-193.4 -318.13,-330.7 z m 1320.43,-470.6 c -366.2,393.7 -672.6,509.4 -787.4,540.8 -70,19.2 -142,25.4 -214,18.6 -143.8,-13.5 -280,-82.8 -331.42,-168.6 l -45.82,-76.5 5.67,87.5 c 13.16,202.7 131.57,417.2 366.37,439.3 30.7,2.9 63.3,2.4 96.6,-1.5 330.3,-38.3 657.1,-320.8 945.1,-817.1 l 93.2,-160.4 -128.3,137.9"
         style="fill:#000000;fill-opacity:1;fill-rule:nonzero;stroke:none"
         id="path208" />
      <path
         d="m 10077.8,20754.8 c 0,-400.8 244.2,-725.7 545.4,-725.7 301.2,0 545.4,324.9 545.4,725.7 0,400.7 -244.2,725.6 -545.4,725.6 -301.2,0 -545.4,-324.9 -545.4,-725.6"
         style="fill:#542416;fill-opacity:1;fill-rule:nonzero;stroke:none"
         id="path210" />
      <path
         d="m 10077.8,20754.8 c 0,-400.8 244.2,-725.7 545.4,-725.7 301.2,0 545.4,324.9 545.4,725.7 -113,-362.9 -830.6,-556.6 -1090.8,0"
         style="fill:#a74f45;fill-opacity:1;fill-rule:nonzero;stroke:none"
         id="path212" />
      <path
         d="m 10623.2,21459.4 c -289.2,0 -524.4,-316.1 -524.4,-704.6 0,-388.6 235.2,-704.7 524.4,-704.7 289.2,0 524.4,316.1 524.4,704.7 0,388.5 -235.2,704.6 -524.4,704.6 z m 0,-1451.3 c -312.3,0 -566.4,335 -566.4,746.7 0,411.6 254.1,746.6 566.4,746.6 312.3,0 566.4,-335 566.4,-746.6 0,-411.7 -254.1,-746.7 -566.4,-746.7"
         style="fill:#261005;fill-opacity:1;fill-rule:nonzero;stroke:none"
         id="path214" />
      <path
         d="m 10256.5,20686 c 0,-269.4 164.2,-487.8 366.7,-487.8 202.5,0 366.6,218.4 366.6,487.8 0,269.4 -164.1,487.8 -366.6,487.8 -202.5,0 -366.7,-218.4 -366.7,-487.8"
         style="fill:#000000;fill-opacity:1;fill-rule:nonzero;stroke:none"
         id="path216" />
      <path
         d="m 10613.6,21132.2 c 0,-100 -67.2,-181 -150.1,-181 -82.8,0 -150,81 -150,181 0,100 67.2,181 150,181 82.9,0 150.1,-81 150.1,-181"
         style="fill:#ffffff;fill-opacity:1;fill-rule:nonzero;stroke:none"
         id="path218" />
      <path
         d="m 10816,20383.3 c 0,-40.8 -27.5,-73.9 -61.2,-73.9 -33.9,0 -61.3,33.1 -61.3,73.9 0,40.8 27.4,73.8 61.3,73.8 33.7,0 61.2,-33 61.2,-73.8"
         style="fill:#ffffff;fill-opacity:1;fill-rule:nonzero;stroke:none"
         id="path220" />
      <path
         d="m 13667.1,18902.7 c -116.2,985.2 -837.9,1219.5 -1555.3,1133.6 -629.3,-75.3 -1090.5,-387.2 -1748.7,-471.1 -765.27,713.7 -1466.05,851.6 -2415.76,851.8 -949.71,-0.2 -1650.49,-138.1 -2415.71,-851.8 -658.22,83.9 -1119.48,395.8 -1748.8,471.1 -717.36,85.9 -1439.05,-148.4 -1555.2,-1133.6 -224.97,-1908 2902.82,-2847.3 5051.16,-2468.8 170.63,-132.7 415.21,-203.4 668.55,-215.4 253.33,12 497.91,82.7 668.54,215.4 2148.32,-378.5 5276.12,560.8 5051.22,2468.8"
         style="fill:#d8c9c3;fill-opacity:1;fill-rule:nonzero;stroke:none"
         id="path222" />
      <path
         d="m 5383.57,19307.5 c 1115.5,1152.7 3829.7,1322.8 5079.23,44.7 -558.03,900.7 -1650.28,1067.6 -2528.2,1067.6 -950.99,0 -2112.28,-233.4 -2551.03,-1112.3"
         style="fill:#f4f0ef;fill-opacity:1;fill-rule:nonzero;stroke:none"
         id="path224" />
      <path
         d="m 13667.1,18902.7 c -89.5,758.9 -538.4,1071.9 -1067.7,1136.6 561.9,-432.7 624.2,-1062.3 373.2,-1600.2 -577.2,-1243.2 -2650.7,-1925.5 -3943.76,-1827.6 -203.75,14.7 -173.21,266.4 -324,162.7 -623.42,-429.2 -1030.41,-398.8 -1540.34,38.8 -219.04,88.8 -24.7,-127.6 -246.68,-169.1 -1209.86,-158.3 -3624.02,115.5 -4538.28,1377.7 650.87,-1306.2 3113.33,-1902.4 4899.26,-1587.7 170.62,-132.7 415.2,-203.4 668.54,-215.4 253.33,12 497.91,82.7 668.54,215.4 2148.32,-378.5 5276.12,560.8 5051.22,2468.8"
         style="fill:#bfaaa3;fill-opacity:1;fill-rule:nonzero;stroke:none"
         id="path226" />
      <path
         d="m 7285.3,16460.1 8.61,-6.7 c 158.08,-122.9 390.05,-197.5 653.44,-210.2 263.4,12.7 495.37,87.3 653.41,210.2 l 8.61,6.7 10.78,-1.9 c 309.62,-54.6 642.43,-82.2 989.19,-82.3 0.09,0 0.28,0 0.38,0 1490.98,0 2941.48,504.8 3609.48,1256.1 335.6,377.6 478,804.1 423.4,1267.8 -109.9,932.5 -748.8,1128.2 -1265.3,1128.2 -84.5,0 -172.8,-5.4 -262.5,-16.2 -311.1,-37.2 -575.8,-131 -855.9,-230.2 -275.4,-97.5 -560.1,-198.4 -892.7,-240.8 l -11.5,-1.4 -8.4,7.8 c -757.75,706.7 -1453.38,845 -2398.95,845.2 -945.55,-0.2 -1641.24,-138.5 -2398.94,-845.2 l -8.41,-7.8 -11.5,1.4 c -332.67,42.4 -617.37,143.3 -892.69,240.8 -280.18,99.2 -544.87,193 -855.94,230.2 -89.67,10.8 -178,16.2 -262.52,16.2 -516.53,0 -1155.36,-195.7 -1265.28,-1128.2 -54.65,-463.6 87.8,-890.1 423.39,-1267.6 668.03,-751.4 2118.72,-1256.3 3609.87,-1256.3 346.66,0 679.47,27.7 989.19,82.3 z m 662.05,-266.2 h -1.14 c -269.17,12.8 -507.88,88.6 -673.81,213.9 -309.52,-53.8 -641.51,-81.1 -987.07,-81.1 -1504.38,0 -2969.89,511.5 -3646.72,1272.8 -345.31,388.4 -491.8,827.9 -435.42,1306.1 89.05,755.6 555.74,1171.7 1314.16,1171.7 86.45,0 176.75,-5.6 268.39,-16.5 316.51,-37.9 596.11,-137 866.52,-232.8 269.69,-95.5 548.48,-194.3 871.04,-236.9 766.31,710.9 1469.69,850.4 2424.05,850.6 954.32,-0.2 1657.7,-139.7 2424.05,-850.6 322.5,42.6 601.3,141.4 871,236.9 270.4,95.8 550,194.9 866.5,232.8 91.7,10.9 182,16.5 268.4,16.5 758.4,0 1225.1,-416.1 1314.2,-1171.7 56.4,-478.3 -90.1,-917.8 -435.5,-1306.3 -676.7,-761.2 -2142.1,-1272.6 -3646.33,-1272.6 -0.14,0 -0.14,0 -0.33,0 -345.66,0 -677.65,27.3 -987.08,81.1 -165.87,-125.3 -404.58,-201.1 -673.75,-213.9 h -1.16"
         style="fill:#68504a;fill-opacity:1;fill-rule:nonzero;stroke:none"
         id="path228" />
      <path
         d="m 7285.97,16397.8 c -120.27,88.8 -121.47,246.1 -121.47,246.1 0.43,-1.3 43.39,-127.2 150.72,-206.4 l -29.25,-39.7"
         style="fill:#68504a;fill-opacity:1;fill-rule:nonzero;stroke:none"
         id="path230" />
      <path
         d="m 8575.64,16375.4 -23.47,43.3 c 122.43,66.2 190.7,225.4 191.37,227 0,0 -30.45,-195.9 -167.9,-270.3"
         style="fill:#68504a;fill-opacity:1;fill-rule:nonzero;stroke:none"
         id="path232" />
      <path
         d="m 5398.99,19305.1 c 0,0 52.53,222.4 141.05,301.5 l 32.81,-36.8 c -81.25,-72.5 -172.95,-262.8 -173.86,-264.7"
         style="fill:#68504a;fill-opacity:1;fill-rule:nonzero;stroke:none"
         id="path234" />
      <path
         d="m 10499.8,19305 c -0.9,2 -92.7,192.3 -173.9,264.8 l 32.8,36.8 c 88.5,-79.1 141.1,-301.6 141.1,-301.6"
         style="fill:#68504a;fill-opacity:1;fill-rule:nonzero;stroke:none"
         id="path236" />
      <path
         d="m 9032.86,17817.9 c -299.34,-16.4 -510.4,332.1 -1065.67,356.3 -0.44,4.8 -0.74,7.8 -0.74,7.8 -584.31,-9.3 -797.11,-375.2 -1103.29,-358.4 -377.21,20.7 -1099.29,265.8 -1708.33,874.5 260.84,-401.5 1006.36,-1006.4 1679.74,-1084.1 541.88,-27.5 579.41,275.2 1109.11,299.4 0.99,-1.8 1.86,-3.8 2.94,-5.4 535.3,-22.2 570.96,-327.3 1114.84,-299.6 673.37,77.6 1418.94,682.6 1679.74,1084 -609,-608.7 -1331.13,-853.7 -1708.34,-874.5"
         style="fill:#bfaaa3;fill-opacity:1;fill-rule:nonzero;stroke:none"
         id="path238" />
      <path
         d="m 6913.86,17586.4 c -33.53,0 -69.04,1.7 -106.95,5.5 -539.53,53.3 -1506.64,727.1 -1680.84,1098.8 l 44.65,20.9 c 169.63,-362 1113.79,-1018.6 1641,-1070.7 263.78,-26.2 408.2,50.9 561.71,132.3 144.23,76.5 293.22,155.5 547.23,163.9 v 0.8 l 24.92,1 c 271.61,-3.2 426.23,-85.3 575.8,-164.6 153.41,-81.4 298.12,-158.3 561.56,-132.4 527.26,52.1 1471.46,708.7 1640.96,1070.7 l 44.7,-20.9 c -174.2,-371.6 -1141.27,-1045.5 -1680.85,-1098.8 -277.48,-27.6 -429.26,52.8 -589.46,137.9 -141.49,75 -287.74,152.6 -538.04,158.6 l -14.58,-1 c -257.04,-3.9 -405.55,-82.6 -549.15,-158.7 -138.45,-73.4 -270.22,-143.3 -482.66,-143.3"
         style="fill:#68504a;fill-opacity:1;fill-rule:nonzero;stroke:none"
         id="path240" />
      <path
         d="m 4966.22,18491.2 c 0,0 4.43,115.9 91.12,182.9 133.01,102.8 256.79,32 256.79,32 -221.01,22.1 -346.71,-212.5 -347.91,-214.9"
         style="fill:#68504a;fill-opacity:1;fill-rule:nonzero;stroke:none"
         id="path242" />
      <path
         d="m 10897.1,18505.7 c 0,0 -4.4,115.9 -91.1,182.9 -133,102.8 -256.8,32.1 -256.8,32.1 221,22.1 346.7,-212.6 347.9,-215"
         style="fill:#68504a;fill-opacity:1;fill-rule:nonzero;stroke:none"
         id="path244" />
      <path
         d="m 9188.71,19591.1 c -157.07,658.4 -2321.53,658.4 -2478.59,0 -137.91,-578 737.97,-998.3 1239.29,-998.3 501.31,0 1377.19,420.3 1239.3,998.3"
         style="fill:#342d2b;fill-opacity:1;fill-rule:nonzero;stroke:none"
         id="path246" />
      <path
         d="m 8163.78,19836.5 c 3.31,-69.7 -156.22,-133.9 -356.31,-143.4 -200.1,-9.5 -364.98,39.3 -368.29,109 -3.3,69.7 156.23,133.9 356.32,143.3 200.1,9.5 364.98,-39.3 368.28,-108.9"
         style="fill:#6d625f;fill-opacity:1;fill-rule:nonzero;stroke:none"
         id="path248" />
      <path
         d="m 9188.71,19591.1 c -14.06,58.9 -44.43,112.5 -87.78,160.9 -10.84,-492.4 -695.02,-796.6 -1255.11,-796.6 -447.15,0 -937.27,176.4 -1148.91,477.7 36.02,-495 798.11,-840.3 1252.5,-840.3 501.31,0 1377.19,420.3 1239.3,998.3"
         style="fill:#282220;fill-opacity:1;fill-rule:nonzero;stroke:none"
         id="path250" />
      <path
         d="m 7949.4,20060.2 c -530.77,0 -1137.51,-148.6 -1215.34,-474.8 -38.16,-159.9 2.06,-316.4 119.45,-465.1 245.25,-310.6 759.81,-502.9 1095.89,-502.9 336.08,0 850.64,192.3 1095.9,502.9 117.38,148.7 157.6,305.2 119.45,465.1 -77.84,326.2 -684.57,474.8 -1215.35,474.8 z m 0,-1492 c -347.58,0 -880.18,199.4 -1134.57,521.6 -127.2,161.1 -170.5,331.7 -128.69,507 84.48,354.2 695.35,512.7 1263.26,512.7 567.91,0 1178.79,-158.5 1263.26,-512.7 41.81,-175.3 -1.49,-345.9 -128.69,-507 -254.39,-322.2 -786.99,-521.6 -1134.57,-521.6"
         style="fill:#000000;fill-opacity:1;fill-rule:nonzero;stroke:none"
         id="path252" />
      <path
         d="m 7368.5,19277 c -100.61,78.2 -413.96,120.6 -627.56,-17.4 91.72,-211.8 312.55,-386.2 559.81,-503.4 102.29,161.2 158.25,450.4 67.75,520.8"
         style="fill:#302220;fill-opacity:1;fill-rule:nonzero;stroke:none"
         id="path254" />
      <path
         d="m 7368.5,19277 c -86.13,67 -328.07,107.3 -529.96,31 105.86,-179.2 303.1,-327.6 521.32,-431.4 60.43,156.8 79.39,345.3 8.64,400.4"
         style="fill:#160c09;fill-opacity:1;fill-rule:nonzero;stroke:none"
         id="path256" />
      <path
         d="m 6772.35,19250 c 83.85,-175.7 266.76,-338.5 518.93,-461.9 95.4,164.8 130.38,416.3 62.11,469.4 -43.19,33.6 -145.43,67.5 -276.47,67.5 -113.78,0 -220.96,-26.5 -304.57,-75 z m 537.56,-525.4 -19.68,9.3 c -282.73,134 -485.84,317.3 -571.9,515.9 l -8.28,19.2 17.51,11.3 c 120.22,77.7 256.32,94 349.36,94 125.46,0 245.88,-30.6 306.68,-77.9 110.41,-85.9 38.49,-394.9 -62.05,-553.4 l -11.64,-18.4"
         style="fill:#000000;fill-opacity:1;fill-rule:nonzero;stroke:none"
         id="path258" />
      <path
         d="m 9157.87,19259.6 c -213.58,138 -526.93,95.6 -627.53,17.4 -90.52,-70.4 -34.57,-359.6 67.73,-520.8 247.26,117.2 468.09,291.6 559.8,503.4"
         style="fill:#302220;fill-opacity:1;fill-rule:nonzero;stroke:none"
         id="path260" />
      <path
         d="m 9046.53,19313 c -199.01,69.4 -432.02,29.4 -516.19,-36 -73.1,-56.9 -50.62,-256.3 14.59,-415.9 217.58,110.6 408.96,266 501.6,451.9"
         style="fill:#160c09;fill-opacity:1;fill-rule:nonzero;stroke:none"
         id="path262" />
      <path
         d="m 8821.93,19325 c -131.05,0 -233.27,-33.9 -276.47,-67.5 -68.37,-53.1 -33.39,-304.6 62.1,-469.4 252.23,123.4 435.14,286.3 518.9,461.9 -83.62,48.5 -190.8,75 -304.53,75 z m -232.98,-600.4 -11.65,18.4 c -100.59,158.5 -172.56,467.5 -62.06,553.4 60.81,47.3 181.18,77.9 306.69,77.9 93,0 229.09,-16.3 349.32,-94 l 17.5,-11.3 -8.27,-19.2 c -86.02,-198.6 -289.08,-381.8 -571.86,-515.9 l -19.67,-9.3"
         style="fill:#000000;fill-opacity:1;fill-rule:nonzero;stroke:none"
         id="path264" />
      <path
         d="m 24880.1,20671.2 c 0,-526.2 -426.5,-952.7 -952.7,-952.7 -526.1,0 -952.6,426.5 -952.6,952.7 0,526.1 426.5,952.6 952.6,952.6 526.2,0 952.7,-426.5 952.7,-952.6"
         style="fill:#ccebfd;fill-opacity:1;fill-rule:nonzero;stroke:none"
         id="path266" />
      <path
         d="m 23927.4,21602.7 c -513.6,0 -931.5,-417.9 -931.5,-931.5 0,-513.7 417.9,-931.6 931.5,-931.6 513.7,0 931.5,417.9 931.5,931.6 0,513.6 -417.8,931.5 -931.5,931.5 z m 0,-1905.4 c -536.9,0 -973.8,436.9 -973.8,973.9 0,536.9 436.9,973.8 973.8,973.8 537,0 973.9,-436.9 973.9,-973.8 0,-537 -436.9,-973.9 -973.9,-973.9"
         style="fill:#6099bb;fill-opacity:1;fill-rule:nonzero;stroke:none"
         id="path268" />
      <path
         d="m 24032.9,21332.4 c 46.9,-117.6 -54.3,-268.4 -226,-336.9 -171.7,-68.4 -348.9,-28.5 -395.8,89 -46.8,117.6 54.4,268.4 226.1,336.9 171.7,68.4 348.9,28.5 395.7,-89"
         style="fill:#ffffff;fill-opacity:1;fill-rule:nonzero;stroke:none"
         id="path270" />
      <path
         d="m 24132.9,22740.3 c 0,-226.9 -183.9,-410.9 -410.9,-410.9 -226.9,0 -410.8,184 -410.8,410.9 0,226.9 183.9,410.9 410.8,410.9 227,0 410.9,-184 410.9,-410.9"
         style="fill:#ccebfd;fill-opacity:1;fill-rule:nonzero;stroke:none"
         id="path272" />
      <path
         d="m 23722,23130 c -214.9,0 -389.7,-174.8 -389.7,-389.7 0,-214.9 174.8,-389.7 389.7,-389.7 214.9,0 389.8,174.8 389.8,389.7 0,214.9 -174.9,389.7 -389.8,389.7 z m 0,-821.7 c -238.2,0 -432,193.8 -432,432 0,238.2 193.8,432 432,432 238.2,0 432.1,-193.8 432.1,-432 0,-238.2 -193.9,-432 -432.1,-432"
         style="fill:#6099bb;fill-opacity:1;fill-rule:nonzero;stroke:none"
         id="path274" />
      <path
         d="m 23767.5,23025.5 c 20.3,-50.7 -23.4,-115.8 -97.4,-145.3 -74.1,-29.5 -150.5,-12.3 -170.7,38.4 -20.2,50.7 23.4,115.7 97.5,145.3 74,29.5 150.4,12.3 170.6,-38.4"
         style="fill:#ffffff;fill-opacity:1;fill-rule:nonzero;stroke:none"
         id="path276" />
      <path
         d="m 22159.2,19754.8 c 0,-278.3 -225.5,-503.8 -503.8,-503.8 -278.2,0 -503.8,225.5 -503.8,503.8 0,278.2 225.6,503.8 503.8,503.8 278.3,0 503.8,-225.6 503.8,-503.8"
         style="fill:#ccebfd;fill-opacity:1;fill-rule:nonzero;stroke:none"
         id="path278" />
      <path
         d="m 21655.4,20237.4 c -266.1,0 -482.7,-216.5 -482.7,-482.6 0,-266.2 216.6,-482.7 482.7,-482.7 266.2,0 482.7,216.5 482.7,482.7 0,266.1 -216.5,482.6 -482.7,482.6 z m 0,-1007.6 c -289.4,0 -525,235.5 -525,525 0,289.5 235.6,525 525,525 289.5,0 525,-235.5 525,-525 0,-289.5 -235.5,-525 -525,-525"
         style="fill:#6099bb;fill-opacity:1;fill-rule:nonzero;stroke:none"
         id="path280" />
      <path
         d="m 21711.2,20104.5 c 24.8,-62.2 -28.7,-142 -119.5,-178.2 -90.8,-36.1 -184.5,-15.1 -209.3,47.1 -24.8,62.2 28.7,141.9 119.5,178.1 90.8,36.2 184.5,15.1 209.3,-47"
         style="fill:#ffffff;fill-opacity:1;fill-rule:nonzero;stroke:none"
         id="path282" />
      <path
         d="m 16744.9,2998.3 c 0,-341.1 -276.6,-617.7 -617.7,-617.7 -341.2,0 -617.8,276.6 -617.8,617.7 0,341.2 276.6,617.7 617.8,617.7 341.1,0 617.7,-276.5 617.7,-617.7"
         style="fill:#ccebfd;fill-opacity:1;fill-rule:nonzero;stroke:none"
         id="path284" />
      <path
         d="m 16127.2,3594.9 c -329,0 -596.6,-267.6 -596.6,-596.6 0,-328.9 267.6,-596.6 596.6,-596.6 328.9,0 596.6,267.7 596.6,596.6 0,329 -267.7,596.6 -596.6,596.6 z m 0,-1235.5 c -352.3,0 -638.9,286.6 -638.9,638.9 0,352.3 286.6,638.9 638.9,638.9 352.3,0 638.9,-286.6 638.9,-638.9 0,-352.3 -286.6,-638.9 -638.9,-638.9"
         style="fill:#6099bb;fill-opacity:1;fill-rule:nonzero;stroke:none"
         id="path286" />
      <path
         d="m 16195.6,3427.1 c 30.4,-76.3 -35.2,-174.1 -146.6,-218.4 -111.3,-44.4 -226.2,-18.6 -256.6,57.7 -30.4,76.2 35.2,174 146.6,218.4 111.3,44.3 226.2,18.5 256.6,-57.7"
         style="fill:#ffffff;fill-opacity:1;fill-rule:nonzero;stroke:none"
         id="path288" />
      <path
         d="m 14872.1,4342.8 c 0,-251.6 -204,-455.6 -455.6,-455.6 -251.6,0 -455.6,204 -455.6,455.6 0,251.6 204,455.6 455.6,455.6 251.6,0 455.6,-204 455.6,-455.6"
         style="fill:#ccebfd;fill-opacity:1;fill-rule:nonzero;stroke:none"
         id="path290" />
      <path
         d="m 14416.5,4777.3 c -239.6,0 -434.5,-194.9 -434.5,-434.5 0,-239.6 194.9,-434.4 434.5,-434.4 239.5,0 434.4,194.8 434.4,434.4 0,239.6 -194.9,434.5 -434.4,434.5 z m 0,-911.3 c -262.9,0 -476.8,213.9 -476.8,476.8 0,262.9 213.9,476.8 476.8,476.8 262.9,0 476.7,-213.9 476.7,-476.8 0,-262.9 -213.8,-476.8 -476.7,-476.8"
         style="fill:#6099bb;fill-opacity:1;fill-rule:nonzero;stroke:none"
         id="path292" />
      <path
         d="m 14466.9,4659 c 22.5,-56.2 -25.9,-128.3 -108.1,-161 -82.1,-32.8 -166.8,-13.7 -189.2,42.5 -22.4,56.3 26,128.4 108.1,161.1 82.1,32.7 166.8,13.7 189.2,-42.6"
         style="fill:#ffffff;fill-opacity:1;fill-rule:nonzero;stroke:none"
         id="path294" />
      <path
         d="m 2869.29,12077 c 0,-347.2 -281.43,-628.6 -628.6,-628.6 -347.16,0 -628.6,281.4 -628.6,628.6 0,347.1 281.44,628.6 628.6,628.6 347.17,0 628.6,-281.5 628.6,-628.6"
         style="fill:#ccebfd;fill-opacity:1;fill-rule:nonzero;stroke:none"
         id="path296" />
      <path
         d="m 2240.69,12684.4 c -334.94,0 -607.44,-272.5 -607.44,-607.4 0,-335 272.5,-607.5 607.44,-607.5 334.94,0 607.44,272.5 607.44,607.5 0,334.9 -272.5,607.4 -607.44,607.4 z m 0,-1257.2 c -358.27,0 -649.75,291.5 -649.75,649.8 0,358.2 291.48,649.7 649.75,649.7 358.27,0 649.75,-291.5 649.75,-649.7 0,-358.3 -291.48,-649.8 -649.75,-649.8"
         style="fill:#6099bb;fill-opacity:1;fill-rule:nonzero;stroke:none"
         id="path298" />
      <path
         d="m 2310.31,12513.2 c 30.92,-77.5 -35.86,-177 -149.16,-222.2 -113.3,-45.1 -230.21,-18.8 -261.13,58.7 -30.92,77.6 35.86,177.1 149.16,222.3 113.3,45.1 230.21,18.8 261.13,-58.8"
         style="fill:#ffffff;fill-opacity:1;fill-rule:nonzero;stroke:none"
         id="path300" />
      <path
         d="m 3849.64,11418.1 c 0,-195.4 -158.46,-353.9 -353.93,-353.9 -195.47,0 -353.92,158.5 -353.92,353.9 0,195.5 158.45,354 353.92,354 195.47,0 353.93,-158.5 353.93,-354"
         style="fill:#ccebfd;fill-opacity:1;fill-rule:nonzero;stroke:none"
         id="path302" />
      <path
         d="m 3495.72,11750.9 c -183.5,0 -332.79,-149.3 -332.79,-332.8 0,-183.5 149.29,-332.7 332.79,-332.7 183.48,0 332.77,149.2 332.77,332.7 0,183.5 -149.29,332.8 -332.77,332.8 z m 0,-707.9 c -206.83,0 -375.09,168.3 -375.09,375.1 0,206.8 168.26,375.1 375.09,375.1 206.82,0 375.07,-168.3 375.07,-375.1 0,-206.8 -168.25,-375.1 -375.07,-375.1"
         style="fill:#6099bb;fill-opacity:1;fill-rule:nonzero;stroke:none"
         id="path304" />
      <path
         d="m 3534.91,11663.8 c 17.41,-43.7 -20.19,-99.7 -83.98,-125.2 -63.8,-25.4 -129.62,-10.6 -147.03,33.1 -17.41,43.7 20.19,99.7 83.99,125.1 63.78,25.5 129.61,10.7 147.02,-33"
         style="fill:#ffffff;fill-opacity:1;fill-rule:nonzero;stroke:none"
         id="path306" />
      <path
         d="m 3352.91,9751.8 c 0,-258.1 -209.24,-467.4 -467.35,-467.4 -258.11,0 -467.36,209.3 -467.36,467.4 0,258.1 209.25,467.3 467.36,467.3 258.11,0 467.35,-209.2 467.35,-467.3"
         style="fill:#ccebfd;fill-opacity:1;fill-rule:nonzero;stroke:none"
         id="path308" />
      <path
         d="m 2885.55,10198 c -246.03,0 -446.19,-200.2 -446.19,-446.2 0,-246 200.16,-446.2 446.19,-446.2 246.04,0 446.21,200.2 446.21,446.2 0,246 -200.17,446.2 -446.21,446.2 z m 0,-934.7 c -269.35,0 -488.5,219.1 -488.5,488.5 0,269.4 219.15,488.5 488.5,488.5 269.37,0 488.52,-219.1 488.52,-488.5 0,-269.4 -219.15,-488.5 -488.52,-488.5"
         style="fill:#6099bb;fill-opacity:1;fill-rule:nonzero;stroke:none"
         id="path310" />
      <path
         d="m 2937.32,10076.2 c 22.99,-57.7 -26.66,-131.7 -110.9,-165.3 -84.24,-33.5 -171.16,-14 -194.14,43.7 -23,57.7 26.66,131.7 110.89,165.2 84.24,33.6 171.16,14.1 194.15,-43.6"
         style="fill:#ffffff;fill-opacity:1;fill-rule:nonzero;stroke:none"
         id="path312" />
    </g>
  </g>
</svg>
