<?xml version="1.0" encoding="UTF-8" standalone="no"?>
<!-- Created with Inkscape (http://www.inkscape.org/) -->

<svg
   version="1.1"
   id="svg2"
   width="5190.8398"
   height="3134.3733"
   viewBox="0 0 5190.8398 3134.3733"
   sodipodi:docname="vecteezy_cute-little-otter-cartoon-posing_7179124.eps"
   xmlns:inkscape="http://www.inkscape.org/namespaces/inkscape"
   xmlns:sodipodi="http://sodipodi.sourceforge.net/DTD/sodipodi-0.dtd"
   xmlns="http://www.w3.org/2000/svg"
   xmlns:svg="http://www.w3.org/2000/svg">
  <defs
     id="defs6" />
  <sodipodi:namedview
     id="namedview4"
     pagecolor="#ffffff"
     bordercolor="#000000"
     borderopacity="0.25"
     inkscape:showpageshadow="2"
     inkscape:pageopacity="0.0"
     inkscape:pagecheckerboard="0"
     inkscape:deskcolor="#d1d1d1" />
  <g
     id="g8"
     inkscape:groupmode="layer"
     inkscape:label="ink_ext_XXXXXX"
     transform="matrix(1.3333333,0,0,-1.3333333,0,3134.3733)">
    <g
       id="g10"
       transform="scale(0.1)">
      <path
         d="m 10302.1,17866.6 c 0,-572.9 331.7,-2163.7 1017.8,-3010.9 627.4,-774.9 1861.5,-1398.5 3930.9,-608.6 2254.2,860.6 5543.7,2262.1 8359.8,1062.2 3129,-1333.2 3766.1,-4037.5 5481,-5380.2 786.4,-615.6 2214.1,-1229.9 4317.3,-1967.3 1955.4,-685.5 3840.5,-1793.7 4621.6,-2731.1 1017.7,-1221.2 1033.6,-2553.6 536,-3503.5 C 38223.9,1073.1 37181.2,474.699 36221.1,244.301 35796.7,142.402 34202.1,-112 32790.9,180.203 31298.1,489.301 30031.6,1205.5 30284.1,1386.4 c 126.3,90.5 492.2,-103.4 938.6,-248.8 446.5,-145.401 973.7,-242.299 1532.7,-266.096 1765.2,-75 3562.2,332.596 3827.6,1306.496 287.7,1056.2 -507.1,1939.4 -1643.5,2397.4 -1430.3,576.4 -3249.8,567.7 -4734.5,814.2 -1358.9,225.6 -2690.8,774 -3776.4,1808.7 -1465.9,877.1 -2716.8,1608.2 -2918.2,2036.2 -361.9,769 -1876.6,-403 -2323,-594.5 -1092.2,-468.5 -4454.6,-1119.7 -7515.4,-287.6 -2412.5,655.9 -3362.6,1290.5 -4127.57,3234.2 -610.72,1551.9 -463.65,2193.9 -1374.89,3477.4 1205.26,752 2132.56,2802.6 2132.56,2802.6"
         style="fill:#986759;fill-opacity:1;fill-rule:nonzero;stroke:none"
         id="path12" />
      <path
         d="m 34320.6,492.402 c 919,118.899 2291.8,354.297 2729.1,1356.998 487.1,1117.1 143.2,2021.2 -753.9,2752.5 -1078.9,879.4 -3260.7,1216.8 -5330.1,1590.4 C 28896.4,6566 27610.9,7269.9 27033,8648.4 L 26437.6,7189.8 C 27521.5,6160.6 28849.9,5614.6 30205,5389.6 31689.7,5143.1 33509.2,5151.8 34939.5,4575.4 36075.9,4117.4 36870.7,3234.2 36583,2178 36317.6,1204.1 34520.6,796.504 32755.4,871.504 c -559,23.797 -1086.2,120.695 -1532.7,266.096 -446.4,145.4 -812.3,339.3 -938.6,248.8 -5.1,-3.6 -9.3,-7.6 -13.2,-11.7 247.4,-129.4 572.1,-280.9 981.3,-437.501 C 32375.5,507.5 33679.8,409.5 34320.6,492.402"
         style="fill:#83574e;fill-opacity:1;fill-rule:nonzero;stroke:none"
         id="path14" />
      <path
         d="M 21091.8,9745.9 C 20288.1,9464.4 19682.8,8688.4 18939,8095 c 997.5,138.2 1798.2,353.7 2238.9,541 -93.6,437.3 -130.5,819.4 -86.1,1109.9"
         style="fill:#83574e;fill-opacity:1;fill-rule:nonzero;stroke:none"
         id="path16" />
      <path
         d="m 15510.4,8019.2 c -269.7,311.7 -434.1,688.5 -521,1031.5 0,0 -2603.5,224.6 -3341.1,126.6 -5.8,-30.8 -12.1,-61.1 -18.6,-91.1 539.5,-279.4 1202.1,-505.3 2042.3,-733.8 607.6,-165.2 1227.1,-271.9 1838.4,-333.2"
         style="fill:#83574e;fill-opacity:1;fill-rule:nonzero;stroke:none"
         id="path18" />
      <path
         d="m 11029.9,15290.3 c -489.7,875.4 -727.8,2091 -727.8,2576.3 0,0 -927.3,-2050.6 -2132.56,-2802.6 103.7,-146.1 193.57,-283.8 272.53,-415.5 262.93,98.2 503.18,209.3 715.31,320.6 751.26,394.2 1147.02,567.7 1872.52,321.2"
         style="fill:#83574e;fill-opacity:1;fill-rule:nonzero;stroke:none"
         id="path20" />
      <path
         d="m 30372.6,1364.7 c -26.5,0 -47.6,-4.7 -62.1,-15.1 -13.7,-9.8 -14.9,-18.1 -12.4,-30 19.6,-92.3 263.5,-290.7 764.4,-525.596 C 31579,551.801 32196.1,349.5 32800,224.5 c 1378.2,-285.3984 2963.8,-43.496 3410.5,63.703 881.7,211.699 1960.3,781.097 2315.9,1459.997 567.3,1083 368.9,2374 -530.6,3453.5 -765.3,918.4 -2657.7,2035.8 -4601.9,2717.5 -2295.5,804.7 -3590.5,1395.2 -4330.2,1974.3 -641.7,502.4 -1134.2,1194.6 -1655.6,1927.5 -871.6,1225 -1859.4,2613.3 -3815.3,3446.7 -2642.8,1126.1 -5704.9,-53.6 -7940.9,-914.9 -131.3,-50.6 -259.8,-100.1 -385,-147.9 -950.5,-362.8 -1802.6,-458.5 -2532.8,-284.3 -732.7,174.8 -1192.6,589.5 -1449.4,906.6 -616.1,760.9 -963.9,2150.9 -1019.8,2857.1 -99,-200.1 -287.18,-561.9 -538.85,-961.1 -343.96,-545.6 -879.21,-1272.7 -1492.23,-1671.9 560.11,-799.5 710.24,-1348 899.49,-2039.6 108.18,-395.3 230.8,-843.4 453.21,-1408.5 783.08,-1989.8 1754.38,-2570.1 4097.38,-3207.1 1682.7,-457.5 3365.1,-438.8 4480.2,-342.6 1424.3,123 2509.2,415.2 3005.5,628.1 93.4,40.1 240,127.3 409.7,228.4 523.2,311.4 1239.8,738 1681.4,602.9 130.8,-40.1 228.5,-127.2 290.6,-259.2 185.2,-393.5 1339.6,-1083.5 2676.3,-1882.5 74.1,-44.3 148.9,-89 224.2,-134.1 l 4.4,-2.6 3.6,-3.5 c 989.5,-943.1 2252.1,-1547.6 3752.6,-1796.8 469,-77.8 963.1,-129.3 1486.1,-183.8 1118.4,-116.5 2274.8,-236.9 3257.9,-633 597.6,-240.9 1073.1,-583 1375.2,-989.4 331.9,-446.6 433.9,-952.1 295,-1461.9 -127.7,-468.6 -605.5,-841.4 -1381.8,-1078 C 34562,880.102 33677.2,787 32753.5,826.301 c -542.4,23 -1076.5,115.801 -1544.8,268.299 -129.9,42.3 -254.7,89.3 -364.7,130.8 -189,71.2 -369.8,139.3 -471.4,139.3 z M 34246.4,0 c -475.9,0 -982.7,36.1016 -1464.7,135.902 -610.6,126.399 -1234.8,331.098 -1757.6,576.2 -230.3,108 -770.6,381.498 -814.5,588.798 -10.4,49.1 6.7,92.6 48.2,122.3 109.5,78.4 322.8,-1.9 618.1,-113.1 109.1,-41.2 232.9,-87.8 360.9,-129.5 460.5,-149.9 986.3,-241.198 1520.5,-263.901 913.8,-38.699 1787.8,52.801 2461.1,258.001 745.1,227 1201.8,578.1 1320.9,1015.2 306.3,1124.1 -634.3,1947.6 -1616.7,2343.5 -971.3,391.4 -2121.3,511.2 -3233.4,627 -524.5,54.7 -1019.9,106.3 -1491.6,184.6 -1516.9,251.9 -2794.3,863.2 -3796.5,1817.1 -73.9,44.2 -147.3,88 -219.9,131.4 -1405,839.9 -2514.8,1503.2 -2711.8,1921.7 -51.4,109.4 -128.4,178.5 -235.2,211.1 -403.2,123.5 -1128.6,-308.3 -1608.7,-594.1 -172.4,-102.6 -321.4,-191.3 -420.3,-233.7 -502.4,-215.6 -1598.3,-511.3 -3033.4,-635.1 -1122.3,-96.9 -2816.2,-115.6 -4511.6,345.4 -1323.6,359.8 -2105.1,690.6 -2697.2,1141.8 -627.2,477.9 -1064.07,1111.8 -1460.66,2119.5 -224.2,569.7 -347.5,1020.2 -456.29,1417.7 -189.94,694.1 -339.97,1242.3 -913.39,2050 l -27.8,39.2 40.73,25.4 c 615.05,383.7 1156.96,1118.9 1503.27,1668 376.64,597.2 609.74,1109.7 612.04,1114.9 l 86.4,191.1 v -209.8 c 0,-606.5 346.1,-2165.4 1007.7,-2982.4 334.4,-413 990.9,-958.4 2123.4,-958.5 491.5,0 1072.7,102.8 1756.2,363.7 125.2,47.8 253.5,97.2 384.8,147.8 2250.4,866.9 5332.4,2054.2 8008.9,913.7 1979.3,-843.3 2975,-2242.8 3853.5,-3477.4 517.5,-727.4 1006.3,-1414.4 1637.7,-1908.7 731.5,-572.7 2018.7,-1158.9 4304.3,-1960.3 965,-338.3 1919.2,-779.1 2759.2,-1274.8 845.9,-499.2 1496.8,-1007.5 1882.3,-1470 486,-583.3 770.8,-1214.9 846.4,-1877.4 67,-587.4 -38.5,-1167.1 -305.1,-1676.1 C 38238.4,1003.4 37133.2,416.699 36231.6,200.301 35936,129.301 35147,0 34246.4,0"
         style="fill:#281912;fill-opacity:1;fill-rule:nonzero;stroke:none"
         id="path22" />
      <path
         d="m 8422.06,4468 c 67.86,277 376.01,859.4 554.12,1014.9 94.52,82.5 -1138.19,1212.8 -1138.19,1212.8 0,0 387.46,-2060.9 584.07,-2227.7"
         style="fill:#beaaa3;fill-opacity:1;fill-rule:nonzero;stroke:none"
         id="path24" />
      <path
         d="m 7908.23,6569 c 137.36,-709.4 360.96,-1712.5 497.69,-1996.8 99.51,293.3 356.96,771.2 527.26,932.7 -15.65,38.4 -103.99,172.6 -564.49,624.6 -176.77,173.5 -353.79,340.1 -460.46,439.5 z m 540.37,-2182.9 -55.8,47.4 c -33.24,28.2 -134.4,114 -380.62,1200.9 -120.23,530.8 -217.67,1047.8 -218.64,1053 l -25.1,133.5 100.12,-91.8 c 2.87,-2.7 290.16,-266.3 573.51,-544.9 585.88,-576 584.96,-652.2 584.51,-688.9 -0.23,-18.5 -7.56,-35 -20.65,-46.5 -175.2,-152.9 -475.94,-730.3 -539.93,-991.6 l -17.4,-71.1"
         style="fill:#3f3331;fill-opacity:1;fill-rule:nonzero;stroke:none"
         id="path26" />
      <path
         d="m 8096.95,8691.7 c -203.56,-203.6 -703.52,-551.1 -1017.76,-882.1 -424.07,-446.7 -735.05,-1006.4 -791.6,-1635 -51.32,-570.6 100.08,-1116.4 282.71,-1508.7 152.67,-328 373.18,-701.2 520.19,-735.1 132.23,-30.5 294.02,104.6 262.92,271.4 147.01,-147 491.92,-144.2 449.52,62.2 192.24,-59.4 446.68,33.9 407.1,203.6 141.36,-135.7 401.45,-39.6 360.42,174.1 -31.81,165.6 -200.82,817.9 -243.57,1237.5 203.56,-316.6 686.06,-625.7 725.63,-467.4 39.57,158.3 -299.67,836.9 -401.45,1063 486.26,45.3 1164.77,373.2 1164.77,373.2 L 8096.95,8691.7"
         style="fill:#986759;fill-opacity:1;fill-rule:nonzero;stroke:none"
         id="path28" />
      <path
         d="m 8237.86,6751.4 c 43.59,-288.6 362.57,-603.8 460.15,-872.4 66.89,-184.1 69.23,-329.8 -99.54,-297.9 205.71,-172.8 427.74,-274.1 454.04,-168.9 39.57,158.3 -299.67,836.9 -401.45,1063 486.26,45.3 1164.77,373.2 1164.77,373.2 L 9120.52,7594 C 8857.7,7096.5 8375.21,6840.2 8237.86,6751.4"
         style="fill:#83574e;fill-opacity:1;fill-rule:nonzero;stroke:none"
         id="path30" />
      <path
         d="m 7090.49,3930.8 c 132.23,-30.5 294.02,104.6 262.92,271.4 147.01,-147 491.92,-144.2 449.52,62.2 192.24,-59.4 446.68,33.9 407.1,203.6 141.36,-135.7 401.45,-39.6 360.42,174.1 -31.81,165.6 -200.82,817.9 -243.57,1237.5 43.31,-67.3 99.26,-134.3 160.86,-196.6 -71.52,97.3 -173.91,248.6 -225.01,380.1 -113.69,-376.3 57.47,-1154.3 68.67,-1282.9 18.84,-216.3 -161.86,-234.7 -284.75,-48.1 -67.52,113.1 -277.35,568.5 -335.81,817.1 -49.94,-409.9 197.7,-916.3 211.34,-1025.5 22.36,-178.9 -190.25,-182.5 -319.79,-59.5 -94.87,90.1 -309.02,513.6 -353.58,838.8 -87.9,-444.1 149.36,-764.4 184.03,-916.9 26.11,-114.8 -79.43,-183.9 -237.48,0 -158.06,184 -302.5,527 -403.14,841.7 -29.41,-546.6 335.09,-967.7 295.51,-1079 -29.61,-83.2 -112.29,-75.3 -225.57,-3.7 82.38,-116.2 162.68,-199.1 228.33,-214.3"
         style="fill:#83574e;fill-opacity:1;fill-rule:nonzero;stroke:none"
         id="path32" />
      <path
         d="M 8095.27,8627.2 C 8009.4,8546.6 7888.87,8449.4 7751.94,8339.1 7537,8165.9 7293.38,7969.5 7111.99,7778.5 6653.3,7295.3 6383.81,6739.3 6332.64,6170.5 6274.47,5523.8 6482.27,4962.2 6611.31,4685 c 183.37,-393.9 384.6,-685.9 489.35,-710.1 49.1,-11.3 107.1,8 151.36,50.4 47.65,45.7 68.4,107.1 56.93,168.6 l -26.76,143.5 103.21,-103.2 c 89.59,-89.6 256.27,-110.8 334.57,-68.6 35.07,18.8 47.35,47.4 38.65,89.7 l -15.39,74.9 73.04,-22.6 c 110.28,-34 249.43,-11.5 316.79,51.3 30.94,28.8 41.71,61.1 32.92,98.8 l -34.66,148.5 110.04,-105.6 c 65.86,-63.2 156.32,-59.2 212.5,-28.7 28.09,15.3 91.37,61.6 72.17,161.6 -7.99,41.6 -25.04,115.5 -46.62,209.1 -61.88,268.3 -165.43,717.4 -197.53,1032.5 l -19.15,188 102.2,-159 c 170.99,-266 529.98,-505.7 633.55,-488.7 8.54,1.4 8.98,3.1 10.15,7.8 29.35,117.4 -216.15,641.8 -334.13,893.9 -25.91,55.3 -48.3,103.1 -64.69,139.6 l -25.98,57.7 63.04,5.9 c 392.9,36.5 922.08,264.9 1093.36,342.8 z M 7128.71,3881.3 c -16.4,0 -32.62,1.8 -48.39,5.4 -205.02,47.4 -473.59,593.7 -551.03,760.1 -132.87,285.4 -346.82,864 -286.75,1531.8 53.01,589.3 330.97,1164.1 803.84,1662.2 185.54,195.4 431.65,393.7 648.79,568.7 153.89,124.1 286.79,231.2 369.79,314.2 l 33.12,33.1 1792.68,-1922.4 -55.24,-26.7 c -26.82,-13 -636.48,-305.7 -1117.35,-370.3 11.45,-24.7 24.35,-52.3 38.27,-82 198.72,-424.5 374.26,-816.9 339.96,-954.1 -10.18,-40.8 -40.52,-68.2 -83.22,-75.2 -135.05,-22.4 -424.87,169.1 -619.86,391.8 43.5,-288 123.17,-633.5 174.24,-854.9 21.8,-94.5 39.01,-169.2 47.31,-212.4 20.82,-108.4 -24.33,-207.3 -117.82,-258.1 -76.13,-41.4 -167.6,-42.5 -244.27,-7.4 -9.45,-33.9 -28.99,-65.3 -58.03,-92.4 -79.13,-73.8 -216.66,-106.3 -344.67,-85.6 -7.04,-51.7 -37.07,-94.2 -87.22,-121.2 -97,-52.2 -250.72,-37.1 -364.5,26.9 -10.22,-56.8 -38.81,-109.8 -83.74,-152.8 -52.77,-50.6 -120.7,-78.7 -185.91,-78.7"
         style="fill:#281912;fill-opacity:1;fill-rule:nonzero;stroke:none"
         id="path34" />
      <path
         d="m 8638.45,6431.8 c -67.92,41.9 -132.1,79.4 -249.8,180.9 -66.46,57.4 -107.22,95.9 -150.79,138.7 0,0 388.28,-221.8 425.81,-232.7 l -25.22,-86.9"
         style="fill:#281912;fill-opacity:1;fill-rule:nonzero;stroke:none"
         id="path36" />
      <path
         d="m 8186.88,4429.1 c -123.83,73.8 -231.96,372.4 -334.66,635.9 -129.82,333 -135.87,467 -141.38,484.2 0,0 373.77,-953.8 522.35,-1042.4 l -46.31,-77.7"
         style="fill:#281912;fill-opacity:1;fill-rule:nonzero;stroke:none"
         id="path38" />
      <path
         d="m 7784.06,4223.3 c -160.17,73.5 -337.48,333.6 -424.51,553.7 -124.83,315.7 -110.74,525.9 -110.74,525.9 v 0.1 c 2.01,-80.7 317.25,-880.1 572.98,-997.5 l -37.73,-82.2"
         style="fill:#281912;fill-opacity:1;fill-rule:nonzero;stroke:none"
         id="path40" />
      <path
         d="m 7323.58,4168.2 c -101.14,88.8 -228.75,294.3 -343.97,496.5 -151.52,265.9 -187.39,563.1 -187.39,563.1 3.75,-8 377.35,-804 591.03,-991.6 l -59.67,-68"
         style="fill:#281912;fill-opacity:1;fill-rule:nonzero;stroke:none"
         id="path42" />
      <path
         d="m 7169.94,3968.3 c 35.62,-216.4 339.91,-491.8 646.19,-400.7 3.49,1 2.96,7.7 -0.75,9.7 -299.49,167.3 -360.69,498.8 -512.43,566.1 -58.15,25.8 -154.75,-42.9 -133.01,-175.1"
         style="fill:#595552;fill-opacity:1;fill-rule:nonzero;stroke:none"
         id="path44" />
      <path
         d="m 7331.06,3937.7 c 103.45,-198.3 279.19,-311 472.11,-373.5 4.32,1.1 8.64,2.1 12.96,3.4 3.49,1 2.96,7.7 -0.75,9.7 -299.49,167.3 -360.69,498.8 -512.43,566.1 -46.28,20.6 -116.85,-18.8 -132.8,-102.4 70.46,1.7 129.89,-41.2 160.91,-103.3"
         style="fill:#44403d;fill-opacity:1;fill-rule:nonzero;stroke:none"
         id="path46" />
      <path
         d="m 7214.57,3975.7 c 17.58,-106.8 110.53,-229.4 231.31,-305 83.9,-52.5 173.55,-78.2 260.03,-75.4 -127.32,97.3 -205.32,222 -270.21,325.7 -52.97,84.7 -98.72,157.9 -151.09,181.1 -7.43,3.3 -21.56,1.5 -36.37,-10 -11,-8.5 -45.92,-42 -33.67,-116.4 z m 478.63,-471.2 c -99.37,0 -200.81,30.4 -295.33,89.5 -143.69,90 -250.68,234 -272.56,367 v 0 c -13.76,83.6 11.51,159.3 67.59,202.7 39.56,30.6 88.76,38.7 128.39,21.1 77.7,-34.5 130.26,-118.5 191.11,-215.8 76.9,-122.9 164.05,-262.2 325.04,-352.2 17.78,-9.9 28.22,-30.4 25.96,-50.9 -2.18,-19.8 -15.67,-36.1 -34.37,-41.7 -44.24,-13.2 -89.81,-19.7 -135.83,-19.7"
         style="fill:#262321;fill-opacity:1;fill-rule:nonzero;stroke:none"
         id="path48" />
      <path
         d="m 7525.5,4136.8 c 32.54,-236.1 355.27,-543.9 690.56,-453.7 3.82,1 3.43,8.3 -0.53,10.6 -320.59,190.3 -377.64,552.1 -540.57,629.5 -62.43,29.7 -169.33,-42.2 -149.46,-186.4"
         style="fill:#595552;fill-opacity:1;fill-rule:nonzero;stroke:none"
         id="path50" />
      <path
         d="m 8182.47,3675.4 c 11.18,2.2 22.38,4.7 33.59,7.7 3.82,1 3.43,8.3 -0.53,10.6 -320.59,190.3 -377.64,552.1 -540.57,629.5 -44.06,21 -110.22,-8.7 -138.38,-78.7 310.9,-95.7 169.33,-374.6 645.89,-569.1"
         style="fill:#44403d;fill-opacity:1;fill-rule:nonzero;stroke:none"
         id="path52" />
      <path
         d="m 7570.31,4143 c 16.21,-117.6 114.39,-254.4 244.32,-340.6 93.79,-62.2 195.24,-92.7 293.48,-89.8 -140.15,110 -223.11,250.6 -291.88,367.3 -55.46,94 -103.36,175.2 -160.68,202.5 -10.85,5.1 -28.45,1.1 -43.79,-10.2 -12.63,-9.2 -52.93,-45.9 -41.45,-129.2 z m 524.28,-521.1 c -111.65,0 -225.29,35.7 -329.96,105.1 -152.64,101.2 -264.09,259.7 -283.94,403.6 -12.36,89.8 16.65,170 77.62,214.6 42.67,31.3 94.82,38.5 136.07,18.9 82.34,-39.1 136.77,-131.4 199.78,-238.3 80.27,-136.1 171.26,-290.4 344.45,-393.2 17.72,-10.5 27.71,-31.5 24.87,-52.2 -2.73,-19.8 -16.73,-35.9 -35.67,-41 -43.61,-11.7 -88.26,-17.5 -133.22,-17.5"
         style="fill:#262321;fill-opacity:1;fill-rule:nonzero;stroke:none"
         id="path54" />
      <path
         d="m 7922.73,4288.2 c 15.46,-246.4 325.1,-589.1 678.31,-521.7 4.03,0.8 4.18,8.3 0.27,11.1 -316.47,221.1 -347.59,599.1 -509.9,691.6 -62.2,35.5 -178.13,-30.6 -168.68,-181"
         style="fill:#595552;fill-opacity:1;fill-rule:nonzero;stroke:none"
         id="path56" />
      <path
         d="m 8603.89,3770.3 c 0.43,2.6 -0.31,5.7 -2.58,7.3 -316.47,221.1 -347.59,599.1 -509.9,691.6 -47.26,27 -125.48,-4.8 -156.22,-87.5 172.91,23.4 183.69,-468.5 668.7,-611.4"
         style="fill:#44403d;fill-opacity:1;fill-rule:nonzero;stroke:none"
         id="path58" />
      <path
         d="m 8054.27,4433.4 c -9.99,0 -21.7,-3.6 -32.91,-10.6 -37.21,-23.2 -57.21,-72.5 -53.49,-131.8 v 0 c 7.73,-123.1 98.86,-272.4 226.77,-371.7 93.69,-72.7 198.04,-112.3 301.54,-115.8 -138.14,124.7 -213.64,277.6 -276.13,404.2 -50.17,101.7 -93.5,189.5 -151.04,222.2 -4.11,2.4 -9.16,3.5 -14.74,3.5 z m 456.48,-720.6 c -128.25,0 -257.26,46.4 -371.56,135 -149.52,116 -252.21,287.8 -261.61,437.5 v 0 c -5.84,93.1 30.01,173.1 95.89,214.2 45.98,28.7 99.76,32.2 140.34,9 81.6,-46.5 130.61,-145.7 187.36,-260.7 72.53,-146.9 154.73,-313.5 326.05,-433.2 16.96,-11.8 25.41,-33.6 21.01,-54.1 -4.2,-19.7 -19.39,-34.7 -38.71,-38.4 -32.7,-6.2 -65.71,-9.3 -98.77,-9.3"
         style="fill:#262321;fill-opacity:1;fill-rule:nonzero;stroke:none"
         id="path60" />
      <path
         d="m 8286.26,4541.8 c 5.93,-223.4 274.87,-543.6 596.67,-494.2 3.66,0.6 4.05,7.4 0.6,10 -279.11,210.4 -294.89,553.5 -438.72,642.5 -55.12,34.1 -162.17,-21.9 -158.55,-158.3"
         style="fill:#595552;fill-opacity:1;fill-rule:nonzero;stroke:none"
         id="path62" />
      <path
         d="m 8420.71,4503.1 c 86.24,-227.4 249.16,-356.4 462.83,-455.1 2.96,1.4 3.19,7.2 -0.01,9.6 -279.11,210.4 -294.89,553.5 -438.72,642.5 -47.36,29.3 -133.02,-8 -153.9,-105.6 40.39,-19.6 93.72,-22.3 129.8,-91.4"
         style="fill:#44403d;fill-opacity:1;fill-rule:nonzero;stroke:none"
         id="path64" />
      <path
         d="m 8408.55,4664.6 c -7.39,0 -16.61,-2.2 -26.51,-7.9 -12.38,-7.1 -52.61,-36.4 -50.56,-113.7 v 0 c 2.93,-110.4 79.88,-247.3 191.47,-340.5 78.23,-65.4 166.19,-103.9 254.86,-112.7 -116,116.2 -177.74,253.6 -229.07,367.8 -41.78,92.9 -77.86,173.2 -127.73,204.1 -2.99,1.8 -7.28,2.9 -12.46,2.9 z m 408.26,-667.2 c -122.88,0 -245.54,46.8 -351.86,135.6 -132.38,110.6 -220.27,270.6 -223.91,407.6 v 0 c -2.28,86 33.58,158.7 95.92,194.5 43.9,25.2 94.35,26.6 131.65,3.5 73.43,-45.4 114.77,-137.4 162.64,-244 60.61,-134.8 129.3,-287.6 279.51,-400.9 16.31,-12.3 23.87,-34 18.81,-54.1 -4.86,-19.3 -20.47,-33.7 -39.78,-36.7 -24.24,-3.7 -48.62,-5.5 -72.98,-5.5"
         style="fill:#262321;fill-opacity:1;fill-rule:nonzero;stroke:none"
         id="path66" />
      <path
         d="m 8951.67,5665.1 c 178.41,-117.4 302.96,-497.1 100.72,-733.5 -2.3,-2.7 -8.03,0.4 -8.4,4.5 -30.26,332.7 -300.93,518.3 -300.75,680 0.07,61.9 99.5,120.6 208.43,49"
         style="fill:#595552;fill-opacity:1;fill-rule:nonzero;stroke:none"
         id="path68" />
      <path
         d="m 8951.67,5665.1 c -108.93,71.6 -208.36,12.9 -208.43,-49 0,-0.4 0.06,-0.9 0.07,-1.3 255.19,-97.4 347.9,-361.3 352.77,-621.3 137.23,236 19.14,564 -144.41,671.6"
         style="fill:#44403d;fill-opacity:1;fill-rule:nonzero;stroke:none"
         id="path70" />
      <path
         d="m 8851.5,5652.7 c -20.35,0 -34.42,-6.1 -40.39,-9.3 -15.54,-8.4 -22.62,-20.1 -22.63,-27.4 -0.07,-55.4 46.79,-124.9 101.05,-205.4 66.18,-98.2 145.63,-216 182.21,-366.4 35.45,75 47.57,163.5 34.27,257.4 -19.41,137.1 -91.43,268 -179.2,325.7 v 0 c -29.93,19.7 -55.58,25.4 -75.31,25.4 z m 198.51,-767.3 c -5.04,0 -10.14,0.7 -15.14,2.3 -19.64,6.3 -34.08,24.1 -35.93,44.3 -16.24,178.5 -105.59,311.1 -184.43,428 -62.56,92.8 -116.6,173 -116.5,256.1 0.05,42.7 26.95,83.7 70.21,106.9 61.17,33 139.04,25.4 208.31,-20.1 v 0 c 109.88,-72.3 195.86,-224.8 219.05,-388.6 22.33,-157.6 -16.32,-304 -108.81,-412.1 -9.3,-10.9 -22.77,-16.8 -36.76,-16.8"
         style="fill:#262321;fill-opacity:1;fill-rule:nonzero;stroke:none"
         id="path72" />
      <path
         d="m 23510.4,9234.5 c -361.9,769 -1876.6,-403 -2323,-594.5 -1092.2,-468.5 -4454.5,-1119.7 -7515.4,-287.6 -2412.5,655.9 -3362.6,1290.5 -4127.57,3234.2 -610.72,1551.9 -463.65,2193.9 -1374.89,3477.4 177.39,110.7 348.75,249.5 512.03,405.8 l -512.03,608.7 -3318.12,-1467.9 c 1019.44,-988.4 691.71,-2808.2 1731.84,-4868 865.05,-1713.2 2174.67,-2944.1 3426.24,-3562 1340,-661.5 2739.2,-788.6 4374.2,-1543.6 1800,-831.1 5853.8,-1441.7 8296.3,-542.7 588.1,216.4 897.4,2576.9 1059.6,4858.5 -111.7,104.5 -190.2,198.8 -229.2,281.7"
         style="fill:#d8c9c2;fill-opacity:1;fill-rule:nonzero;stroke:none"
         id="path74" />
      <path
         d="m 10009.5,6180.6 c 1340,-661.5 2739.2,-788.6 4374.2,-1543.6 1800,-831.1 5853.8,-1441.7 8296.3,-542.7 63.9,23.4 124.4,72.2 181.8,143.4 -633.3,1325.8 -1406.9,3104.2 -1683.9,4398.3 -440.7,-187.3 -1241.4,-402.8 -2238.9,-541 -492.7,-393.1 -1046.1,-706.1 -1758.3,-742.1 -780.8,-39.6 -1316.3,257.3 -1670.3,666.3 -611.3,61.3 -1230.8,168 -1838.4,333.2 -840.2,228.5 -1502.8,454.4 -2042.3,733.8 C 11159,6901.3 9117.79,6860.8 7860.75,7860.7 8530.34,7109.6 9279.78,6540.8 10009.5,6180.6"
         style="fill:#beaaa3;fill-opacity:1;fill-rule:nonzero;stroke:none"
         id="path76" />
      <path
         d="m 8442.07,14648.5 c -78.96,131.7 -168.83,269.4 -272.53,415.5 177.39,110.7 348.75,249.5 512.03,405.8 L 8169.54,16078.5 4994,14673.7 c 1273.65,-562.9 2506.35,-376.9 3448.07,-25.2"
         style="fill:#beaaa3;fill-opacity:1;fill-rule:nonzero;stroke:none"
         id="path78" />
      <path
         d="m 4929.97,14595.9 c 518.33,-537.3 677.77,-1304.5 861.53,-2188.8 164.89,-793.5 351.77,-1692.9 832.13,-2644.2 C 7418.88,8188 8660.3,6897.1 10029.6,6221.1 c 661.5,-326.6 1337.5,-522.2 2053.2,-729.3 734.2,-212.4 1493.3,-432 2319.8,-813.7 1802.7,-832.3 5817.8,-1440.9 8261.8,-541.4 173.3,63.8 428.6,396.7 660.7,1620.8 149.9,790.9 273.7,1859.8 367.8,3177.2 -111.5,106.3 -184.7,198.2 -223.4,280.5 -51.5,109.4 -128.5,178.5 -235.3,211.1 -403.2,123.5 -1128.6,-308.3 -1608.7,-594.1 -172.4,-102.6 -321.4,-191.3 -420.3,-233.7 -502.4,-215.6 -1598.3,-511.3 -3033.4,-635.1 -1122.3,-96.9 -2816.2,-115.6 -4511.6,345.4 -1323.6,359.8 -2105,690.6 -2697.2,1141.8 -627.2,477.9 -1064.07,1111.8 -1460.66,2119.5 -224.2,569.6 -347.5,1020.2 -456.29,1417.7 -189.94,694.1 -339.97,1242.3 -913.39,2050 l -27.8,39.1 40.73,25.5 c 155.21,96.8 314.49,221.5 473.91,370.9 l -462.72,550.1 z M 19686.3,3604.4 c -450.6,0 -918.5,22.5 -1399.6,67.4 -1485,138.7 -2987.8,492.8 -3922,924.2 -820.3,378.7 -1576.1,597.4 -2307,808.9 -719.7,208.3 -1399.5,405 -2068.18,735.1 -648.36,320.1 -1295.08,796.9 -1870.25,1379 -629.56,637.2 -1159.94,1378.4 -1576.39,2203.2 -485.75,961.9 -673.93,1867.5 -839.96,2666.5 -186.18,895.9 -346.97,1669.7 -882.99,2189.4 l -48.16,46.7 3410.52,1508.8 561.2,-667.2 -30.65,-29.3 c -160.45,-153.6 -321.39,-283.1 -479.02,-385.8 560.11,-799.5 710.24,-1348 899.49,-2039.6 108.18,-395.3 230.8,-843.4 453.21,-1408.5 783.08,-1989.8 1754.38,-2570.1 4097.38,-3207.1 1682.7,-457.5 3365.1,-438.8 4480.2,-342.6 1424.3,123 2509.2,415.2 3005.5,628.1 93.4,40.1 240,127.3 409.7,228.4 523.2,311.4 1239.8,738 1681.4,602.9 130.8,-40.1 228.5,-127.2 290.6,-259.2 35.1,-74.4 108.8,-164.6 219.2,-267.8 l 15.7,-14.8 -1.5,-21.5 c -94.6,-1330.7 -219.3,-2410.3 -370.7,-3208.9 -195.4,-1030.5 -430.4,-1582.9 -718.3,-1688.9 -583.9,-214.9 -1285.6,-354.2 -2085.9,-414 -298.2,-22.3 -606.6,-33.4 -923.5,-33.4"
         style="fill:#3f3331;fill-opacity:1;fill-rule:nonzero;stroke:none"
         id="path80" />
      <path
         d="m 12956.5,11270.1 c -772.2,-375.8 -1329.9,-1703.7 -1465.6,-2551.8 -135.7,-848.1 186.6,-3205.7 220.5,-3545 33.9,-339.2 75.9,-1774.1 -180,-1874 -296.4,-115.7 -908.9,158 -990.4,25.2 -131.5,-214.4 59.2,-344.6 213.4,-395.3 -474.9,-90.5 -1379.6,-350.6 -904.64,-735.1 -327.95,-237.5 45.23,-565.4 271.44,-588 67.8,-169.6 192.2,-316.7 463.6,-328 113.1,-135.7 251.5,-206.9 629.5,-207.3 382.6,-0.4 1136.2,200.9 1620.9,637.1 508.9,457.9 1472.1,2086.8 1775.4,3008 340.5,1034.1 588.3,3307 418.3,4368.8 l -2072.4,2185.4"
         style="fill:#986759;fill-opacity:1;fill-rule:nonzero;stroke:none"
         id="path82" />
      <path
         d="m 9804.14,2165.3 c 107.69,73.3 259.56,165.8 416.16,226.2 294,113.4 602.2,155.3 971.4,137.1 -136.9,77.9 -284.3,111.5 -635.5,91.7 -307.8,-17.4 -598.29,-203.6 -733.22,-33.9 -163.55,-115.1 -217.39,-256.6 -18.84,-421.1"
         style="fill:#83574e;fill-opacity:1;fill-rule:nonzero;stroke:none"
         id="path84" />
      <path
         d="m 10579.1,1919.2 c 265.3,141.3 415.9,197.8 774.1,206.2 -156.3,107.4 -570.2,93.4 -898.2,-11.2 -306.5,-97.8 -482.18,-291.8 -722,-321.1 79.21,-118.2 233.05,-209.4 348.6,-220.9 1.7,-4.2 3.4,-8.4 5.1,-12.5 68.4,110.6 237.5,223.7 492.4,359.5"
         style="fill:#83574e;fill-opacity:1;fill-rule:nonzero;stroke:none"
         id="path86" />
      <path
         d="m 13611,3652.1 c -273.7,-600.3 -708.6,-1629.8 -1281.6,-1964 -337.9,-197 -1447.5,-593.7 -1543.5,-264.9 0,0 667.9,338.1 1138.3,328.9 -401.6,221.1 -1302.7,-54 -1709.6,-383.7 75.4,-70.1 180.5,-117.9 330.6,-124.2 113.1,-135.7 251.5,-206.9 629.5,-207.3 382.6,-0.4 1136.2,200.8 1620.9,637 508.9,458 1472.1,2086.9 1775.4,3008.1 340.5,1034.1 588.3,3307 418.4,4368.7 -76,-487.8 -194.8,-1850.5 -528.4,-3145.3 -276,-1071.3 -540.9,-1575.6 -850,-2253.3"
         style="fill:#83574e;fill-opacity:1;fill-rule:nonzero;stroke:none"
         id="path88" />
      <path
         d="m 11226.6,1032.1 c -0.3,0 -0.7,0 -1,0 -385.5,0.4 -535.5,76.4 -651.3,208.4 -227.4,15.1 -382.7,123.5 -473.6,331 -160.06,29.1 -358.62,174.2 -404.25,343.4 -28.19,104.4 5.35,204.7 94.65,287 -90.43,86.5 -124.98,174.9 -102.75,263.4 64.82,258 625.45,417.7 933.85,486.8 -59,36.2 -118.2,88.7 -144.9,161.6 -27.6,75.4 -15.3,156.5 36.5,240.9 55.5,90.6 216.7,60.4 439.8,18.7 202.1,-37.8 431.2,-80.6 572.7,-25.3 32.5,12.6 140.8,108.4 169.9,807 16.8,402.1 -1.1,846.5 -18.5,1020.3 -4.9,48.4 -15.5,137.4 -30.3,260.6 -83.9,701.2 -307,2563.8 -189.9,3296.1 100.2,626 410.1,1482.9 956.2,2140.2 278.8,335.5 503.3,364 503.3,364 -816.1,-638.7 -1248.1,-1755.9 -1370.1,-2518.5 -115.2,-719.8 106.8,-2573.3 190.4,-3271.1 14.8,-123.7 25.5,-213 30.4,-262.3 17.6,-176.3 35.8,-626.6 18.9,-1033.1 -9.7,-233.8 -29.5,-424.6 -58.7,-567.2 -38.6,-188.7 -92.3,-290.5 -168.7,-320.3 -165.6,-64.7 -408.2,-19.3 -622.2,20.7 -93.2,17.4 -181.2,33.9 -247.8,37.8 -83.7,4.9 -97.1,-12.8 -98.3,-14.9 -36.6,-59.7 -46.3,-114.3 -28.6,-162.4 24.7,-67.4 106,-129.5 217.6,-166.3 l 166.1,-54.6 -171.8,-32.8 c -429,-81.7 -947.89,-248 -998.11,-447.9 -16.02,-63.8 22.14,-133.6 113.44,-207.5 l 45.9,-37.2 -47.83,-34.6 c -91.4,-66.2 -126.33,-142.1 -103.8,-225.6 37.71,-139.7 224,-267.9 353.2,-280.8 l 27.3,-2.7 10.2,-25.5 c 78.2,-195.6 212.8,-290.8 423.5,-299.6 l 20,-0.8 12.9,-15.4 c 103,-123.6 228.3,-190.7 594.8,-191.1 0.3,0 0.7,0 1,0 371.8,0 1109.9,193.9 1589.5,625.5 506.8,456.1 1462.3,2076 1762.8,2988.6 331,1005.4 474.9,3274.8 410.4,4314.1 0,0 103.2,-206.4 102.9,-856.7 -0.1,-406.5 -30.5,-860.2 -67.5,-1306 -77.8,-936.9 -205.6,-1711 -359.9,-2179.7 -303.9,-923 -1273.2,-2564.1 -1788.1,-3027.6 -497.4,-447.6 -1263.9,-648.6 -1650.2,-648.6"
         style="fill:#281912;fill-opacity:1;fill-rule:nonzero;stroke:none"
         id="path90" />
      <path
         d="m 11475.7,3120 c 66.1,104.6 99.4,190.5 99.1,255.3 l 90.4,0.5 c 0.5,-83.6 -189.5,-255.8 -189.5,-255.8"
         style="fill:#281912;fill-opacity:1;fill-rule:nonzero;stroke:none"
         id="path92" />
      <path
         d="m 10739.2,2886.3 8.1,90.1 c 182,10.1 342.4,-18 477.1,-14.4 0,0 -446.2,-79.2 -485.2,-75.7"
         style="fill:#281912;fill-opacity:1;fill-rule:nonzero;stroke:none"
         id="path94" />
      <path
         d="m 9891.9,2167.5 -61.67,66.2 c 123.4,115 474.27,248.5 842.97,326.7 255.1,54.1 518.5,-31.8 518.5,-31.8 -503.6,0 -1146.8,-218.5 -1299.8,-361.1"
         style="fill:#281912;fill-opacity:1;fill-rule:nonzero;stroke:none"
         id="path96" />
      <path
         d="m 10165.7,1581.9 -66.5,61.4 c 113.3,122.7 340.9,273 594,392.3 27.4,12.9 53.9,26.7 81.3,36.9 357.4,132.9 578.7,52.9 578.7,52.9 -292,28.3 -967.3,-304.9 -1187.5,-543.5"
         style="fill:#281912;fill-opacity:1;fill-rule:nonzero;stroke:none"
         id="path98" />
      <path
         d="m 10658.4,1262.9 -79.3,43.5 c 62.8,114.7 431.7,330.7 805,437.1 344.3,98 540.1,8.6 540.1,8.6 -170,9.5 -450.9,-59.5 -751.4,-185 -292.9,-122.4 -483.7,-248.1 -514.4,-304.2"
         style="fill:#281912;fill-opacity:1;fill-rule:nonzero;stroke:none"
         id="path100" />
      <path
         d="m 10947.2,1417.6 c -240.3,52.5 -635.1,-270.2 -644.3,-775.401 -0.1,-5.797 7.1,-8.297 10.5,-3.695 279.2,368.396 649.6,298 772.7,493.196 47.2,74.8 7.9,253.8 -138.9,285.9"
         style="fill:#595552;fill-opacity:1;fill-rule:nonzero;stroke:none"
         id="path102" />
      <path
         d="m 11015.9,1387.5 c 65.8,-170.8 -66.1,-170.8 -307.1,-297.8 -210,-110.798 -339.5,-275.798 -364.3,-412.501 275,324.901 623,266.403 741.6,454.501 38.7,61.4 19.1,192.9 -70.2,255.8"
         style="fill:#44403d;fill-opacity:1;fill-rule:nonzero;stroke:none"
         id="path104" />
      <path
         d="m 10893.8,1377.9 c -75.6,0 -165.5,-36.6 -249.4,-102.8 -152.6,-120.6 -255.3,-307.998 -286.5,-516.096 148.2,149.797 310.6,207.398 445.2,255.196 111.9,39.8 200.4,71.2 244.7,141.6 14.3,22.7 18.2,73.9 -2.8,124.1 -12.1,28.8 -42.1,79.2 -107.4,93.5 v 0 c -13.9,3 -28.6,4.5 -43.8,4.5 z m -585,-786.998 c -5.6,0 -11.3,0.899 -16.8,2.801 -21,7.301 -34.8,27.098 -34.4,49.297 5.2,280.703 128.8,543.5 330.7,703 123.7,97.8 258,139.9 368.6,115.8 v 0 c 76.9,-16.8 139.5,-70.4 171.5,-147 30.7,-73.3 29.1,-154.6 -4,-207.2 -61.1,-97 -167.7,-134.799 -291.1,-178.596 -155.8,-55.402 -332.5,-118.102 -483.8,-317.801 -9.9,-13.101 -25,-20.301 -40.7,-20.301"
         style="fill:#262321;fill-opacity:1;fill-rule:nonzero;stroke:none"
         id="path106" />
      <path
         d="m 10379,1639.1 c -250.6,44.1 -646.1,-301.9 -635.63,-819.198 0.12,-5.898 7.68,-8.203 11.07,-3.398 274.16,388.196 659.96,330.896 779.46,535.596 45.8,78.5 -1.9,260 -154.9,287"
         style="fill:#595552;fill-opacity:1;fill-rule:nonzero;stroke:none"
         id="path108" />
      <path
         d="m 10450.8,1611.3 c 67.4,-133.2 -68.3,-195.4 -262.5,-317.9 -196.93,-124.3 -374.24,-239.1 -429.81,-471.298 273.81,381.998 656.51,326.298 775.41,529.998 37.7,64.5 12.1,198.5 -83.1,259.2"
         style="fill:#44403d;fill-opacity:1;fill-rule:nonzero;stroke:none"
         id="path110" />
      <path
         d="m 10334.5,1597.6 c -81.6,0 -178.7,-42.5 -267.4,-118.5 C 9914.79,1348.6 9816.76,1151.8 9793.67,937.402 9941.6,1099 10108.5,1165 10246.6,1219.7 c 114.5,45.3 204.9,81 248.3,155.2 14.2,24.4 16.2,75.6 -7.4,126.6 -13.7,29.5 -47,80.8 -116.3,93 v 0 c -11.8,2.1 -24.1,3.1 -36.7,3.1 z M 9749.48,768.703 c -5.02,0 -10.1,0.699 -15.09,2.301 -21.23,6.496 -35.8,25.797 -36.25,48 -5.76,284.996 110.17,557.496 310.16,728.796 124.5,106.7 262.5,156.3 378.5,135.8 v 0 c 80.3,-14.1 146.9,-66.6 182.7,-144 34,-73.3 35.3,-155.8 3.5,-210.3 -59.1,-101.2 -167.6,-144.1 -293.1,-193.8 -159.2,-62.9 -339.66,-134.3 -488.51,-345.098 -9.81,-13.898 -25.54,-21.699 -41.91,-21.699"
         style="fill:#262321;fill-opacity:1;fill-rule:nonzero;stroke:none"
         id="path112" />
      <path
         d="m 9878.92,2003.8 c -283.46,38.4 -718.15,-347.7 -690.61,-903.3 0.32,-6.3 8.9,-8.4 12.57,-3.2 296.76,427.1 732.87,379.4 861.22,603.7 49.2,85.9 -10.1,279.4 -183.18,302.8"
         style="fill:#595552;fill-opacity:1;fill-rule:nonzero;stroke:none"
         id="path114" />
      <path
         d="m 9816.09,1704.3 c -296.18,-131.7 -534.32,-314.8 -624.77,-608.8 2.92,-1.9 7.23,-1.5 9.56,1.8 296.76,427.1 732.87,379.4 861.22,603.7 28.4,49.7 20.5,135.4 -24.7,203.4 -43.2,-106.8 -137.75,-154.5 -221.31,-200.1"
         style="fill:#44403d;fill-opacity:1;fill-rule:nonzero;stroke:none"
         id="path116" />
      <path
         d="m 9838.58,1961.2 c -100.67,0 -219.7,-55.2 -325.63,-152.5 -162.19,-148.9 -262.18,-365.4 -278.29,-594.4 163.51,187.5 353.79,266.2 510.68,331.2 128.59,53.2 230.15,95.2 277.46,178 14.9,26 16.2,80.1 -9.9,133.2 -16.5,33.3 -56.56,91 -140.05,102.3 -11.14,1.5 -22.58,2.2 -34.27,2.2 z M 9195.1,1049.1 c -4.81,0 -9.68,0.7 -14.47,2.1 -21.34,6.1 -36.41,25 -37.49,47.1 -14.66,295.6 100.71,586.1 308.61,777.1 137.81,126.5 299.77,191.3 433.24,173.2 v 0 c 91.29,-12.3 167.51,-67.7 209.01,-151.9 37.2,-75.4 40,-161 7.3,-218.2 -62.6,-109.5 -182.53,-159.2 -321.35,-216.6 -178.09,-73.7 -379.94,-157.3 -541.93,-390.4 -9.93,-14.3 -26.09,-22.4 -42.92,-22.4"
         style="fill:#262321;fill-opacity:1;fill-rule:nonzero;stroke:none"
         id="path118" />
      <path
         d="m 9776.7,2564.6 c -276.35,47.8 -723.86,-280.4 -726.45,-783.3 -0.03,-5.7 8.28,-8 12.17,-3.4 314.24,371.7 740.01,308.3 878.02,504.8 52.88,75.3 4.98,252.7 -163.74,281.9"
         style="fill:#595552;fill-opacity:1;fill-rule:nonzero;stroke:none"
         id="path120" />
      <path
         d="m 9915.86,2483.3 c -60.18,-258.8 -681.2,-154.2 -864.32,-705.5 2.48,-2.9 7.94,-3.4 10.88,0.1 314.24,371.7 740.01,308.3 878.02,504.8 33.2,47.3 26.65,134.8 -24.58,200.6"
         style="fill:#44403d;fill-opacity:1;fill-rule:nonzero;stroke:none"
         id="path122" />
      <path
         d="m 9720.92,2524 c -105.82,0 -232.93,-53.2 -343.51,-145.8 -150.48,-125.9 -247.18,-301 -274.2,-491.4 170.58,161.4 361.33,223.5 518.62,274.7 129.12,42.1 231.11,75.3 281.59,147.2 13.42,19.1 19.09,60.8 -0.19,107.3 -22.97,55.3 -71.9,93.2 -134.25,104 -15.4,2.7 -31.47,4 -48.06,4 z M 9056.9,1730.2 c -6.13,0 -12.32,1.1 -18.28,3.3 -20.53,7.6 -33.72,26.5 -33.61,48.1 1.33,257.1 115.9,499.9 314.32,666 150.01,125.6 323.86,186 465.09,161.6 v 0 c 93.51,-16.2 167.26,-74 202.36,-158.6 28.62,-68.9 25.02,-145.1 -9.33,-193.9 -67.81,-96.6 -188.21,-135.8 -327.6,-181.2 -178.89,-58.2 -381.64,-124.3 -552.89,-326.8 -10.09,-11.9 -24.89,-18.5 -40.06,-18.5"
         style="fill:#262321;fill-opacity:1;fill-rule:nonzero;stroke:none"
         id="path124" />
      <path
         d="m 10680.2,3269.1 c -155.4,118.9 -546.9,28 -721.79,-322.8 -2,-4 2.38,-8.2 6.38,-6.2 323.51,162.6 566.61,-13.4 720.11,81.2 58.9,36.3 90.2,175.1 -4.7,247.8"
         style="fill:#595552;fill-opacity:1;fill-rule:nonzero;stroke:none"
         id="path126" />
      <path
         d="m 9991.44,2952.8 c 310.26,140.3 544.16,-23.5 693.46,68.5 30.7,18.9 53.9,65.8 55.6,116.6 -73.4,-57.7 -146,-25.7 -306.4,-17.9 -171.7,8.4 -331.4,-33.7 -442.66,-167.2"
         style="fill:#44403d;fill-opacity:1;fill-rule:nonzero;stroke:none"
         id="path128" />
      <path
         d="m 10508.6,3273.4 c -31.5,0 -65.3,-4 -100.2,-12.1 -135.4,-31.3 -259.3,-115.9 -347.2,-233.9 147.2,44.6 275.4,30.3 382.7,18.4 92,-10.3 164.7,-18.4 217.3,14 15.1,9.3 32.1,39.6 34,77.3 1.2,22.8 -2.8,65.7 -42.5,96 -34.6,26.5 -85.4,40.3 -144.1,40.3 z m -545.95,-379 c -12.94,0 -25.69,5 -35.3,14.6 -15.22,15.2 -19,38.3 -9.42,57.5 96.77,194.1 272.47,337.3 470.07,383 127.6,29.5 244.2,13.3 319.7,-44.5 v 0 c 53,-40.6 81.4,-103.4 77.9,-172.5 -3.3,-64.1 -33.5,-122.9 -76.9,-149.7 -79.1,-48.7 -169.8,-38.6 -274.8,-26.9 -129.4,14.4 -275.9,30.7 -448.8,-56.2 -7.15,-3.6 -14.83,-5.3 -22.45,-5.3"
         style="fill:#262321;fill-opacity:1;fill-rule:nonzero;stroke:none"
         id="path130" />
      <path
         d="M 22640.6,10889.5 C 21472.3,10604 20434.5,9189.3 20034,7927.6 19601.3,6564.5 20089.6,4388.8 21628.4,3649.8 20721,3761.2 19477,3535 19337.6,3337.1 c -157.5,-223.4 -84.9,-449.5 124.3,-463.6 -197.8,-192.3 -516.4,-378.9 -407.1,-655.9 70.5,-178.7 486.3,-175.3 797.3,-39.6 -164,-203.5 182.8,-610.6 757.7,-294 1.8,-241.3 269.5,-404.3 571,-401.5 233.6,2.2 532.3,77.3 1097,175.3 535.2,92.9 2872.3,356.2 3731.7,893.4 740,462.4 681.9,1095 531.5,1543.6 -120.6,360 -474.9,861.3 -588,1008.3 769,1104.4 1435.5,2562.6 1080,3545.3 l -4392.4,2241.1"
         style="fill:#986759;fill-opacity:1;fill-rule:nonzero;stroke:none"
         id="path132" />
      <path
         d="m 20813.6,2767.3 c 333.8,79.3 797.7,87 940.2,59.1 -442.7,147.3 -979.8,172.7 -1432.1,-33.7 -406.8,-185.5 -997.4,-587.6 -1273.2,-370.9 -21.3,-62.9 -22.8,-130.3 6.3,-204.2 68.6,-173.7 463.5,-175.3 771.1,-50.5 251.4,271.5 675.6,526 987.7,600.2"
         style="fill:#83574e;fill-opacity:1;fill-rule:nonzero;stroke:none"
         id="path134" />
      <path
         d="m 19461.9,2873.5 c -2.2,-2.2 -4.5,-4.3 -6.7,-6.5 l 111.1,44.8 c 0,0 883.9,437.3 1492.5,321.7 -426.2,184 -884.2,138.8 -1164,31.4 -213.7,-82.1 -463.8,-140.8 -632.3,-87.4 -39.1,-160.8 40.9,-293.3 199.4,-304"
         style="fill:#83574e;fill-opacity:1;fill-rule:nonzero;stroke:none"
         id="path136" />
      <path
         d="m 24862.9,3021.7 c 211.1,-211.1 -145.1,-548.4 -1123.3,-748.9 -680,-139.3 -1287.3,-220.4 -1667,-297.1 -304.5,-61.5 -1270.3,-404.3 -1462.8,-91.7 1.8,-241.3 269.5,-404.3 571,-401.5 233.6,2.2 532.3,77.3 1097,175.3 535.2,92.9 2872.3,356.2 3731.7,893.4 740,462.4 681.9,1095 531.5,1543.6 -120.6,360 -474.9,861.3 -588,1008.3 769,1104.4 1435.5,2562.6 1080,3545.3 36.8,-1172.2 -843.2,-2487.9 -1868.5,-3376.3 -848.1,-734.9 -1939.4,-972.5 -3019,-790 -893.5,151.2 -1924.3,614.4 -2259.6,2249.5 41.7,-1175.9 577.6,-2467.7 1656.2,-3038 l 86.3,-43.8 c 0,0 448.9,-371.7 1361.1,-522.5 912.2,-150.8 1623,144.9 1873.4,-105.6"
         style="fill:#83574e;fill-opacity:1;fill-rule:nonzero;stroke:none"
         id="path138" />
      <path
         d="m 22072.6,2381.6 c -439.2,145.4 -902.8,74.7 -1143.1,1.2 -240.3,-73.5 -395.8,-195.1 -590.9,-294 -173.5,-88.1 -411.9,-197.9 -526.1,-47 20.5,-199.2 335.1,-412.4 797.3,-157.8 169.8,168 543.2,384.8 879.5,453.6 336.2,68.8 583.3,44 583.3,44"
         style="fill:#83574e;fill-opacity:1;fill-rule:nonzero;stroke:none"
         id="path140" />
      <path
         d="m 21173.2,1437.3 c -193.9,0 -376.3,65.7 -489.1,176.6 -59.1,58.1 -97.2,126.2 -112.2,199.7 -334.7,-160.3 -606.6,-87.8 -733.1,62.9 -57.2,68.2 -80.9,148.3 -69.7,221.4 -222.9,-73.7 -469.9,-85.2 -618.6,-23.7 -69.5,28.7 -115.9,71.4 -137.7,126.8 -100,253.5 110.2,435.2 295.6,595.5 20.5,17.7 40.4,34.9 59.7,51.9 -59.3,23.6 -106,66.4 -133.6,124.1 -52.8,111 -28.1,257 66.1,390.7 114,161.8 708.2,263.6 887.6,291 417.1,63.6 850.3,84.6 1222.8,61 -619,368.4 -1098.4,1008.2 -1362.2,1825.6 -258.8,802 -280.5,1699.4 -57.9,2400.5 205,645.9 568.3,1303 1022.9,1850.2 275.7,331.9 571.1,604 871.5,814.8 337.4,236.8 755.3,283.2 755.3,283.2 -1185.3,-385.9 -2186.8,-1789 -2563.5,-2975.6 C 19626.1,6493 20202,4385 21648,3690.6 l 246.3,-141.5 -271.4,55.9 c -935.7,114.7 -2132.2,-129.1 -2248.4,-293.9 -75.1,-106.6 -96.9,-218.6 -58.3,-299.6 26.3,-55.2 79.1,-88.2 148.8,-92.9 l 101.3,-6.8 -72.8,-70.8 c -39.1,-37.9 -83.3,-76.1 -125.9,-113 -178.5,-154.3 -347.1,-300 -270.7,-493.8 12.5,-31.7 42.2,-57.4 88.1,-76.4 148.7,-61.4 427.7,-34.9 649,61.7 l 169,73.7 -115.7,-143.6 c -47.5,-58.9 -39.3,-143.3 20.8,-214.9 110.1,-131.3 363,-185.6 679.8,-11.1 l 66.5,36.6 0.6,-75.9 c 0.6,-75.7 32.6,-146.9 92.5,-205.9 97.6,-95.9 259.3,-152.5 432.9,-150.6 157.2,1.4 347.2,37.2 634.8,91.5 131,24.7 279.6,52.7 454.8,83.1 85.8,14.9 215.9,33.9 380.5,57.9 850.6,124.2 2620.5,382.6 3335.1,829.2 563.1,352 730.8,839.7 512.6,1490.9 -116.8,348.6 -459,836.5 -581,995.1 l -20.2,26.3 18.9,27.2 c 293.7,421.8 698.3,1078.1 957.6,1809.4 242.5,683.8 296.1,1259.1 159.5,1710 0,0 203.1,-216.9 143.1,-861.9 -25.2,-270.9 -105.7,-563.3 -217.4,-878.3 -257.2,-725.3 -654.6,-1376.8 -949.8,-1803.9 138.5,-184.5 460.2,-652.5 575,-995.1 230.3,-687.1 45.1,-1224.2 -550.4,-1596.4 -730.7,-456.7 -2513.2,-716.9 -3369.9,-842 -164,-24 -293.5,-42.9 -378.1,-57.6 -174.6,-30.3 -322.8,-58.2 -453.6,-82.8 -292.3,-55.1 -485.5,-91.5 -650.6,-93.1 -2.7,0 -5.4,0 -8.1,0"
         style="fill:#281912;fill-opacity:1;fill-rule:nonzero;stroke:none"
         id="path142" />
      <path
         d="m 25301.6,4537.2 c 4.3,3 431.8,299.9 613,589.9 l 76.8,-47.9 c -308.3,-421.9 -689.8,-542 -689.8,-542"
         style="fill:#281912;fill-opacity:1;fill-rule:nonzero;stroke:none"
         id="path144" />
      <path
         d="m 23667.6,2996.2 c -202.4,0 -412.9,17.3 -626.3,52.4 -563.1,92.5 -1082.8,296.2 -1463.3,573.6 l 53.3,73.1 c 817.9,-503.6 2086.3,-772 2932.4,-468.3 0,0 -200,-197.2 -896.1,-230.8"
         style="fill:#281912;fill-opacity:1;fill-rule:nonzero;stroke:none"
         id="path146" />
      <path
         d="m 20640.6,1850.9 -61.7,66.2 c 235.9,220 543.1,353.4 817.2,434 352.5,103.6 676.5,30.5 676.5,30.5 -9.1,-0.4 -917.2,-50.5 -1432,-530.7"
         style="fill:#281912;fill-opacity:1;fill-rule:nonzero;stroke:none"
         id="path148" />
      <path
         d="m 19886.9,2149.1 -69.6,57.8 c 305.2,368.2 814.9,549.6 1191.7,622.2 278.8,53.7 744.8,-2.7 744.8,-2.7 -13.1,0 -1312.4,-8.3 -1866.9,-677.3"
         style="fill:#281912;fill-opacity:1;fill-rule:nonzero;stroke:none"
         id="path150" />
      <path
         d="m 19483.8,2833.9 -43.7,79.2 c 348.5,191.9 700.2,294.5 986.6,349.3 359.5,68.8 632.1,-28.9 632.1,-28.9 -8.1,0.2 -811.7,20.5 -1575,-399.6"
         style="fill:#281912;fill-opacity:1;fill-rule:nonzero;stroke:none"
         id="path152" />
      <path
         d="m 19345.5,3220.3 c -172.4,84 -701.7,-167 -859.9,-615.4 -3.1,-8.7 6.8,-16.3 14.5,-11.1 239.2,161.4 815.5,257 887.1,310.8 116.2,87.4 57.7,267.3 -41.7,315.7"
         style="fill:#595552;fill-opacity:1;fill-rule:nonzero;stroke:none"
         id="path154" />
      <path
         d="m 18486.2,2597.4 c 2.4,-4.7 8.6,-7.1 13.9,-3.6 239.2,161.4 815.5,257 887.1,310.8 71.2,53.6 76.8,141.8 47.6,213.2 -355.4,-81 -699.5,-244.3 -948.6,-520.4"
         style="fill:#44403d;fill-opacity:1;fill-rule:nonzero;stroke:none"
         id="path156" />
      <path
         d="m 19262.3,3191.1 c -45.3,0 -107.9,-11.8 -186.5,-44 -167.7,-68.8 -388.4,-227.7 -507.1,-462.6 161.3,78.6 386.4,138.6 558.9,184.7 99.6,26.6 212.5,56.7 232.5,71.6 43.1,32.4 48.5,77.8 45.4,110.1 -5.3,54.7 -38.8,108.8 -79.8,128.8 v 0 c -14.3,7 -35.6,11.4 -63.4,11.4 z m -767.6,-644.2 c -11.9,0 -23.7,3.9 -33.6,11.5 -18.7,14.5 -26,39.2 -18.1,61.6 111.2,315.3 391.9,526.1 598.4,610.8 133.2,54.6 251.3,65.6 323.9,30.2 v 0 c 69.6,-33.9 121.9,-114.8 130.2,-201.4 7.4,-77.1 -22.1,-146.8 -81.1,-191.1 -32.3,-24.4 -108.3,-45.3 -263.4,-86.7 -203.5,-54.3 -482.1,-128.7 -625.6,-225.5 -9.3,-6.3 -20,-9.4 -30.7,-9.4"
         style="fill:#262321;fill-opacity:1;fill-rule:nonzero;stroke:none"
         id="path158" />
      <path
         d="m 19430,2573.2 c -174.1,90.8 -723.1,-151.4 -897.5,-606 -3.4,-8.9 6.5,-16.9 14.5,-11.8 249.4,158.5 842.1,240.3 916.9,293.4 121.4,86.3 66.5,272.1 -33.9,324.4"
         style="fill:#595552;fill-opacity:1;fill-rule:nonzero;stroke:none"
         id="path160" />
      <path
         d="m 18532,1965 c -1.2,-7.9 7.6,-14.3 15,-9.6 249.4,158.5 842.1,240.3 916.9,293.4 63.9,45.4 78.9,118.3 64.2,184.9 -321.3,0 -740,-204.1 -996.1,-468.7"
         style="fill:#44403d;fill-opacity:1;fill-rule:nonzero;stroke:none"
         id="path162" />
      <path
         d="m 19337.5,2547 c -50.8,0 -116.1,-13.8 -186.1,-40.2 -174.4,-66.1 -406.3,-223.8 -534.1,-462.8 167.4,76.5 401.1,132.1 580.1,174.7 102.9,24.5 219.5,52.2 240.3,67 45.5,32.4 52.3,79 50,112.5 -3.8,56.4 -36.9,113.2 -78.6,134.9 v 0 c -17.8,9.3 -42.3,13.9 -71.6,13.9 z m -795.8,-638.4 c -12.4,0 -24.8,4.2 -34.9,12.4 -18.4,15.1 -25.1,40.1 -16.5,62.4 122.5,319.3 415.4,527.1 629.1,608 137.6,52 258.4,60.1 331.5,21.9 70,-36.4 121,-120.4 127.1,-208.9 5.4,-78.8 -26.6,-148.9 -87.9,-192.4 -33.6,-23.9 -111.9,-43.3 -271.8,-81.3 -209.9,-49.9 -497.3,-118.3 -647,-213.5 -9.1,-5.8 -19.4,-8.6 -29.6,-8.6"
         style="fill:#262321;fill-opacity:1;fill-rule:nonzero;stroke:none"
         id="path164" />
      <path
         d="m 20021.5,2147.7 c -158.9,57.4 -599.2,-212.4 -695.7,-620.2 -1.9,-8 7.5,-13.7 13.8,-8.4 194.4,163.9 690.5,301.9 748.2,355.9 93.6,87.5 25.4,239.6 -66.3,272.7"
         style="fill:#595552;fill-opacity:1;fill-rule:nonzero;stroke:none"
         id="path166" />
      <path
         d="m 19344,1522.7 c 197.4,162.4 686.5,298.7 743.8,352.3 51.9,48.5 54,116.9 30,173.8 -299.2,-106.9 -627.2,-269.1 -773.8,-526.1"
         style="fill:#44403d;fill-opacity:1;fill-rule:nonzero;stroke:none"
         id="path168" />
      <path
         d="m 19971.9,2110.2 c -39.7,0 -99.9,-14.9 -177.3,-56.8 -136.4,-73.8 -308.9,-227.3 -392.6,-435.4 133.5,80.8 317.5,151.7 459.7,206.5 83.7,32.2 178.6,68.8 195.2,83.6 32.9,30.7 33.3,69 27.8,95.7 -9.4,45.7 -42.4,88.3 -78.5,101.4 v 0 c -8.8,3.1 -20.3,5 -34.3,5 z m -637.8,-638.3 c -9.8,0 -19.5,2.6 -28.2,7.9 -19.8,12.2 -29.4,35.5 -24.1,58.1 68.2,288.5 295.7,500.9 469.7,595.1 114.6,62 216,82.3 285.4,57.3 v -0.1 c 65.8,-23.7 120.7,-91.3 136.4,-168.2 14.2,-68.7 -5.8,-134.4 -54.6,-180.1 -26.8,-25.1 -91.8,-50.7 -224.5,-101.9 -172.8,-66.5 -409.5,-157.7 -525.5,-255.5 -10,-8.4 -22.3,-12.6 -34.6,-12.6"
         style="fill:#262321;fill-opacity:1;fill-rule:nonzero;stroke:none"
         id="path170" />
      <path
         d="m 21018.4,1839.3 c -142.1,91.5 -631.6,-73.1 -816.6,-449.1 -3.7,-7.4 4.2,-15 11.5,-11.2 226.1,116.3 740.5,140 808.8,179.7 110.8,64.4 78.2,227.9 -3.7,280.6"
         style="fill:#595552;fill-opacity:1;fill-rule:nonzero;stroke:none"
         id="path172" />
      <path
         d="m 20204.5,1395.4 c -0.9,-1.8 -1.9,-3.4 -2.7,-5.2 -3.7,-7.4 4.2,-15 11.5,-11.2 226.1,116.3 740.5,140 808.8,179.7 58.3,33.9 76.8,95.2 69.5,153.4 -318.6,-25.4 -648.1,-103 -887.1,-316.7"
         style="fill:#44403d;fill-opacity:1;fill-rule:nonzero;stroke:none"
         id="path174" />
      <path
         d="m 20910.3,1819 c -35.4,0 -80.2,-5.9 -134.2,-20.9 -149.4,-41.5 -351.8,-152.5 -479.9,-336.7 148.2,49 343.4,76.9 494.2,98.6 88.8,12.7 189.4,27.1 209,37.8 38.9,22.7 47.9,59.9 48.5,87.2 1,46.6 -21.7,95.5 -54,116.3 v 0 c -15.9,10.2 -43.8,17.7 -83.6,17.7 z m -701,-486.2 c -13.7,0 -27.3,5.2 -37.6,15.4 -16.5,16.2 -20.8,41.1 -10.5,62 130.9,266 400,422.1 590.7,475.1 125.6,34.8 228.9,32 291,-7.9 58.8,-37.9 97.2,-116 95.4,-194.5 -1.6,-70.1 -35.7,-129.7 -93.5,-163.3 -31.7,-18.5 -100.8,-29 -241.6,-49.2 -183.3,-26.3 -434.4,-62.3 -569.2,-131.7 -7.9,-4 -16.3,-5.9 -24.7,-5.9"
         style="fill:#262321;fill-opacity:1;fill-rule:nonzero;stroke:none"
         id="path176" />
      <path
         d="m 8613.37,21605.9 c 208.86,296.4 768.97,1032.9 1507.83,927.3 699.8,-99.9 1078,-995.1 980,-1681.2 -101,-707.4 -678.5,-1341.9 -1236.23,-1711.3 -122.04,-80.8 -1251.6,2465.2 -1251.6,2465.2"
         style="fill:#986759;fill-opacity:1;fill-rule:nonzero;stroke:none"
         id="path178" />
      <path
         d="m 10324.2,22479.1 c 897,-1298.8 -339.42,-2473.8 -860.63,-2690.3 195.55,-388.2 359.07,-676.1 401.39,-648.1 557.74,369.4 1135.24,1003.9 1236.24,1711.4 88.1,616.3 -208.3,1401.3 -777,1627"
         style="fill:#83574e;fill-opacity:1;fill-rule:nonzero;stroke:none"
         id="path180" />
      <path
         d="m 8665.17,21600.8 c 51.56,-115.7 285.9,-639.6 535.58,-1167.7 469.79,-993.5 615.09,-1200.5 657.62,-1242.4 516.83,347.7 1097.53,964.1 1198.13,1667.7 47.8,335 -21.8,721.2 -186.1,1032.9 -179.9,341.2 -448.2,553.2 -755.6,597.2 -338.75,48.3 -864.05,-67.3 -1449.63,-887.7 z m 1193.41,-2507.2 c -5.8,0 -11.71,0.8 -17.62,2.6 -40.37,11.7 -124.39,36.3 -711.27,1275.6 -286.02,604 -554.99,1209.7 -557.67,1215.8 l -10.4,23.4 14.77,21 c 68.42,97.1 276.62,392.5 563.78,623.6 324.65,261.1 656.85,369.6 987.43,322.4 710,-101.4 1123.3,-998.3 1018.4,-1732.4 -105.9,-741.6 -718.3,-1386.4 -1256.06,-1742.6 -9.41,-6.2 -20.17,-9.4 -31.36,-9.4"
         style="fill:#281912;fill-opacity:1;fill-rule:nonzero;stroke:none"
         id="path182" />
      <path
         d="m 10417.2,20657 c -190.4,-446.9 -593.15,-703.4 -899.63,-572.9 -306.47,130.5 -400.58,598.7 -210.2,1045.7 190.39,446.9 593.17,703.4 899.63,572.9 306.5,-130.5 400.6,-598.7 210.2,-1045.7"
         style="fill:#402921;fill-opacity:1;fill-rule:nonzero;stroke:none"
         id="path184" />
      <path
         d="m 10403.3,21536 c -49.9,74.5 -115.7,132.4 -196.3,166.7 -306.46,130.5 -709.24,-126 -899.63,-572.9 -185.77,-436.2 -100.55,-892.3 188.42,-1035.5 6.09,312.2 -29.8,671.5 104.5,956.9 130.8,272.5 346.79,565.4 803.01,484.8"
         style="fill:#281912;fill-opacity:1;fill-rule:nonzero;stroke:none"
         id="path186" />
      <path
         d="m 10036.9,21691.6 c -95.81,0 -198.06,-32.7 -298.94,-96.9 -162.3,-103.4 -300.44,-274.8 -388.97,-482.6 -180.31,-423.4 -96.73,-865.8 186.31,-986.4 283.03,-120.5 660,125.8 840.3,549.1 180.3,423.3 96.7,865.7 -186.3,986.3 -47.9,20.4 -99.2,30.5 -152.4,30.5 z m -351.56,-1686.3 c -63.84,0 -126.29,12 -185.49,37.2 -328.93,140.1 -433.95,635.8 -234.1,1105 95.63,224.5 246.07,410.4 423.61,523.5 182.89,116.4 373.04,142.5 535.34,73.3 329,-140.1 434,-635.8 234.1,-1105 -163.8,-384.7 -482.65,-634 -773.46,-634"
         style="fill:#281912;fill-opacity:1;fill-rule:nonzero;stroke:none"
         id="path188" />
      <path
         d="m 1575.96,19681.2 c -293.1,164.2 -938.827,680.8 -968.983,1532.7 -22.668,640.3 324.175,1213.8 805.583,1352.3 517,148.7 1097.33,-304.5 1331.04,-711.6 72.87,-126.9 -1167.64,-2173.4 -1167.64,-2173.4"
         style="fill:#986759;fill-opacity:1;fill-rule:nonzero;stroke:none"
         id="path190" />
      <path
         d="m 919.164,21522.4 c -51.781,289.9 10.281,570.4 125.316,832.7 -278.792,-254.3 -453.812,-680.4 -437.503,-1141.2 30.156,-851.9 675.883,-1368.5 968.983,-1532.7 0,0 158.69,261.8 359.2,603.9 -501.32,264.5 -932.86,647 -1015.996,1237.3"
         style="fill:#83574e;fill-opacity:1;fill-rule:nonzero;stroke:none"
         id="path192" />
      <path
         d="m 1622.53,22550.1 c -64.63,0 -130.8,-8.2 -197.46,-27.4 -462.293,-133 -794.558,-694.9 -772.886,-1307.2 31.035,-876.8 721.266,-1358.1 908.176,-1472.6 75.49,125.2 324.15,539.5 568.52,966.7 523.2,914.5 572.19,1093 572.65,1127.4 -120.24,207.1 -322,409.9 -540.75,543.2 -137.5,83.8 -329.67,169.9 -538.25,169.9 z m -30.55,-2929.7 -38.13,21.4 c -78.47,43.9 -353.41,211.3 -596.518,519.9 -248.98,316 -382.07,669.5 -395.562,1050.6 -11.235,317.4 66.953,633.2 220.156,889.2 154.008,257.3 373.534,437.8 618.134,508.1 563.39,162.1 1158.19,-341.3 1382.77,-732.5 21.86,-38 58.43,-101.8 -556.44,-1179.2 -297.87,-522 -608.65,-1035 -611.75,-1040.1 l -22.66,-37.4"
         style="fill:#281912;fill-opacity:1;fill-rule:nonzero;stroke:none"
         id="path194" />
      <path
         d="m 2235.4,21477.8 c 252.41,-386.1 206.83,-475.6 11.3,-727.5 -195.52,-252 -450.99,-465.1 -710.12,-83.5 -243.6,358.6 -296.33,728.1 -138.01,1007 157.42,277.4 580.5,196 836.83,-196"
         style="fill:#402921;fill-opacity:1;fill-rule:nonzero;stroke:none"
         id="path196" />
      <path
         d="m 2014.88,21380.2 c 149.55,-168.2 278.22,-252.3 351.74,-457.3 78.92,146.5 55.13,269.9 -131.22,554.9 -256.33,392 -679.41,473.4 -836.83,196 -15.36,-27.1 -28.68,-55 -40.08,-83.7 195.9,154.9 465.35,41.6 656.39,-209.9"
         style="fill:#281912;fill-opacity:1;fill-rule:nonzero;stroke:none"
         id="path198" />
      <path
         d="m 1684.91,21792.3 c -3.71,0 -7.37,-0.1 -11.06,-0.2 -103.98,-3.2 -185.57,-51.9 -235.94,-140.6 -149.12,-262.8 -99.52,-612.4 136.09,-959.3 82.89,-122.1 169.26,-185.4 256.69,-188.2 110.02,-3.2 234.51,86.2 380.28,274 178.4,229.9 232.24,299.3 -13.44,675 -135.54,207.3 -335.56,339.3 -512.62,339.3 z m 152.05,-1378.8 c -3.04,0 -6.08,0 -9.14,0.1 -118,3.8 -228.58,80.4 -328.67,227.7 -255.69,376.5 -306.69,761 -139.92,1054.8 65.82,116 176.54,182.2 311.78,186.4 213.89,7 444.59,-138.8 602.24,-380 v 0 c 267.38,-408.9 211.15,-519.7 9.19,-780 -103.43,-133.2 -261.41,-309 -445.48,-309"
         style="fill:#281912;fill-opacity:1;fill-rule:nonzero;stroke:none"
         id="path200" />
      <path
         d="m 1071.57,18998 c 471.18,-24.7 929.73,-1508.3 1718.88,-1457.4 497.57,180.9 833.06,1019.6 1967.67,966.8 1165.95,-54.2 1454.54,-961.6 2084.53,-1047.9 550.34,-75.4 1010.88,147.9 1495.43,610.7 450.83,430.5 764.63,913.5 1101.75,1098.8 218.46,120 518.46,147.9 818.47,98.8 -12.4,29.2 -25.1,58.5 -38.2,87.8 -247.26,551.5 -893.36,2974.1 -2974.11,3799.6 -1254.16,497.6 -3155.07,448.6 -4319.84,-569.2 -642.57,-561.5 -827.11,-1122.6 -1308.01,-1884.7 -357.42,-566.5 -690.199,-1177.4 -881.437,-1815 105.188,74.4 218.649,117.8 334.867,111.7"
         style="fill:#986759;fill-opacity:1;fill-rule:nonzero;stroke:none"
         id="path202" />
      <path
         d="m 10258.3,19267.8 c -12.4,29.2 -25.1,58.5 -38.2,87.8 -247.26,551.5 -893.36,2974.1 -2974.11,3799.6 -347.45,137.9 -744.58,233.7 -1161.9,278.6 1764.85,-377.3 2398.95,-1454.9 2778.06,-2320.7 170.37,-389 440.55,-1129.6 569.51,-1948.8 2.72,1.5 5.44,3.2 8.17,4.7 218.46,120 518.46,147.9 818.47,98.8"
         style="fill:#83574e;fill-opacity:1;fill-rule:nonzero;stroke:none"
         id="path204" />
      <path
         d="m 4648.49,18555 c 33.71,0 68.08,-0.7 103.25,-2.4 704.26,-32.7 1104.62,-377.7 1426.31,-654.9 224.09,-193.1 417.62,-359.9 662.26,-393.4 502.8,-68.8 952.5,115.7 1458.05,598.6 174.77,166.9 326.2,338.8 472.63,505.1 228.73,259.7 426.27,484 638.57,600.6 201.13,110.5 470.95,150.7 766.64,115.3 -2,4.4 -3.9,8.8 -5.8,13.2 -32.8,73.1 -71.5,175.8 -120.4,305.9 -310.69,825.8 -1038.23,2759.6 -2829.18,3470.2 -1210.61,480.2 -3119.74,446.8 -4273.39,-561.3 -452.95,-395.7 -679.04,-797.9 -940.82,-1263.5 -108.43,-192.9 -220.56,-392.3 -358.7,-611.3 -405.81,-643.1 -675.16,-1184.2 -841.043,-1691.2 86.707,42.5 173.332,61.8 258.593,57.3 222.16,-11.7 422.97,-290 655.48,-612.3 293.7,-407 626.29,-868 1051.65,-845.6 154.9,58.3 295.23,184.8 457.42,330.9 317.34,286 708.83,638.8 1418.48,638.8 z M 7042.4,17399.7 c -70.54,0 -141.9,5.1 -214.37,15 -271.14,37.1 -474.07,212 -709.03,414.5 -327.36,282 -698.4,601.7 -1371.46,633 -738.49,34.3 -1120.18,-309.6 -1456.96,-613.2 -164.2,-148 -319.29,-287.7 -493.15,-351 l -6.09,-2.2 -6.46,-0.4 c -478.17,-30.8 -828.39,454.4 -1137.3,882.6 -209.8,290.8 -407.97,565.4 -586.87,574.8 -98.862,5.3 -201.917,-29.6 -306.374,-103.4 l -107.137,-75.8 37.696,125.7 c 164.296,547.7 445.995,1128 886.505,1826.1 136.92,217 248.47,415.4 356.35,607.3 265.87,472.9 495.49,881.4 960.16,1287.4 549.08,479.8 1293.12,778.4 2151.69,863.8 758.32,75.3 1565.51,-29.1 2214.58,-286.6 786.44,-312.1 1461.62,-889 2006.78,-1714.8 450.22,-682 715.31,-1386.7 873.74,-1807.7 48.3,-128.6 86.5,-230.1 118.2,-300.7 12.6,-28.2 25.6,-58 38.6,-88.6 l 32,-75.6 -81,13.3 c -302.87,49.6 -590.6,15.3 -789.37,-93.9 -198.44,-109 -391.13,-327.8 -614.24,-581.1 -147.71,-167.7 -300.45,-341.1 -478.05,-510.7 -455.61,-435.2 -870.47,-637.8 -1318.44,-637.8"
         style="fill:#281912;fill-opacity:1;fill-rule:nonzero;stroke:none"
         id="path206" />
      <path
         d="m 6672.08,21379.8 c 196.01,542.8 762.78,694.4 1149.69,557.9 512.65,-181 972.53,-874.6 1040.38,-1326.9 -569.19,727.5 -1590.72,1025.3 -2190.07,769"
         style="fill:#402921;fill-opacity:1;fill-rule:nonzero;stroke:none"
         id="path208" />
      <path
         d="m 6301.85,17807.9 c -60.2,5.9 -121.2,13 -182.89,21.2 -12.91,54.2 -23.8,111.3 -32.71,170.8 -104.9,701.5 74.9,1728.4 681,2107.6 3.9,2.5 7.91,4.9 11.9,7.4 1.81,1.1 3.61,2.2 5.41,3.3 6.2,3.7 12.39,7.3 18.7,10.9 60.99,34.7 120.8,63.7 179.19,87.3 10,4.1 19.9,8 29.8,11.8 39.31,14.9 78.01,27.4 115.9,37.6 12.01,3.2 23.91,6.2 35.81,9 60,14.1 118.2,22.4 174.59,25.5 505,27.7 854.91,-365.2 954.3,-811.4 306.71,-1376.6 -648.29,-1814 -1991,-1681"
         style="fill:#ffffff;fill-opacity:1;fill-rule:nonzero;stroke:none"
         id="path210" />
      <path
         d="m 8310.65,19391.5 c -163.1,510.3 -670.39,892.3 -1348.59,494.4 -561.2,-329.3 -733.6,-1372.3 -660.21,-2078 -60.2,5.9 -121.2,13 -182.89,21.2 -12.91,54.2 -23.8,111.3 -32.71,170.8 -66.4,720.9 114.8,1748.6 681,2107.6 3.9,2.5 7.91,4.9 11.9,7.4 1.81,1.1 3.61,2.2 5.41,3.3 6.2,3.7 12.39,7.3 18.7,10.9 60.99,34.7 120.8,63.7 179.19,87.3 10,4.1 19.9,8 29.8,11.8 39.31,14.9 78.01,27.4 115.9,37.6 12.01,3.2 23.91,6.2 35.81,9 60,14.1 118.2,22.4 174.59,25.5 506.3,28.3 857.91,-364.3 954.3,-811.4 7,-32.6 12.91,-65.1 17.8,-97.4"
         style="fill:#e5e5e5;fill-opacity:1;fill-rule:nonzero;stroke:none"
         id="path212" />
      <path
         d="m 8091.56,18786.4 c 0,-213.1 -46.11,-412.1 -125.8,-580.6 -26.41,-29.3 -54.11,-57.6 -83.1,-85 -70.71,-50.1 -150.21,-93.8 -238.21,-130.9 -203.3,-85.9 -451.4,-136.8 -739,-150.7 -24.2,-1.2 -48.7,-2.1 -73.5,-2.7 -247.8,190.9 -414.1,544.8 -414.1,949.9 0,607.9 374.7,1100.6 836.81,1100.6 462.19,0 836.9,-492.7 836.9,-1100.6"
         style="fill:#604b3b;fill-opacity:1;fill-rule:nonzero;stroke:none"
         id="path214" />
      <path
         d="m 8091.52,18786.4 c 0,607.9 -374.66,1100.7 -836.83,1100.7 -462.16,0 -836.82,-492.8 -836.82,-1100.7 294.99,730.6 1220.66,866.3 1673.65,0"
         style="fill:#48382c;fill-opacity:1;fill-rule:nonzero;stroke:none"
         id="path216" />
      <path
         d="m 6885.69,18660.7 c 0,0 -300,-111 -102.85,-481.6 197.15,-370.7 715.65,-435.5 967.83,-64.4 252.17,371.1 68.77,715.6 -99.18,694.6 -167.95,-21 -765.8,-148.6 -765.8,-148.6"
         style="fill:#bfb7b1;fill-opacity:1;fill-rule:nonzero;stroke:none"
         id="path218" />
      <path
         d="m 7797.59,18847 c 53.54,-370 -143.07,-714.6 -439.15,-769.7 -296.07,-55.1 -579.48,200.2 -633.02,570.2 -53.54,370 143.07,714.6 439.15,769.7 296.07,55.1 579.49,-200.2 633.02,-570.2"
         style="fill:#1a1a1a;fill-opacity:1;fill-rule:nonzero;stroke:none"
         id="path220" />
      <path
         d="m 6636.82,19099.5 c 16.78,-119.9 126.83,-199.5 245.8,-177.9 118.96,21.7 201.8,136.4 185.02,256.2 -16.78,119.9 -126.83,199.5 -245.79,177.9 -118.97,-21.7 -201.81,-136.4 -185.03,-256.2"
         style="fill:#ffffff;fill-opacity:1;fill-rule:nonzero;stroke:none"
         id="path222" />
      <path
         d="m 7492.96,18338.4 c 11.25,-80.4 85.8,-133.7 166.53,-119.1 80.73,14.7 137.07,91.8 125.83,172.3 -11.25,80.4 -85.8,133.7 -166.53,119 -80.73,-14.6 -137.07,-91.7 -125.83,-172.2"
         style="fill:#ffffff;fill-opacity:1;fill-rule:nonzero;stroke:none"
         id="path224" />
      <path
         d="m 7254.66,19932.3 c -486.3,0 -882,-514.1 -882,-1145.9 0,-390.3 152.6,-743.1 389.79,-951.1 23.41,0.1 46.61,0.5 69.5,1.2 24.8,0.6 49.3,1.5 73.5,2.7 -265.1,174 -442.4,537.9 -442.4,947.2 0,581.9 355.21,1055.4 791.61,1055.4 436.49,0 791.59,-473.5 791.59,-1055.4 0,-196.8 -40.99,-388.6 -118.59,-555.3 -82.71,-90.8 -177.71,-171.6 -283.21,-241.2 88,37.1 167.5,80.8 238.21,130.9 57.19,40.5 108.49,85.2 153.8,134 65.79,163.3 100.29,345.5 100.29,531.6 0,631.8 -395.7,1145.9 -882.09,1145.9"
         style="fill:#30261e;fill-opacity:1;fill-rule:nonzero;stroke:none"
         id="path226" />
      <path
         d="m 8244.06,19478 c -85.8,385.1 -383.61,773.7 -855.41,773.7 -178,0 -366.7,-55.9 -560.7,-166 -296.8,-168.5 -523.8,-523.7 -639.2,-1000.1 -95.7,-395.2 -106.3,-855.5 -28.8,-1211.4 204.2,-25.9 398.8,-39 578.9,-39 7.9,0 15.81,0 23.6,0.1 23.41,0.1 46.61,0.5 69.5,1.2 24.8,0.6 49.3,1.5 73.5,2.7 287.6,13.9 535.7,64.8 739,150.7 88,37.1 167.5,80.8 238.21,130.9 57.19,40.5 108.49,85.2 153.8,134 15.19,16.3 29.69,33 43.49,50.2 220.91,275.6 276.1,670.3 164.11,1173 z M 6738.83,17735.2 c -194.56,0 -405.32,14.9 -626.44,44.4 l -34.07,4.5 -7.97,33.5 c -90.53,380.2 -82.59,863.1 21.24,1291.6 121.98,503.5 365.96,881.1 686.99,1063.4 209.27,118.9 414.53,179.1 610.06,179.1 527.18,0 858.5,-427.9 953,-851.9 118.97,-533.9 57.16,-956.9 -183.7,-1257.3 -138.22,-172.4 -335.26,-303 -585.63,-388 -233.09,-79.2 -513.51,-119.3 -833.48,-119.3"
         style="fill:#281912;fill-opacity:1;fill-rule:nonzero;stroke:none"
         id="path228" />
      <path
         d="m 8624.27,19564.6 c -142.96,543.9 -385.27,891.6 -720.19,1033.5 -333.68,141.4 -754.68,71.5 -1251.3,-207.7 0,0 244.1,245.8 576.73,331.9 262.33,67.9 501.45,47.4 709.86,-40.9 192.49,-81.6 356.5,-223.5 489.73,-425.1 184.27,-278.8 195.17,-691.7 195.17,-691.7"
         style="fill:#281912;fill-opacity:1;fill-rule:nonzero;stroke:none"
         id="path230" />
      <path
         d="m 1979.07,20610.8 c 107.43,568.8 543.46,1003.8 983.83,1113.9 339.26,84.8 701.13,-45.2 893.37,-390.2 -1046.03,220.6 -1662.34,-441 -1877.2,-723.7"
         style="fill:#402921;fill-opacity:1;fill-rule:nonzero;stroke:none"
         id="path232" />
      <path
         d="m 1944.53,19792.3 c 0,0 34.54,305.8 294.21,554.7 150.16,143.9 331.75,230.6 518.69,266.4 83.47,15.9 168.17,26 251.99,14.7 550.52,-73.9 740.66,-458 740.66,-458 -315.7,293.6 -653.08,416.1 -975.64,354.4 -336.91,-64.5 -639.4,-331.3 -829.91,-732.2"
         style="fill:#281912;fill-opacity:1;fill-rule:nonzero;stroke:none"
         id="path234" />
      <path
         d="m 3661.36,17865.6 c -1003.78,-220.7 -1820.37,562 -1644.6,1508.8 156.91,845.2 1105.29,955.6 1575.65,610.7 452.34,-331.7 572.96,-1334.4 68.95,-2119.5"
         style="fill:#ffffff;fill-opacity:1;fill-rule:nonzero;stroke:none"
         id="path236" />
      <path
         d="m 3592.41,19985.1 c -456.68,334.9 -1363.91,240.5 -1559.91,-538.9 287.8,512 976.12,546.1 1345.57,265.9 389.69,-295.4 513.03,-1147.8 151.14,-1869.9 43.64,5.9 87.7,13.6 132.15,23.4 504.01,785.1 383.39,1787.8 -68.95,2119.5"
         style="fill:#e5e5e5;fill-opacity:1;fill-rule:nonzero;stroke:none"
         id="path238" />
      <path
         d="m 3989,18819.8 c 0,-547.8 -351.03,-991.8 -784.05,-991.8 -433.02,0 -784.05,444 -784.05,991.8 0,547.8 351.03,991.9 784.05,991.9 433.02,0 784.05,-444.1 784.05,-991.9"
         style="fill:#604b3b;fill-opacity:1;fill-rule:nonzero;stroke:none"
         id="path240" />
      <path
         d="m 3989,18819.8 c -409.38,815.6 -1343.86,617.1 -1568.1,0 0,547.8 351.03,991.9 784.05,991.9 433.02,0 784.05,-444.1 784.05,-991.9"
         style="fill:#48382c;fill-opacity:1;fill-rule:nonzero;stroke:none"
         id="path242" />
      <path
         d="m 2870.01,18710.5 c 0,0 -280.44,-103.8 -96.15,-450.2 184.3,-346.5 669.01,-407.1 904.74,-60.2 235.73,347 64.29,669 -92.72,649.4 -157,-19.7 -715.87,-139 -715.87,-139"
         style="fill:#bfb7b1;fill-opacity:1;fill-rule:nonzero;stroke:none"
         id="path244" />
      <path
         d="m 3722.46,18884.7 c 50.05,-345.9 -133.74,-668 -410.51,-719.5 -276.78,-51.5 -541.72,187.1 -591.77,533 -50.04,345.9 133.75,668 410.53,719.6 276.77,51.5 541.71,-187.2 591.75,-533.1"
         style="fill:#1a1a1a;fill-opacity:1;fill-rule:nonzero;stroke:none"
         id="path246" />
      <path
         d="m 2637.36,19120.7 c 15.69,-112 118.56,-186.5 229.78,-166.3 111.21,20.3 188.64,127.5 172.96,239.5 -15.69,112.1 -118.56,186.5 -229.77,166.3 -111.21,-20.2 -188.65,-127.5 -172.97,-239.5"
         style="fill:#ffffff;fill-opacity:1;fill-rule:nonzero;stroke:none"
         id="path248" />
      <path
         d="m 3437.7,18409.3 c 10.51,-75.2 80.2,-125 155.67,-111.3 75.47,13.7 128.13,85.7 117.62,160.9 -10.51,75.2 -80.2,125.1 -155.67,111.4 -75.47,-13.7 -128.13,-85.8 -117.62,-161"
         style="fill:#ffffff;fill-opacity:1;fill-rule:nonzero;stroke:none"
         id="path250" />
      <path
         d="m 3204.95,19766.4 c -407.39,0 -738.82,-424.6 -738.82,-946.6 0,-521.9 331.43,-946.6 738.82,-946.6 407.39,0 738.82,424.7 738.82,946.6 0,522 -331.43,946.6 -738.82,946.6 z m 0,-1983.7 c -457.27,0 -829.29,465.3 -829.29,1037.1 0,571.9 372.02,1037.1 829.29,1037.1 457.27,0 829.29,-465.2 829.29,-1037.1 0,-571.8 -372.02,-1037.1 -829.29,-1037.1"
         style="fill:#30261e;fill-opacity:1;fill-rule:nonzero;stroke:none"
         id="path252" />
      <path
         d="m 2990.52,20121.9 c -131.18,0 -262.99,-23 -382.88,-70.5 -291.79,-115.7 -485.84,-359 -546.4,-685.2 -79.69,-429.3 47.56,-842.8 349.13,-1134.6 314.18,-304 759.01,-422.2 1222.99,-325.7 223.03,354.7 331.98,775.3 307.01,1186.7 -23.13,380.9 -163.21,700.9 -374.71,856 -155.01,113.7 -364.24,173.3 -575.14,173.3 z m 328.96,-2339.4 c -370.03,0 -712.29,132.7 -972.02,384.1 -323.75,313.2 -460.49,756.5 -375.17,1216.1 66.45,357.9 280.26,625.3 602.03,752.8 345.41,136.8 765.3,91 1044.84,-114 465.35,-341.2 601.79,-1368 80.27,-2180.3 l -10.1,-15.8 -18.25,-4 c -118.76,-26.1 -236.55,-38.9 -351.6,-38.9"
         style="fill:#281912;fill-opacity:1;fill-rule:nonzero;stroke:none"
         id="path254" />
      <path
         d="M 599.438,17323.8 C 870.227,15647.9 2348.48,14934 3415.23,14764.3 c 569.21,-1375.8 2114.7,-1308 2861.05,-233.7 2227.77,-79.1 3837.32,1375.9 4161.52,2348.4 226.4,679.3 177.9,1525.7 -188,2388.8 -299.99,49.1 -599.99,21.2 -818.45,-98.8 -337.12,-185.3 -650.92,-668.3 -1101.75,-1098.8 -484.55,-462.8 -945.09,-686.1 -1495.43,-610.7 -629.99,86.3 -918.58,993.7 -2084.53,1047.9 -1134.61,52.8 -1470.1,-785.9 -1967.67,-966.8 -789.15,-50.9 -1247.7,1432.7 -1718.89,1457.4 -116.209,6.1 -229.67,-37.3 -334.857,-111.7 -152.086,-507 -214.688,-1030.9 -128.785,-1562.5"
         style="fill:#d8c9c2;fill-opacity:1;fill-rule:nonzero;stroke:none"
         id="path256" />
      <path
         d="m 3415.23,14764.3 c 569.21,-1375.8 2114.7,-1308 2861.05,-233.7 2227.77,-79.1 3837.32,1375.9 4161.52,2348.4 226.4,679.3 177.9,1525.7 -188,2388.8 -299.99,49.1 -599.99,21.2 -818.45,-98.8 -0.13,-0.1 -0.26,-0.2 -0.38,-0.2 100.25,-634.1 116.1,-1315.7 -64.39,-1918.2 -309.09,-1031.7 -1515.4,-2401.3 -2948.71,-1996.5 -399.65,-743 -956.44,-1234.9 -1751.7,-1196 -823.75,40.3 -1081.98,778.3 -1197.29,1313.3 -577.57,-33.1 -1827.93,71.6 -2697.325,1324.8 C 1262.43,15465 2492.65,14911 3415.23,14764.3"
         style="fill:#beaaa3;fill-opacity:1;fill-rule:nonzero;stroke:none"
         id="path258" />
      <path
         d="M 767.031,18858.1 C 606.078,18314.9 565.863,17815.2 644.09,17331 898.449,15756.8 2246.02,14996 3422.33,14809 l 25.02,-4 9.68,-23.4 c 242.5,-586.2 677.45,-941.5 1224.71,-1000.5 584.6,-63.1 1181.32,234 1557.4,775.3 l 14.08,20.3 24.67,-0.9 c 1251.74,-44.6 2196.21,395.5 2768.11,772.4 659.14,434.4 1176,1026.5 1348.9,1545.1 228.4,685.3 165.5,1513.2 -177,2333.7 -293.82,43.8 -571.39,8.6 -764.77,-97.7 -198.44,-109 -391.13,-327.8 -614.24,-581.1 -147.71,-167.7 -300.45,-341.1 -478.05,-510.7 -527.36,-503.7 -1000.11,-695.8 -1532.81,-622.8 -271.14,37.1 -474.07,212 -709.04,414.5 -327.35,282 -698.39,601.7 -1371.45,633 -738.46,34.4 -1120.18,-309.6 -1456.96,-613.2 -164.2,-148 -319.29,-287.7 -493.15,-351 l -6.09,-2.2 -6.46,-0.4 c -14.51,-0.9 -28.97,-1.4 -43.25,-1.4 -456.29,0 -794.51,468.8 -1094.05,884 -209.8,290.8 -407.97,565.4 -586.87,574.8 -94.843,5 -193.562,-26.8 -293.679,-94.7 z M 4837.56,13682.2 c -55.19,0 -110.35,3 -165.52,8.9 -271.6,29.3 -529.6,133.8 -746.11,302.2 -229.68,178.7 -412.18,424.3 -542.7,730.4 -373.54,62.1 -1068.57,236.8 -1701.81,719.6 -290.28,221.2 -531.18,481.4 -716.002,773.2 -207.461,327.6 -345.617,697.7 -410.637,1100.1 -81.183,502.4 -38.625,1020.2 130.114,1582.7 l 4.484,14.9 12.73,9 c 121.469,85.9 243.743,126.2 363.351,120 222.16,-11.7 422.97,-290 655.48,-612.3 293.72,-407.1 626.34,-868.2 1051.66,-845.6 154.88,58.3 295.23,184.8 457.41,330.9 332.42,299.6 746.13,672.4 1521.73,636.4 704.26,-32.7 1104.62,-377.7 1426.31,-654.9 224.09,-193.1 417.62,-359.9 662.26,-393.4 502.8,-68.8 952.5,115.7 1458.05,598.6 174.77,166.9 326.2,338.8 472.63,505.1 228.73,259.7 426.27,484 638.57,600.6 219.34,120.5 520.35,157.4 847.64,103.9 l 24.6,-4.1 9.7,-22.9 c 359.6,-848.4 426.8,-1708.1 189.2,-2420.8 -179,-537 -709.66,-1147 -1384.92,-1592 -555.4,-366.1 -1455.6,-790.4 -2642.74,-790.5 -50.79,0 -101.98,0.8 -153.82,2.4 -359.95,-505.4 -906.62,-802.3 -1461.66,-802.4"
         style="fill:#3f3331;fill-opacity:1;fill-rule:nonzero;stroke:none"
         id="path260" />
      <path
         d="m 6312.08,14503 -71.6,55.3 c 100.03,129.5 206.73,418.5 199.81,611.5 0,0 75.24,-190.7 -54.49,-548.2 -17.71,-48.8 -49,-86.6 -73.72,-118.6"
         style="fill:#3f3331;fill-opacity:1;fill-rule:nonzero;stroke:none"
         id="path262" />
      <path
         d="m 3374.26,14745.2 c -86.52,380.9 45.12,606.8 45.12,606.8 -45.85,-172.3 -10.52,-467.3 36.82,-568.5 l -81.94,-38.3"
         style="fill:#3f3331;fill-opacity:1;fill-rule:nonzero;stroke:none"
         id="path264" />
      <path
         d="m 3384.16,16156.5 c 438.19,-299 276.97,-767.4 543.73,-1365.8 278.95,-625.7 1294.84,-807.4 1782.97,-26.4 310.98,497.6 395.8,1085.6 876.41,1392.2 -469.3,507.6 -2504.9,394 -3203.11,0"
         style="fill:#540000;fill-opacity:1;fill-rule:nonzero;stroke:none"
         id="path266" />
      <path
         d="m 6018.22,15569.3 c 0,-404.8 -308.6,-732.9 -689.29,-732.9 -380.68,0 -689.28,328.1 -689.28,732.9 0,404.7 308.6,732.9 689.28,732.9 380.69,0 689.29,-328.2 689.29,-732.9"
         style="fill:#350000;fill-opacity:1;fill-rule:nonzero;stroke:none"
         id="path268" />
      <path
         d="m 4851.42,15322.2 c -254.44,386.4 -701.13,-94.2 -936.31,-502.1 4.15,-9.8 8.4,-19.6 12.78,-29.4 278.95,-625.7 1294.83,-807.4 1782.97,-26.4 99.87,159.8 176.4,328.9 250.22,495 -302.64,193.1 -812.72,231.5 -1109.66,62.9"
         style="fill:#fe8081;fill-opacity:1;fill-rule:nonzero;stroke:none"
         id="path270" />
      <path
         d="m 4851.42,15322.2 c -254.21,386 -700.31,-93.4 -935.67,-501 225.23,243.5 395.8,437.7 629.73,458.9 150.1,13.6 208.66,-94.7 82.86,-424.5 143.42,229.4 301.63,372.2 565.42,407.5 245.17,32.9 551.29,-48.7 578.13,-394.8 71.34,128.2 131.19,260.5 189.18,391 -302.63,193.1 -812.71,231.5 -1109.65,62.9"
         style="fill:#ef787a;fill-opacity:1;fill-rule:nonzero;stroke:none"
         id="path272" />
      <path
         d="m 3468.88,16149.7 c 230.41,-187.7 274.76,-431.8 325.52,-711.2 34.1,-187.7 72.76,-400.4 174.81,-629.4 128.56,-288.4 434.58,-490.3 779.61,-514.3 374.58,-26.1 711.32,153.7 923.68,493.5 103.54,165.7 182.63,343.8 259.11,516.1 147.58,332.5 287.4,647.4 583.92,858.2 -227.98,195.1 -759.18,301.6 -1442.99,286.8 -629.89,-13.7 -1259.25,-132.5 -1603.66,-299.7 z m 1351.89,-1947.9 c -25.9,0 -51.97,0.9 -78.24,2.7 -377.97,26.4 -713.95,249.2 -855.95,567.8 -106.49,238.9 -146.17,457.3 -181.19,650.1 -53.32,293.4 -95.43,525.2 -346.72,696.7 l -60.09,41 63.35,35.7 c 343.56,194 1014.24,329 1708.64,344 360.79,7.8 1233.96,-10.8 1549.91,-352.6 l 36.74,-39.8 -45.63,-29.1 c -306.5,-195.5 -447.75,-513.7 -597.29,-850.6 -77.76,-175.1 -158.16,-356.3 -265.08,-527.3 -215.85,-345.4 -551.05,-538.6 -928.45,-538.6"
         style="fill:#3f3331;fill-opacity:1;fill-rule:nonzero;stroke:none"
         id="path274" />
      <path
         d="m 7074.36,16967.5 c 0,0 143.39,-204.6 81.42,-579.2 -11.92,-72 -48.01,-142.4 -79.16,-209.2 -116.09,-249 -285.35,-424.3 -537.15,-534.3 -147.52,-64.4 -329.36,-101.8 -521.25,-101.8 -139.47,0 -296.65,30.3 -453.22,64.6 -345.55,75.8 -685.17,252.9 -1029.01,470.9 -138.01,-145.1 -427.21,-317 -721.86,-385.6 -350.4,-81.7 -654.12,-42.1 -849.31,82.1 -258.57,164.5 -332.42,384.1 -339.96,645.4 -11.83,409.4 143.96,664.5 143.96,664.5 l 4305.54,-117.4"
         style="fill:#d8c9c2;fill-opacity:1;fill-rule:nonzero;stroke:none"
         id="path276" />
      <path
         d="m 7052.53,17004.2 c 0,0 167.56,-212.9 105.89,-587.5 -11.86,-72 -41.39,-140.2 -72.39,-207 -115.52,-249 -317.14,-446.7 -567.72,-556.7 -146.79,-64.4 -319.15,-96.8 -510.11,-96.8 -138.8,0 -287.39,17.1 -443.2,51.4 -343.86,75.8 -705.26,230.6 -1047.43,448.6 -137.33,-145.1 -405.23,-279.4 -698.44,-348.1 -348.69,-81.6 -660.07,-57.3 -854.31,66.9 -257.31,164.5 -345.49,420.9 -349.39,682.3 -5.65,379 153.39,627.6 153.39,627.6 -116.07,-627.6 131.03,-855 345.41,-936 533.6,-201.6 665.83,270.5 1196.61,258.5 499.71,-11.2 1277.05,-560.5 1973.09,-292.2 323.42,124.7 652.69,343.8 768.6,889"
         style="fill:#beaaa3;fill-opacity:1;fill-rule:nonzero;stroke:none"
         id="path278" />
      <path
         d="m 6024.91,15519.4 c -139.47,0 -288.8,17.1 -445.37,51.5 -345.55,75.7 -708.71,230.6 -1052.56,448.6 -138,-145.1 -407.21,-279.5 -701.85,-348.1 -350.4,-81.7 -663.31,-57.3 -858.5,66.9 -258.57,164.5 -363.61,427.3 -371.16,688.6 -11.83,409.4 173.35,658 173.35,658 -82.95,-282.1 -225,-970.4 246.37,-1270.3 393.76,-250.5 1238.3,9.9 1468.52,292.4 l 25.62,31.5 34.04,-22.1 c 712.58,-461.7 1481.12,-625.5 1957.94,-417.3 484.36,211.6 730.72,756.9 573.05,1268.4 0,0 168.37,-212.9 106.4,-587.5 -11.91,-72.1 -41.59,-140.3 -72.74,-207.1 -116.09,-249 -318.7,-446.7 -570.5,-556.7 -147.51,-64.4 -320.72,-96.8 -512.61,-96.8"
         style="fill:#3f3331;fill-opacity:1;fill-rule:nonzero;stroke:none"
         id="path280" />
      <path
         d="m 4492.07,16042 c -121.08,88.5 -343.45,134.2 -511.18,147.3 0,0 240.26,82.8 489.16,-28.5 27.55,-12.3 52.31,-28.9 75.43,-45.8 l -53.41,-73"
         style="fill:#3f3331;fill-opacity:1;fill-rule:nonzero;stroke:none"
         id="path282" />
      <path
         d="m 9517.06,16042.5 c -344.36,261.7 -941.53,510.1 -1681.52,699.3 -580.35,148.4 -1180.69,240.5 -1517.27,234.1 -22.27,-0.4 -40.74,17.1 -41.77,39.3 l -0.37,8 c -1.08,23.2 17.21,42.7 40.46,43.2 344.71,6.4 954.36,-86.9 1541.36,-237 193.79,-49.5 458.1,-130.8 738.24,-225 595.37,-200.4 920.87,-561.9 920.87,-561.9"
         style="fill:#281912;fill-opacity:1;fill-rule:nonzero;stroke:none"
         id="path284" />
      <path
         d="m 8627.58,14054.3 c -169.67,338.7 -588.83,840.2 -1150.03,1375.8 -463.27,442.1 -958.58,843.9 -1252.98,1017.7 -21.09,12.5 -28.34,39.4 -16.46,60.8 v 0 c 12.36,22.3 40.6,30 62.52,17.1 300.49,-177.7 802.02,-584.1 1269.39,-1030.2 114.83,-109.6 257.14,-256.5 412.21,-413.6 413.81,-419.4 675.35,-1027.6 675.35,-1027.6"
         style="fill:#281912;fill-opacity:1;fill-rule:nonzero;stroke:none"
         id="path286" />
      <path
         d="m 7328.72,13614 c -115.22,626.7 -1088.77,2064.7 -1424.9,2401.3 -16.97,17 -17.68,44.2 -1.65,62.1 h 0.02 c 17.3,19.4 47.24,20.3 65.57,2 177.29,-177.3 497.83,-613.7 785.79,-1072.2 97.66,-155.6 184.49,-306.2 265.15,-446.2 239.11,-414.9 310.02,-947 310.02,-947"
         style="fill:#281912;fill-opacity:1;fill-rule:nonzero;stroke:none"
         id="path288" />
      <path
         d="m 1715.88,14058.1 c 0,0 30.23,287.8 294.62,697.6 394.88,612.1 986.97,1385.1 1278.83,1588.6 21.84,15.2 52.09,7.9 64.99,-15.4 v 0 c 11.21,-20.2 5.39,-45.7 -13.68,-58.8 -400.56,-275.5 -1458.03,-1784.8 -1624.76,-2212"
         style="fill:#281912;fill-opacity:1;fill-rule:nonzero;stroke:none"
         id="path290" />
      <path
         d="m 204.477,15035.1 c 0,0 356.125,588.6 837.413,896.2 270.82,173.1 546.18,356.1 853.84,505.2 619.61,300.3 1133.17,423.4 1330.66,463.2 24.72,5 48.63,-11.3 53.21,-36.1 l 0.03,-0.2 c 4.47,-24.2 -11.23,-47.5 -35.38,-52.4 -193.4,-38.9 -698.18,-159.9 -1309.06,-455.9 -702.63,-340.5 -1284.924,-784.6 -1730.713,-1320"
         style="fill:#281912;fill-opacity:1;fill-rule:nonzero;stroke:none"
         id="path292" />
      <path
         d="m 0,16277.4 c 0,0 249.398,286.5 964.785,506.7 151.145,46.5 307.665,103.7 471.335,154.3 646.8,199.7 1222.08,330.5 1556.59,354.7 25.41,1.8 47.31,-17.6 48.44,-43 l 0.01,-0.2 c 1.09,-24.4 -17.36,-45.3 -41.72,-47 C 2265.63,17150.8 512.32,16588.3 0,16277.4"
         style="fill:#281912;fill-opacity:1;fill-rule:nonzero;stroke:none"
         id="path294" />
      <path
         d="m 3771.46,16641.5 c -278.38,141.4 -397.01,494.9 -367.25,803.6 9.01,93.5 34.28,181.8 67.58,261.1 148.89,354.5 1459.95,414.5 1769.77,121.8 326.15,-308.2 202.27,-803.5 -39.58,-1028.1 -312.87,-290.7 -1066.76,-343.1 -1430.52,-158.4"
         style="fill:#352d2b;fill-opacity:1;fill-rule:nonzero;stroke:none"
         id="path296" />
      <path
         d="m 3771.46,16641.5 c 363.76,-184.7 1117.65,-132.3 1430.52,158.4 187.06,173.7 303.48,509.4 195.75,795.1 -39.86,-250.7 -356.19,-94 -637.46,-159.1 -179.59,-41.6 -209.84,-185.3 -470.94,-185.3 -183.07,0 -248.1,160.1 -416.77,215.8 -206.95,68.3 -380.87,21.8 -425.19,175.4 -21,-61.7 -36.52,-127.8 -43.16,-196.7 -29.76,-308.7 88.87,-662.2 367.25,-803.6"
         style="fill:#282320;fill-opacity:1;fill-rule:nonzero;stroke:none"
         id="path298" />
      <path
         d="m 3791.94,16681.9 c 168.75,-85.7 433.98,-121 709.52,-94.4 287.51,27.7 531.62,117.2 669.73,245.5 134.42,124.9 221.81,331.4 222.63,526.2 0.51,119.4 -30.89,291.9 -183.33,435.9 -193.08,182.4 -821.44,216.5 -1254.29,125.1 -240.91,-50.8 -402.27,-135.2 -442.71,-231.5 -34.76,-82.8 -56.38,-166.2 -64.26,-247.9 -25.89,-268.6 70.32,-620.6 342.71,-758.9 z m 532.28,-193.5 c -223.2,0 -429.17,39.6 -573.24,112.8 v 0 c -140.07,71.1 -250.86,196.3 -320.4,361.9 -62.04,147.7 -87.39,320.4 -71.4,486.4 8.76,90.8 32.61,183 70.9,274.2 67.76,161.3 313.34,244.1 507.43,285 455.65,96.2 1116.01,59.2 1335.12,-147.8 139.3,-131.7 212.5,-305.3 211.66,-502.1 -0.94,-222 -97.32,-448.8 -251.52,-592.1 -152.37,-141.5 -415.76,-239.7 -722.62,-269.3 -62.65,-6 -124.94,-9 -185.93,-9"
         style="fill:#000000;fill-opacity:1;fill-rule:nonzero;stroke:none"
         id="path300" />
      <path
         d="m 4234.15,17529.1 c -22.63,243.6 -16.11,455.5 -12.62,475.7 l 89.14,-15.4 c 0.1,0.6 0.25,1.4 0.33,2.4 -3.27,-43.5 23.35,-780.1 46.51,-1124.8 0,0 -89.16,294.1 -123.36,662.1"
         style="fill:#000000;fill-opacity:1;fill-rule:nonzero;stroke:none"
         id="path302" />
      <path
         d="m 4724.73,17795.7 c 1.63,-50.4 -193.25,-97.7 -435.28,-105.5 -242.03,-7.8 -439.54,26.8 -441.17,77.3 -1.62,50.4 193.26,97.7 435.29,105.5 242.02,7.8 439.54,-26.8 441.16,-77.3"
         style="fill:#6c6260;fill-opacity:1;fill-rule:nonzero;stroke:none"
         id="path304" />
      <path
         d="m 5437.6,17346.2 c -27.34,10 -55.8,19.2 -85.31,27.2 -260.44,70.5 -498.34,28.9 -531.37,-93 -33.03,-122 151.32,-278 411.76,-348.5 21.1,-5.8 42.02,-10.7 62.73,-14.9 18.71,24.3 35.45,49.1 49.84,74.4 56.35,99.1 89.59,224.7 92.35,354.8"
         style="fill:#160c0a;fill-opacity:1;fill-rule:nonzero;stroke:none"
         id="path306" />
      <path
         d="m 4959.84,17342.7 c -52.84,-16.6 -86.72,-42.6 -95.26,-74.2 -22.7,-83.7 127.75,-224.7 379.93,-293 10.37,-2.8 21.04,-5.5 31.91,-8 10.95,15.5 20.83,31 29.51,46.3 48.39,85.1 78.17,190.8 85.08,300.7 -16.81,5.6 -33.71,10.6 -50.54,15.2 -119.7,32.4 -237.37,41.2 -331.35,24.8 -17.84,-3.1 -34.33,-7.1 -49.28,-11.8 z m 354.18,-475.7 -27.72,5.7 c -22.45,4.6 -44.47,9.8 -65.45,15.5 -293.73,79.6 -484.43,253.3 -443.59,404 20.83,76.9 97.64,130.6 216.27,151.4 106.76,18.7 238.37,9.2 370.59,-26.6 29.75,-8 59.71,-17.6 89.04,-28.3 l 30.35,-11.1 -0.68,-32.4 c -2.9,-136.2 -37.8,-269.8 -98.26,-376.1 -14.99,-26.4 -32.93,-53.2 -53.29,-79.7 l -17.26,-22.4"
         style="fill:#000000;fill-opacity:1;fill-rule:nonzero;stroke:none"
         id="path308" />
      <path
         d="m 3945.28,17237 c -30.67,130.2 -268.45,185.6 -531.08,123.7 -4.81,-1.2 -9.54,-2.4 -14.3,-3.6 -0.92,-162.8 38.18,-331 118.75,-469.3 2.21,0.5 4.41,1 6.62,1.5 262.64,61.9 450.68,217.6 420.01,347.7"
         style="fill:#160c0a;fill-opacity:1;fill-rule:nonzero;stroke:none"
         id="path310" />
      <path
         d="m 3445.59,17321.4 c 4.3,-136.9 37.78,-270 95.92,-381.4 109.52,29.1 206.36,75.6 274.91,132.4 64.44,53.3 95.36,109.6 84.83,154.2 -20.77,88.2 -211.37,146.7 -455.66,94.8 z m 50.69,-485.1 -16.72,28.7 c -81.54,140 -125.89,314.9 -124.89,492.4 l 0.2,35 37.47,9.5 c 3.82,0.9 7.63,1.9 11.49,2.8 291.34,68.7 548.52,-0.4 585.48,-157.3 18.98,-80.6 -21.93,-167.5 -115.19,-244.7 -84.6,-70 -204.8,-126 -338.47,-157.5 l -39.37,-8.9"
         style="fill:#000000;fill-opacity:1;fill-rule:nonzero;stroke:none"
         id="path312" />
    </g>
  </g>
</svg>
