<?xml version="1.0" encoding="UTF-8" standalone="no"?>
<!-- Created with Inkscape (http://www.inkscape.org/) -->

<svg
   version="1.1"
   id="svg2"
   width="3600.9199"
   height="5174.8267"
   viewBox="0 0 3600.9199 5174.8267"
   sodipodi:docname="vecteezy_cartoon-funny-otter-waving-its-hand_.eps"
   xmlns:inkscape="http://www.inkscape.org/namespaces/inkscape"
   xmlns:sodipodi="http://sodipodi.sourceforge.net/DTD/sodipodi-0.dtd"
   xmlns="http://www.w3.org/2000/svg"
   xmlns:svg="http://www.w3.org/2000/svg">
  <defs
     id="defs6" />
  <sodipodi:namedview
     id="namedview4"
     pagecolor="#ffffff"
     bordercolor="#000000"
     borderopacity="0.25"
     inkscape:showpageshadow="2"
     inkscape:pageopacity="0.0"
     inkscape:pagecheckerboard="0"
     inkscape:deskcolor="#d1d1d1" />
  <g
     id="g8"
     inkscape:groupmode="layer"
     inkscape:label="ink_ext_XXXXXX"
     transform="matrix(1.3333333,0,0,-1.3333333,0,5174.8267)">
    <g
       id="g10"
       transform="scale(0.1)">
      <path
         d="m 17913.3,8722.2 c 1729.2,-1369.9 3916.3,-1999.7 5210.2,-1369.9 1268.8,617.61 404.2,2627.5 1437.3,3930.1 1033,1302.5 2245.7,1033.1 2402.9,763.6 157.2,-269.5 -1066.7,-696.2 -1280,-1639.5 -213.4,-943.2 213.3,-3306.89 -1184.7,-4923.8 -1369.4,-1583.9 -4261.3,-2105.4 -5912,-713 -1841.9,1553.7 -673.7,3952.5 -673.7,3952.5"
         style="fill:#98675a;fill-opacity:1;fill-rule:nonzero;stroke:none"
         id="path12" />
      <path
         d="m 26963.7,12046 c -24.8,42.5 -75.9,85 -148.4,121.3 -245.4,-457.6 -1217.5,-867.9 -1476.6,-1616.6 -437.1,-1262.7 -157.9,-3132.5 -1323.5,-4213.1 -1535.5,-1423.5 -4184.6,-1335.49 -5415.1,241.01 -457,585.59 -728.7,1126.59 -886.1,1595.09 -228.9,-800.2 -422.5,-2311.2 873,-3404 1650.7,-1392.4 4542.6,-870.9 5912,713 1398,1617 971.3,3980.6 1184.7,4923.8 213.3,943.3 1437.2,1370 1280,1639.5"
         style="fill:#84574e;fill-opacity:1;fill-rule:nonzero;stroke:none"
         id="path14" />
      <path
         d="m 17924.3,8676.8 c -129.1,-292.19 -1006,-2461.7 681.3,-3885.1 620.4,-523.3 1442,-799.9 2375.9,-799.9 1351.1,0 2690.6,578.5 3495.7,1509.8 1013.8,1172.51 1061.5,2733.8 1096.3,3873.7 12.8,418.6 23.8,780.2 82,1037.6 126.6,559.7 596.6,935.8 939.8,1210.4 221.5,177.2 396.6,317.3 343.6,408.1 -59.1,101.3 -298.4,208.9 -625.6,208.9 -357.1,0 -1056.6,-126.8 -1729.9,-975.8 -474.6,-598.4 -543,-1335.2 -609.2,-2047.7 -74.1,-798.5 -144.1,-1552.6 -838.1,-1890.4 -338,-164.49 -742.2,-247.9 -1201.4,-247.9 -1238.6,0 -2735.3,596.9 -4010.4,1598.3 z m 3057.2,-4742.7 c -947.7,0 -1782.2,281.4 -2413,813.5 -1837.8,1550.3 -692.9,3963 -681.1,3987.2 l 15.7,32.31 28.1,-22.31 c 1271.5,-1007.3 2768.2,-1608.6 4003.5,-1608.6 450.4,0 846.1,81.4 1176.1,242 664.8,323.6 730.2,1028.2 806,1843.91 63.8,687.39 136.1,1466.29 621.4,2078.19 688.4,868.1 1407.6,997.7 1775.1,997.7 352.5,0 606.5,-119.5 675.3,-237.5 78.1,-133.9 -104.5,-280 -357.3,-482.3 -336.5,-269.2 -797.3,-638 -919.5,-1178 -57,-252 -68,-611 -80.7,-1026.7 C 25596.1,8225 25548,6651.91 24520.8,5463.8 23705,4520.3 22348.9,3934.1 20981.5,3934.1"
         style="fill:#63413b;fill-opacity:1;fill-rule:nonzero;stroke:none"
         id="path16" />
      <path
         d="m 177.352,26368.3 c 218.957,219 606.355,928.2 656.886,1173.4 387.392,-56.1 1139.722,157.3 1403.602,438 348.1,-365 679.34,-471.6 1156.57,-376.2 311.6,-942.2 -463.32,-2305.7 -833.74,-2397.3 -816.9,-202.2 -2383.318,1162.1 -2383.318,1162.1"
         style="fill:#bfaaa3;fill-opacity:1;fill-rule:nonzero;stroke:none"
         id="path18" />
      <path
         d="m 219.324,26370.4 c 181.953,-153.9 1395.976,-1155.8 2162.386,-1155.8 61.62,0 119.53,6.6 172.03,19.6 137.12,33.9 339.35,261.7 515.33,580.5 264.26,478.7 480.86,1187.8 305.67,1755.6 -103.21,-19.3 -197.34,-28.7 -286.97,-28.7 -318.22,0 -581.51,122.6 -850.16,396.8 C 1951.27,27662 1232.41,27468.1 856.336,27509.9 788.68,27252.6 441.613,26611.3 219.324,26370.4 Z M 2381.71,25156.9 c -847.58,0 -2167.511,1141.1 -2223.28,1189.7 l -23.321,20.3 21.856,21.8 c 218.008,218 601.121,926.4 649.062,1158.9 l 5.465,26.6 26.875,-3.9 c 39.934,-5.8 85.004,-8.7 133.953,-8.7 393.2,0 1008.92,187.2 1244.5,437.8 l 20.84,22.2 21.01,-22 c 267.7,-280.6 515.61,-400.4 829.1,-400.4 93.07,0 191.48,10.7 300.99,32.6 l 25.01,5 8,-24.2 c 194.91,-589.4 -28.28,-1329.6 -302.22,-1825.8 -186.18,-337.3 -397.65,-570.5 -551.95,-608.6 -57.06,-14.1 -119.59,-21.3 -185.89,-21.3"
         style="fill:#68504a;fill-opacity:1;fill-rule:nonzero;stroke:none"
         id="path20" />
      <path
         d="m 7335.73,22747 c -842.16,-168.4 -2071.72,-101 -2897.04,640.1 -825.31,741.1 -1017.71,1315 -972.04,1798.6 45.67,483.6 208.8,847.5 245.08,1587.7 28.07,572.7 -29.45,897.5 -300.47,1071.5 -248.96,159.9 -359.69,-273.9 -297.57,-690.5 61.65,-413.6 -89.64,-830.8 -190.89,-836.6 -90.79,-5.2 -128.67,455.2 -230.19,915.2 -118.21,535.5 -308.58,1080.5 -550.21,1044.2 -235.93,-35.3 -210.39,-574.7 -129.13,-1111.6 73.43,-485.3 197.98,-973.7 115.35,-992.4 -174.04,-39.3 -463.45,1121.5 -1075.42,1435.9 -339.473,174.4 -550.216,-84.2 -274.145,-429.8 248.915,-311.6 851.025,-1389.2 648.905,-1484.7 -110.73,-52.3 -249.25,321.1 -538.98,526.4 -269.046,190.6 -511.714,302.2 -638.64,301.7 -280.7228,-1 -297.5666,-154.4 -33.688,-457.5 242.52,-278.7 651.27,-415.5 769.176,-745.4 49.062,-137.2 123.512,-635.8 359.322,-950.2 235.8,-314.4 550.21,-437.9 724.26,-583.9 174.05,-146 393.01,-1544 1274.47,-2925.1 781.86,-1225.1 2290.69,-2391.8 3116,-1903.3 825.32,488.5 875.85,3789.7 875.85,3789.7"
         style="fill:#98675a;fill-opacity:1;fill-rule:nonzero;stroke:none"
         id="path22" />
      <path
         d="m 2128.62,26173.2 c -174.04,-39.3 -463.45,1121.5 -1075.42,1435.9 -67.208,34.5 -129.239,51.9 -183.579,55.1 448.909,-216.9 720.369,-1119.2 987.479,-1527.9 66.42,-101.7 218.55,-202.4 291.4,-8.1 18.31,54.9 18.19,106.8 6.6,157.2 3.23,-66.3 -3.77,-107 -26.48,-112.2"
         style="fill:#84574e;fill-opacity:1;fill-rule:nonzero;stroke:none"
         id="path24" />
      <path
         d="m 2922.8,26317.8 c -90.79,-5.2 -128.67,455.2 -230.19,915.2 -118.21,535.5 -308.58,1080.5 -550.21,1044.2 -1.48,-0.2 -2.82,-0.7 -4.27,-0.9 296.33,-188.5 388.54,-1079.2 496.03,-1638.2 48.56,-145.7 72.84,-291.4 169.97,-388.5 97.14,-72.8 188.2,-5.8 224.62,85 26.63,110.3 60.14,207.3 66.83,315.5 -41.6,-192.8 -115.25,-329 -172.78,-332.3"
         style="fill:#84574e;fill-opacity:1;fill-rule:nonzero;stroke:none"
         id="path26" />
      <path
         d="m 3495.48,24745.4 c -167.4,549.1 181.59,1320.8 216.25,2028 28.07,572.7 -29.44,897.5 -300.47,1071.5 -29.74,19.1 -57.44,29.5 -83.18,32.7 27.29,-34.1 138.57,-189.2 195.04,-356.2 176.42,-932.2 -427.54,-2243.1 -27.64,-2776"
         style="fill:#84574e;fill-opacity:1;fill-rule:nonzero;stroke:none"
         id="path28" />
      <path
         d="m 5208.14,20664.5 c -777.05,170 -1590.53,552.5 -2076.19,1256.7 -485.65,679.9 -685.99,1238.4 -1044.02,1886.6 -218.54,242.8 -619.35,456.7 -740.77,772.4 -194.26,485.6 -161.89,997.6 -712.297,1325.4 -206.101,122.7 -596.5505,359.4 -571.6989,569.9 -75.7227,-66.6 -26.4141,-203.6 153.4879,-410.3 242.524,-278.7 651.27,-415.5 769.176,-745.4 49.062,-137.2 123.512,-635.8 359.322,-950.2 235.8,-314.4 550.21,-437.9 724.26,-583.9 174.05,-146 393.01,-1544 1274.47,-2925.1 781.86,-1225.1 2290.69,-2391.8 3116,-1903.3 381.52,225.8 597.4,1052.7 719.33,1876.7 -609.67,-251.2 -1309.78,-307.9 -1971.07,-169.5"
         style="fill:#84574e;fill-opacity:1;fill-rule:nonzero;stroke:none"
         id="path30" />
      <path
         d="m 251.152,26493.9 c -72.558,-0.3 -163.2497,-11.5 -186.7965,-63.6 -16.2813,-35.9 -15.3242,-128.6 174.0705,-346.2 93.34,-107.2 214.172,-194.7 331.062,-279.2 189.782,-137.3 369.035,-267 443.502,-475.3 12.11,-33.8 25.13,-86.6 41.69,-153.4 51.21,-207.2 136.95,-553.8 313.55,-789.3 157.9,-210.6 356.41,-336.7 515.95,-438.1 75.71,-48.1 147.19,-93.5 203.75,-141 67.43,-56.5 130.69,-251.5 235.42,-574.6 177.55,-547.4 474.71,-1463.7 1044.85,-2357.1 628.62,-985 1791.43,-2003.8 2649.15,-2003.8 0.05,0 0.05,0 0.05,0 160.72,0 304.65,36.9 427.8,109.8 756.6,447.8 852.14,3372.1 860.92,3729.8 -242.06,-45.9 -504,-70.1 -760.09,-70.1 -851.52,0 -1606.77,257 -2126.61,723.8 -725.51,651.5 -1037.42,1230.7 -981.48,1822.8 18.81,199.1 57.52,378.9 98.47,569.3 58.64,272.5 125.11,581.3 146.52,1017.1 30.25,616.6 -44.95,890.3 -287.29,1045.8 -67.27,43.3 -121.74,39.3 -167.99,-14.2 -89.9,-104.3 -125.85,-376.8 -85.46,-647.8 53.24,-357 -47.76,-706.2 -141.16,-821 -25.02,-30.8 -50.82,-47.1 -76.62,-48.6 h -0.05 c -84.67,0 -115.71,156.9 -178.29,511.7 -23.05,130.8 -49.18,279.2 -81.63,426 -143.54,650.4 -325.49,1023.4 -499.22,1023.4 -6.14,0 -12.28,-0.4 -18.53,-1.4 -33.75,-5 -61.41,-22.7 -84.51,-54 -96.66,-131 -103.47,-475.8 -20.39,-1024.8 21.47,-142 47.88,-287.1 71.21,-415.2 76.33,-419.9 104.05,-591.1 21.97,-609.6 -4.96,-1.1 -10.03,-1.7 -15.15,-1.7 -81.52,0 -151.71,132 -290.29,406.6 -180.6,357.7 -427.84,847.7 -789.49,1033.5 -154.134,79.2 -296.993,64.6 -342.958,-30.9 -42.191,-87.8 -3.156,-220.6 104.496,-355.3 224.822,-281.4 750.352,-1202.1 691.092,-1457.8 -9.98,-42.9 -33.97,-62.3 -52.39,-71 -10.87,-5.1 -22.31,-7.7 -34.09,-7.7 v 0 c -65.91,0 -126.46,80.5 -210.29,191.9 -82.92,110.2 -186.17,247.3 -323.572,344.7 -254.168,180.1 -498.031,296.5 -621.176,296.5 z M 6017.4,18814.6 c 0,0 0,0 -0.05,0 -877.49,0 -2060.82,1032.4 -2697.82,2030.5 -574.08,899.6 -872.65,1820.2 -1051.05,2370.3 -90.98,280.6 -162.86,502.3 -217.61,548.2 -53.69,45 -123.6,89.5 -197.62,136.5 -163.48,103.9 -366.95,233.2 -531.22,452.2 -183.59,244.8 -271.07,598.6 -323.401,810 -16.109,65.3 -28.844,116.8 -39.941,147.8 -68.497,191.6 -240.708,316.2 -422.997,448.1 -119.543,86.4 -243.078,175.8 -340.757,288 -162.8559,187.1 -222.7387,320.5 -183.141,407.9 29.0664,64.2 109.348,97 238.457,97.5 137.285,0 388.078,-117.7 655.43,-307.1 144.78,-102.6 250.96,-243.7 336.3,-357.1 65.35,-86.9 127.09,-168.9 164.21,-168.9 3.22,0 6.31,0.7 9.41,2.2 3.78,1.8 15.16,7.1 20.85,31.8 49.91,215.3 -434.72,1101.8 -679.938,1408.8 -121.789,152.5 -163.477,308.1 -111.426,416.3 35.605,73.9 110.637,116.3 205.84,116.3 65.683,0 140.207,-20.4 215.474,-59.1 378.33,-194.4 630.47,-694 814.62,-1058.9 93,-184.2 189.17,-374.8 238.8,-374.8 29.23,32.8 -22.26,315.9 -63.6,543.3 -23.38,128.4 -49.86,274 -71.43,416.9 -86.7,572.6 -76.56,921.9 30.98,1067.6 32.22,43.7 73.4,69.5 122.36,76.9 277.66,41.6 471.44,-562.6 582.64,-1066.6 32.67,-148.1 58.92,-297.1 82.14,-428.5 35.37,-200.7 79.42,-450.5 119.03,-464.2 5.68,0.5 18.36,7.9 34.36,27.5 84.44,103.9 178.97,440 128.89,776.1 -43.38,290.8 -2.77,576.2 98.75,693.9 64.27,74.6 150.91,84.3 242.9,25.2 296.71,-190.5 340.03,-561.1 313.66,-1097.2 -21.57,-440.5 -88.56,-751.8 -147.7,-1026.4 -40.62,-188.7 -78.98,-366.9 -97.4,-562.6 -54.08,-572.4 251.81,-1136.2 962.55,-1774.5 509.25,-457.2 1250.81,-709.1 2088.08,-709 264.82,0 535.95,26.2 784.09,75.8 l 35.04,7 -0.56,-35.7 c -2.08,-135.5 -60.33,-3323.1 -890,-3814.1 -132.21,-78.3 -286.06,-117.9 -457.2,-117.9"
         style="fill:#63413b;fill-opacity:1;fill-rule:nonzero;stroke:none"
         id="path32" />
      <path
         d="m 1286.47,25609.1 c 0,0 95.22,307.4 507.83,494 484.25,218.9 808.28,24.7 808.28,24.7 l -596.49,-752 -719.62,233.3"
         style="fill:#98675a;fill-opacity:1;fill-rule:nonzero;stroke:none"
         id="path34" />
      <path
         d="m 1294.71,25620.7 c 0,0 69.29,319.4 487.73,508.6 491.11,222.1 820.14,-1.5 820.14,-1.5 -3.32,1.6 -331.73,159.1 -796.37,-51 -395.85,-179 -510.37,-453.4 -511.5,-456.1"
         style="fill:#63413b;fill-opacity:1;fill-rule:nonzero;stroke:none"
         id="path36" />
      <path
         d="m 4764.33,1423.5 c 157.2,-117.9 494.79,-566.496 474.78,-833.398 288.78,24.898 1164.63,142.8 1417.28,-115.497 297.56,157.2 1325,190.899 1532.74,-28.003 C 8559.68,1047.3 9224.59,1769.2 8458.61,2080.4 7200.99,2591.3 5477.36,2125.3 4764.33,1423.5"
         style="fill:#bfaaa3;fill-opacity:1;fill-rule:nonzero;stroke:none"
         id="path38" />
      <path
         d="m 7463.63,630.504 c 167.31,0 557.02,-14.199 719.14,-139.602 53.46,85.102 112.78,173.403 170.35,259.098 244.32,363.5 496.85,739.3 413.31,1012.7 -37.91,124 -142.12,219.2 -318.67,290.9 -349.54,142 -747.65,214.1 -1183.21,214.1 -928.98,0 -1932.65,-345.2 -2456.77,-842.4 158.18,-136.9 454.99,-532.398 460.97,-803.597 21.34,2 45.06,4.399 70.81,6.899 156.72,15.5 393.65,38.804 625.46,38.804 349.77,0 578.08,-51.703 696.66,-158.004 155.48,72.903 472.52,121.102 801.95,121.102 z m 730.41,-231 -25.8,27.199 c -85.51,90.199 -355.51,146.098 -704.61,146.098 -329.55,0 -655.93,-50.797 -793.78,-123.699 l -19.04,-10 -15.04,15.402 c -100.78,102.996 -326.45,155.199 -670.75,155.199 -228.99,0 -464.18,-23.199 -619.83,-38.5 -39.6,-3.898 -74.58,-7.398 -103.59,-9.898 l -33.81,-2.903 2.54,33.801 c 18.59,247.602 -297.89,684.097 -463.28,808.197 l -26.81,20.1 23.88,23.5 c 527.17,518.9 1563.63,881.4 2520.43,881.4 443.05,0 848.42,-73.5 1204.95,-218.29 193.62,-78.71 308.82,-185.81 352.14,-327.5 C 8913.18,1480 8652.81,1092.5 8401,717.902 8337.13,622.801 8271.1,524.504 8213.7,431.402 l -19.66,-31.898"
         style="fill:#68504a;fill-opacity:1;fill-rule:nonzero;stroke:none"
         id="path40" />
      <path
         d="M 6325.14,9019.8 C 6021.96,7436.5 6257.76,5870.1 6897.81,5027.9 7537.85,4185.8 9160.42,3253.8 9126.73,3147.11 9093.04,3040.4 8795.48,2843.9 7953.32,2939.4 7111.15,3034.8 6414.97,2984.3 5831.07,2714.8 5247.17,2445.3 4657.65,1751.9 4733.45,1373 c 44.71,-223.6 699,387.3 1209.91,544.5 C 5365.07,1518.9 4988.91,716.102 5146.11,412.902 5303.31,109.703 6285.84,1547 7088.7,1653.7 6791.13,1401 6386.9,699.203 6527.26,328.703 6624.79,71.2031 7699.14,1143.3 8183.51,1479.61 7919.64,1075.4 7911.07,701.402 7964.95,525.301 c 78.68,-257.199 398.23,-404.399 678.94,157.105 280.72,561.394 738.3,774.794 1252.02,858.994 513.69,84.2 1628.19,241.4 1987.49,769.2 359.3,527.7 -589.5,1240.7 196.5,2498.4 -707.4,482.8 -5754.76,4210.8 -5754.76,4210.8"
         style="fill:#98675a;fill-opacity:1;fill-rule:nonzero;stroke:none"
         id="path42" />
      <path
         d="m 5838.69,1839.3 c 96.47,53.2 178.28,112.4 275.55,161 -629.88,-33.6 -1282.48,-513.19 -1343.58,-345.6 -38.82,-103.6 -53.56,-200 -37.21,-281.7 44.71,-223.6 699,387.3 1209.91,544.6 -35.69,-24.6 -70.6,-50.8 -104.67,-78.3"
         style="fill:#84574e;fill-opacity:1;fill-rule:nonzero;stroke:none"
         id="path44" />
      <path
         d="m 7023.36,1592.6 c 121.38,71.2 111.72,92.7 254.9,140.4 -777.05,-24.3 -1396.27,-485.7 -1897.11,-871.195 -70.22,-54.004 -206.58,-49.305 -208.03,44.199 -70.2,-202 -84.89,-381.5 -27.01,-493.102 C 5303.32,109.703 6285.84,1547 7088.7,1653.7 c -21.3,-18.1 -43.19,-38.7 -65.34,-61.1"
         style="fill:#84574e;fill-opacity:1;fill-rule:nonzero;stroke:none"
         id="path46" />
      <path
         d="M 8313.32,1605.5 C 7900.5,1459.8 7576.29,1222.3 7272.18,971.102 7102.21,825.402 6787.94,658.504 6668.15,731.305 c -66.78,42.5 -49.56,164.097 -67.49,207.097 -92.13,-223.101 -134.68,-448 -73.4,-609.699 93.5,-246.8983 1084.64,728.097 1593.19,1105.497 68.8,75.8 114.6,102.8 192.87,171.3"
         style="fill:#84574e;fill-opacity:1;fill-rule:nonzero;stroke:none"
         id="path48" />
      <path
         d="m 12079.9,4809 c -179.3,122.4 -637.8,453.5 -1222.2,879.5 -283.6,-448.3 225.3,-525.4 81.2,-1023.2 C 10611.1,3533 11606.7,2780.2 10720.4,2296.5 10199.7,2012.41 9418.57,1803.8 8967.94,1468.9 8674.92,1251.1 8555.18,976.004 8344.68,602.801 8292.65,509.203 8123.57,354.504 7996.96,449.703 c 112.56,-204.402 395.28,-270.601 646.93,232.703 280.73,561.394 738.3,774.794 1252.02,858.994 513.69,84.2 1628.19,241.4 1987.49,769.2 359.3,527.7 -589.5,1240.7 196.5,2498.4"
         style="fill:#84574e;fill-opacity:1;fill-rule:nonzero;stroke:none"
         id="path50" />
      <path
         d="m 7182.14,1695.2 -74.81,-63.5 C 6795.75,1367.11 6424.01,682.703 6554.25,338.902 c 4.74,-12.597 12.46,-20.898 34.65,-20.898 153.9,0 593.86,373.598 982.04,703.296 226.4,192.2 440.18,373.8 596.12,482 l 121.33,84.3 -80.72,-123.7 c -268.59,-411.49 -261.61,-778.298 -215.13,-930.197 38.64,-126.398 130.46,-208 233.83,-208 133.46,0 272.54,131.199 391.74,369.598 C 8865.52,1190.1 9270.05,1468 9891.23,1569.8 l 75.93,12.4 c 544.14,87.9 1556.84,251.8 1892.44,744.6 136.3,200.31 73.5,430.61 -6.2,722.1 -121.7,445.6 -272.9,999 187.5,1751.8 C 11298.2,5313 6801.61,8632.11 6344.98,8969.3 6058.36,7420.8 6282.9,5884.7 6920.81,5045.4 7322.74,4516.5 8115.23,3951.6 8639.68,3577.8 c 439.06,-313 531.67,-385.3 514.54,-439.4 -29.68,-94 -228.54,-253.3 -785.44,-253.3 -127.93,0 -268.76,8.6 -418.72,25.6 -263.24,29.9 -500.34,44.3 -724.83,44.3 -541.52,0 -993.65,-87.1 -1382.06,-266.4 -586.25,-270.6 -1152.23,-956.1 -1081.42,-1310 3.83,-18.99 11.78,-25.4 31.49,-25.4 77.29,0 250.23,108.1 433.31,222.5 223.64,139.8 477.14,298.3 708.33,369.4 l 179.36,55.2 -154.46,-106.5 C 5393.64,1503.6 5024.03,711.004 5171.74,426.203 c 9.58,-18.5 21.75,-26.398 40.73,-26.398 99.09,0 308.37,192.695 550.59,415.898 390.61,359.697 876.77,807.397 1321.85,866.597 z M 6588.9,260.301 c -42.93,0 -74.42,20.703 -88.61,58.101 C 6360.19,688.305 6718.92,1319.4 6996.58,1606.3 6594.93,1503.4 6158.23,1101.2 5802.16,773.203 5530.41,523.004 5334.09,342.105 5212.47,342.105 c -40.67,0 -72.44,19.899 -91.99,57.5 -146.18,281.899 145.11,983.495 648.05,1418.795 -171.7,-79.2 -349.43,-190.4 -511.39,-291.6 -206.74,-129.2 -370.04,-231.3 -463.9,-231.3 -47.54,0 -78.8,25.5 -88.04,71.8 -83.32,416.4 553.41,1115.11 1113.75,1373.7 396.24,182.8 856.19,271.7 1406.28,271.7 226.69,0 465.93,-14.6 731.37,-44.7 147.76,-16.7 286.39,-25.2 412.18,-25.2 529.7,0 702.64,145.7 728.66,208.1 -23.21,46.3 -250.73,208.5 -491.27,379.9 -527.22,375.8 -1324.04,943.81 -1731.33,1479.7 -653.51,859.9 -880.36,2435.7 -578.02,4014.7 l 8.62,45 36.84,-27.2 c 50.47,-37.3 5055.02,-3733.2 5753.92,-4210.2 l 22.9,-15.6 -14.7,-23.5 c -464.7,-743.4 -315.3,-1290.2 -195.3,-1729.5 80.2,-293.8 149.5,-547.6 -1.8,-769.9 C 11557.7,1781 10529,1614.61 9976.34,1525.2 l -75.76,-12.3 c -601.36,-98.6 -992.47,-366.6 -1230.87,-843.396 -165.96,-331.902 -332.7,-401.5 -443.34,-401.5 v 0 c -129.34,0 -242.73,97.699 -289.04,248.801 -44.56,145.797 -56.1,476.199 148.44,854.995 C 7948.32,1266 7782.02,1124.8 7608.29,977.305 7193.18,624.805 6763.98,260.301 6588.9,260.301"
         style="fill:#63413b;fill-opacity:1;fill-rule:nonzero;stroke:none"
         id="path52" />
      <path
         d="M 8834.79,28509.7 C 8952.69,27008.4 8194.92,25520.6 7012.99,23409.5 5831.07,21298.5 4840.8,17340.4 5110.61,13298 5380.41,9255.6 6439.24,7049.11 8403.38,5701.7 c 1964.12,-1347.5 5972.82,-2930.8 8600.42,0 -134.8,2897 -1684.4,5895.1 -2964.4,7747.9 -1280.1,1852.7 -1816.5,5794 -1228.3,8825.8 588.2,3031.8 2816.3,7901.7 1228.3,8229 -1588.1,327.3 -5204.61,-1994.7 -5204.61,-1994.7"
         style="fill:#d8c9c3;fill-opacity:1;fill-rule:nonzero;stroke:none"
         id="path54" />
      <path
         d="M 15634.4,10677.1 C 15819.8,8116 14897,6847.6 12225.9,6434.8 10113.3,6143.4 7180.6,6791.11 5670.64,9749.8 6212.42,7844.3 7112.3,6587.41 8403.38,5701.7 c 1964.12,-1347.5 5972.82,-2930.8 8600.42,0 -79.5,1708.6 -651.2,3452.2 -1369.4,4975.4"
         style="fill:#bfaaa3;fill-opacity:1;fill-rule:nonzero;stroke:none"
         id="path56" />
      <path
         d="M 8864.84,28494.7 C 8976.67,26985.8 8213.53,25494.7 7038.15,23395.5 5894.04,21351.9 4863.21,17437.8 5139.41,13299.9 5400.4,9389 6381.43,7123.8 8419.7,5725.4 c 564.46,-387.2 2581.7,-1650.7 4840,-1650.9 0,0 0.3,0 0.4,0 1486.5,0 2736,551 3714.3,1637.61 -164,3427.8 -2305.7,6775.79 -2958.8,7721.09 -1269.7,1837.8 -1822.8,5806.9 -1232.8,8847.7 181.1,933.6 521,2052.7 849.7,3135 604.2,1989.4 1229,4046.6 790.4,4784.3 -89.2,150.1 -216.5,240.3 -389.4,276 -99.9,20.6 -211.8,31 -332.6,31 -1623.4,0 -4601.43,-1864 -4836.06,-2012.5 z M 13260.1,4016.8 c -0.2,0 -0.3,0 -0.5,0 -2274.8,0.2 -4304.62,1271.5 -4872.57,1661.1 -2054.39,1409.4 -3042.85,3687.7 -3305.2,7618.2 -276.98,4149.6 757.68,8076.6 1905.96,10127.5 1174.7,2098.1 1935.92,3585.4 1818.25,5083.9 l -1.36,17.2 14.48,9.3 c 31.66,20.3 3182.84,2030.9 4881.74,2030.9 124.8,0 240.6,-10.9 344.2,-32.2 187.1,-38.6 330.8,-140.5 427.5,-303.1 451.5,-759.5 -149.1,-2736.9 -784.9,-4830.5 -328.3,-1080.9 -667.7,-2198.5 -848.3,-3129.2 -587.4,-3027.7 -38.5,-6977.1 1223.6,-8803.9 656.1,-949.6 2809.2,-4315.8 2969.6,-7763 l 0.5,-11.8 -7.9,-8.79 C 16034.4,4577.3 14767.5,4016.8 13260.1,4016.8"
         style="fill:#68504a;fill-opacity:1;fill-rule:nonzero;stroke:none"
         id="path58" />
      <path
         d="M 21155.6,1642.41 C 20658.7,1516.1 20220.8,1019.2 20145,741.305 19563.9,623.402 19033.4,429.703 18721.8,185.504 18107,471.805 17197.5,446.602 16911.1,295 c 379,1153.7 707.4,1995.9 1406.4,2147.5 699,151.6 2273.9,33.7 2838.1,-800.09"
         style="fill:#bfaaa3;fill-opacity:1;fill-rule:nonzero;stroke:none"
         id="path60" />
      <path
         d="m 17594.4,434.906 c 412.4,0 820.6,-78.601 1123.6,-215.902 298.8,228.301 795.9,422 1404.2,547.098 88.6,283.398 501.8,751.008 986.3,893.298 -433.4,596.9 -1403.2,810.7 -2176.4,810.7 -229.8,0 -440.2,-19.3 -608.4,-55.8 -673.4,-146 -994.9,-946.3 -1364.8,-2066.499 144.9,55 375,87.105 635.5,87.105 z m 1131.3,-283.004 -16.1,7.5 c -297.2,138.399 -703.7,217.801 -1115.2,217.801 -287.7,0 -544.4,-41.301 -669.8,-107.699 l -63.2,-33.5 22.3,68 c 384.6,1170.796 712.1,2011.496 1427.7,2166.696 172.2,37.3 386.8,57.1 620.7,57.1 802.1,0 1813.7,-228.4 2247.4,-869.2 l 23.1,-33.99 -39.9,-10.11 c -484.2,-123.2 -916.5,-611.7 -989.8,-880.797 l -4.7,-17.101 -17.4,-3.598 C 19533.8,587.902 19032.6,392.5 18739.6,162.801 l -13.9,-10.899"
         style="fill:#68504a;fill-opacity:1;fill-rule:nonzero;stroke:none"
         id="path62" />
      <path
         d="m 17510.2,33291 c 133.6,-2156 -1719.1,-5430.8 -2089.7,-8105.3 -370.6,-2674.5 91.5,-9411.8 1045.1,-12421.1 953.6,-3009.3 2750.2,-4558.9 2974.8,-6175.9 224.6,-1616.9 -331.2,-3093.5 -247,-3455.6 84.2,-362.2 687.9,-316.7 1111.6,-539 513.8,-269.49 1086.4,-875.9 977,-1078 -43.2,-79.6 -325.7,89.9 -661.1,280.2 -351.8,199.6 -860.5,475 -1111.7,469.3 -126.3,-12.6 450.6,-433.7 643.3,-959 131.8,-359.295 152.5,-657.897 64.1,-712.698 -83.3,-51.597 -351.2,166.004 -574.1,453.398 -325.3,419.7 -662.5,921.1 -812,962.31 -122.1,33.69 78.5,-607.91 110.2,-1226.208 17.5,-339.898 -70.4,-701.6989 -160,-749.4997 -101.3,-53.9961 -326.3,335.1997 -421.1,715.8007 C 18218,1318.6 18130.7,1940.9 18051,1892.8 17683.1,1670.5 17475.4,968.703 17315.4,674.004 17155.3,379.203 17020.6,78.2031 16911.1,109.703 c -138.9,39.902 -285.3,687.102 0,1347.497 294.8,682.1 656.9,1027.41 539,1305.3 -117.9,277.9 -1456.9,530.6 -1878,1709.61 -421.1,1178.99 185.3,2464.69 84.2,3537.09 -83.1,882.2 -1201.5,3744.8 -2212.1,5474 -1010.6,1729.3 -2024.2,5771.7 -1371.4,9072.9 652.8,3301.3 1955.3,5659.4 2000.2,7119.1 45,1459.8 3437.2,3615.8 3437.2,3615.8"
         style="fill:#98675a;fill-opacity:1;fill-rule:nonzero;stroke:none"
         id="path64" />
      <path
         d="m 16939.8,694.906 c -71.3,-45 -163.9,8.996 -189.8,72.297 -18,-362.398 73,-632.203 161.1,-657.5 109.5,-31.4999 244.2,269.5 404.3,564.199 160,294.801 367.7,996.598 735.6,1218.898 15.7,9.4 77.3,-92.7 93.8,-129.5 0,258 -36.4,248.9 -115.3,227.7 -582.8,-194.3 -670.8,-1031.996 -1089.7,-1296.094"
         style="fill:#84574e;fill-opacity:1;fill-rule:nonzero;stroke:none"
         id="path66" />
      <path
         d="m 18713.8,2076 c -174.4,-489.7 137.3,-930.9 -57,-1392.195 -27.8,-97.602 -149.7,-218.602 -246.3,-105.102 109,-316.801 284.2,-590.6991 370.2,-544.8007 89.6,47.8008 177.5,409.6017 160,749.4997 -31.7,618.298 -232.3,1259.898 -110.2,1226.208 46.2,-12.81 110.4,-69.51 186.5,-154.21 -70,114.4 -226.6,358.2 -303.2,220.6"
         style="fill:#84574e;fill-opacity:1;fill-rule:nonzero;stroke:none"
         id="path68" />
      <path
         d="m 19462.2,2039.61 c 218.5,-315.71 473.5,-635.41 368.4,-966.71 -44.6,-126.095 -125.9,-69.1 -141.4,-83.896 212.3,-257.801 449.8,-443.102 527.4,-395.102 88.4,54.801 67.7,353.403 -64.1,712.698 -192.7,525.3 -769.6,946.4 -643.3,959 47,1.1 103.1,-7.7 165.5,-24 -75.3,43.01 -143.7,121.7 -232.7,85.3 -85.8,-36.4 -52.6,-165.9 20.2,-287.29"
         style="fill:#84574e;fill-opacity:1;fill-rule:nonzero;stroke:none"
         id="path70" />
      <path
         d="m 19193.4,3133.1 c -84.2,362.1 471.6,1838.7 247,3455.6 -224.6,1617 -2021.2,3166.6 -2974.8,6175.9 -953.6,3009.3 -1415.7,9746.6 -1045.1,12421.1 370.6,2674.5 2223.3,5949.3 2089.7,8105.3 0,0 -2249.5,-1429.8 -3109,-2749.1 286.4,-205.6 554.2,-425.7 617.2,-819.8 24.3,-24.3 97.2,-24.3 97.2,-48.6 0.1,-696.7 122.5,-1375.4 38.2,-2073.1 -94.1,-778.9 -352.1,-1526.1 -496.4,-2295.5 -237.7,-1267.3 -285.4,-2500.7 -306.7,-3778.3 -31,-1854.4 -9.3,-3501.5 279.2,-5354.4 273.2,-1754.4 673.4,-3579.9 1451.1,-5170.4 457.8,-936.2 980.3,-1842.9 1523.4,-2731.8 416.9,-682.5 992.9,-1335.3 1109.4,-2138.8 120.1,-829 -184.8,-2405.5 -89.4,-2768.2 105.6,-401.3 409,-595 1007.8,-619.2 158.6,-6.5 311.9,-40.5 464.4,-62.8 -390.8,131.11 -832.1,146.3 -903.2,452.1"
         style="fill:#84574e;fill-opacity:1;fill-rule:nonzero;stroke:none"
         id="path72" />
      <path
         d="m 18059.8,1924.2 c 67,0 100.6,-124.59 204.3,-615.7 36.1,-171.2 77.1,-365.195 123.5,-551.797 94.4,-379.101 296,-698.9999 372.6,-698.9999 2.6,0 4.9,0.5 6.9,1.6016 70,37.2969 162.6,375.8983 144.9,722.6993 -13.9,271.396 -60.7,547.496 -98.2,769.396 -49.5,292.6 -69.8,423.9 -30.6,470.2 13.2,15.7 33.5,21.8 55,15.81 123.1,-34.01 341.4,-326.01 594,-664.21 76.6,-102.5 155.2,-207.7 233.2,-308.2 215.4,-277.895 438.2,-449.797 521.1,-449.797 6.4,0 11.4,1.102 15,3.301 59,36.496 65.3,292.5 -76.1,678.096 -111.4,303.9 -352.5,571 -512,747.7 -124.4,137.9 -163.1,183.3 -148.1,222.2 3.6,9.3 13.7,25.1 41,27.8 l 10.6,0.31 c 251.9,0 729.9,-252.91 1118.2,-473.21 l 75.7,-43.1 c 229,-130.3 445.2,-253.5 528,-253.5 5.6,0 15.4,0.7 17.8,5.11 13.7,25.29 13.5,61.69 -0.6,108.09 -79.1,259.8 -547.8,712 -964.4,930.5 -152.8,80.2 -328.8,124.7 -499.1,167.8 -293.1,74.1 -570,144.1 -627.2,390.2 -30.8,132.5 17.9,395 85.3,758.3 122.1,658.1 306.7,1652.8 161.3,2700 -107.1,770.7 -585.8,1545 -1140.2,2441.6 -626.7,1013.6 -1337,2162.3 -1833.6,3729.5 -955.7,3016 -1414.4,9776.5 -1046.2,12433.8 164.9,1189.5 623.5,2501.4 1067.1,3770 556.1,1590.6 1081.8,3094 1025.2,4280 -387.7,-253 -3341,-2224.5 -3382.3,-3565.4 -22.2,-721.3 -344.3,-1645.3 -752,-2814.9 -408.6,-1172.2 -917,-2631 -1248.8,-4308.9 -676.5,-3421.1 416.4,-7424.3 1368,-9052.7 1024.1,-1752.3 2134.5,-4622.5 2215.9,-5485.89 40.8,-432.61 -31.2,-890.91 -107.5,-1376.11 -112.3,-714.6 -228.4,-1453.5 21.7,-2154 281.8,-788.9 980.1,-1157.5 1442.1,-1401.4 228.4,-120.6 393.4,-207.7 435.3,-306.6 79.7,-187.9 -42.7,-401.3 -212.2,-696.6 -102.2,-178 -218,-379.7 -326.8,-631.5 -230.8,-534.098 -173,-1037.395 -82.3,-1229.196 30.8,-65.199 56.6,-77 63.7,-79.098 71.7,-20 185.4,199.899 296.1,409.699 24.3,46.098 49.3,93.399 74.9,140.598 40.7,75 84.1,175.699 134.3,292.203 147.5,342.094 331,767.894 611.8,937.594 7.5,4.4 15.5,6.7 23.7,6.7 z M 18760.2,0 c -137.2,0 -343,399.305 -428.6,742.801 -46.7,187.5 -87.7,382.109 -123.9,553.799 -51.9,245.6 -110.4,522.9 -148.9,567.1 -261.1,-163.2 -438.6,-575.1 -581.5,-906.595 -50.8,-117.902 -94.6,-219.605 -136.6,-296.902 -25.5,-47 -50.4,-94.101 -74.6,-140.101 -130.1,-246.7 -232.8,-441.5004 -338.9,-441.5004 -8.1,0 -16.2,1.1015 -24.1,3.4023 -36.9,10.5977 -70.5,47.6011 -99.9,109.8011 -95,200.996 -156.9,725.3 81.4,1276.795 110.2,254.8 231.9,466.9 329.7,637.3 167.3,291.4 277.8,483.8 209.3,645.4 -34,80 -199.6,167.4 -409.2,278 -470,248.11 -1180.2,623.11 -1469.5,1433.11 -255.1,714.29 -137.8,1460.59 -24.4,2182.39 75.7,481.5 147.2,936.31 107.1,1361.7 -80.9,857.91 -1187.4,3715.5 -2208.3,5462.2 -956,1636 -2054.2,5657.3 -1374.8,9093 332.6,1681.9 841.8,3142.8 1251,4316.7 406,1165 726.8,2085.2 748.7,2797.7 44.9,1458.3 3311.5,3550.9 3450.6,3639.2 l 41.2,26.2 3,-48.7 c 74.7,-1205.2 -459.7,-2733.8 -1025.6,-4352.1 -442.6,-1266 -900.3,-2575.1 -1064.4,-3759 -367.4,-2651.8 90.3,-9398.6 1044.1,-12408.4 494.4,-1560.3 1202.7,-2705.9 1827.7,-3716.6 557.7,-902.09 1039.5,-1681.2 1148.2,-2464 146.7,-1056.5 -38.9,-2056.6 -161.7,-2718.5 -63.6,-343 -113.9,-613.9 -85.8,-734.59 49.2,-211.91 297.6,-274.7 585.1,-347.41 173.6,-43.9 353,-89.3 511.8,-172.59 435.4,-228.31 908.6,-688.21 992.8,-964.81 18.8,-61.7 17.5,-113 -3.9,-152.39 -8.7,-16.11 -27.6,-35.21 -68.5,-35.21 -98.1,-0.09 -300.4,115.1 -556.5,261 l -75.7,43 c -376.9,213.9 -838.6,458.9 -1079.9,465.5 19,-31.2 75,-93.4 129.5,-153.8 162.5,-180 408.1,-452 523.4,-766.4 112.2,-305.9 176.4,-670.195 52.3,-747.098 -12.8,-7.898 -28.1,-11.902 -45.4,-11.902 -131.8,0 -384.8,237.5 -566.8,472.11 -78.1,100.79 -156.9,206.29 -233.7,309.09 -224,299.7 -455.5,609.7 -560.8,642.4 -19,-38.99 15.2,-241.1 45.5,-420.1 37.8,-223.4 84.8,-501.3 98.8,-776.094 C 18987.1,443.203 18901.9,65.9023 18794.3,8.50391 18783.8,2.90234 18772.3,0 18760.2,0"
         style="fill:#63413b;fill-opacity:1;fill-rule:nonzero;stroke:none"
         id="path74" />
      <path
         d="m 17176.4,15218.1 c 341.1,514.5 1048.5,728.5 905.3,172.6 -315.8,-450.5 -1044.3,-745.3 -905.3,-172.6"
         style="fill:#98675a;fill-opacity:1;fill-rule:nonzero;stroke:none"
         id="path76" />
      <path
         d="m 18040.6,15677.1 c -244.3,-306.7 -665.8,-521.9 -821.4,-399 -14.8,-19.5 -29.2,-39.4 -42.8,-60 -139,-572.7 589.5,-277.9 905.3,172.7 37.5,145.6 16.3,237.9 -41.1,286.3"
         style="fill:#84574e;fill-opacity:1;fill-rule:nonzero;stroke:none"
         id="path78" />
      <path
         d="m 17203.3,15206.4 c -24.8,-105.4 -19.5,-184.5 15.6,-229 24.5,-31.1 64.3,-46.9 118.6,-46.9 204.6,0 538.8,220.3 717.6,472.5 26.5,106.2 21.2,187.2 -15.5,234.6 -26.9,34.6 -70.6,52.1 -130,52.1 -188.8,0 -503.9,-180.7 -706.3,-483.3 z m 134.2,-333.6 c -71.8,0 -128.5,23.8 -163.9,68.9 -47.6,60.5 -56.1,155.8 -25.2,283.2 l 4,9.1 c 213,321.4 552.3,513.4 757.2,513.4 77.1,0 137.8,-25.7 175.6,-74.5 49.3,-63.6 57.6,-161 24.5,-289.3 l -4.4,-9.4 c -190.5,-271.8 -542.1,-501.4 -767.8,-501.4"
         style="fill:#63413b;fill-opacity:1;fill-rule:nonzero;stroke:none"
         id="path80" />
      <path
         d="m 17391.2,14860.2 c 256.8,408.4 606.3,665.3 964.2,757.9 358,92.7 497.5,-106.8 362.8,-245.8 -134.8,-138.9 -451.2,-495.3 -573.3,-836.4 -459,-193.6 -905.3,-37.8 -753.7,324.3"
         style="fill:#98675a;fill-opacity:1;fill-rule:nonzero;stroke:none"
         id="path82" />
      <path
         d="m 18724.6,15579.1 c -128.9,-206.9 -783.5,-481.6 -974.3,-1043.2 -65.9,-27.8 -127.3,-45.9 -184.1,-56 149.4,-48.8 362.6,-35.1 578.7,56 122.1,341.1 438.5,697.5 573.3,836.4 66.2,68.3 66,151.1 6.4,206.8"
         style="fill:#84574e;fill-opacity:1;fill-rule:nonzero;stroke:none"
         id="path84" />
      <path
         d="m 18525.1,15613 c -49.4,0 -104.1,-7.7 -162.5,-22.8 -368.3,-95.3 -704.7,-360.1 -947,-745.4 -36.4,-87.8 -34.7,-169.7 7.1,-232.4 55.6,-83.5 177.5,-131.4 334.4,-131.4 116.2,0 242.2,26.5 365,76.7 134.3,362.2 473.6,729.8 575.4,834.7 39.3,40.6 52.1,87.1 34.9,127.6 -24.6,58.2 -102.1,93 -207.3,93 z m -768,-1189.7 c -176.6,0 -316,57.3 -382.5,157.1 -36.9,55.5 -68.6,151 -10,290.9 252.3,402.1 600.9,675.7 983.6,774.8 213,55.1 389,10.4 437.3,-103.6 26.3,-62 8.8,-133.1 -46.6,-190.3 -100.8,-103.9 -439.7,-470.8 -566.9,-825.9 l -4.2,-12 -11.7,-4.9 c -133.5,-56.4 -271.5,-86.1 -399,-86.1"
         style="fill:#63413b;fill-opacity:1;fill-rule:nonzero;stroke:none"
         id="path86" />
      <path
         d="m 14258.3,21938.6 c 0,0 1094.8,-67.4 1633.8,-522.2 539,-454.7 1928.4,-1891.8 2038,-2762.3 134.7,-1069.5 -145.9,-2369.3 -494,-3205.8 179.6,-117.9 393,-550.2 421.1,-836.6 409.8,297.6 662.7,365.9 911.5,374.8 353.1,12.6 559.6,-226.3 378.4,-307.4 -640.1,-286.3 -1032.3,-1106 -1599,-1184.6 -566.8,-78.6 -1824.4,437.9 -2228.7,1268.8 -404.2,831 -227.3,1675.9 -160,2678.1 -56.1,454.8 -1489.7,1154.6 -1489.7,1154.6 l 588.6,3342.6"
         style="fill:#98675a;fill-opacity:1;fill-rule:nonzero;stroke:none"
         id="path88" />
      <path
         d="m 17446.7,18843.3 c 340,-1335.5 92.8,-2950.3 -413.6,-3970.5 267.9,28.9 563.4,61 824.1,-261.1 -82.7,532.5 -394,818.8 -421.1,836.6 348.1,836.5 628.7,2136.3 494,3205.8 -109.6,870.5 -1499,2307.6 -2038,2762.3 -115.8,97.7 -257.3,177.5 -408.1,242.7 874.7,-767.7 1691.7,-1686.7 1962.7,-2815.8"
         style="fill:#84574e;fill-opacity:1;fill-rule:nonzero;stroke:none"
         id="path90" />
      <path
         d="m 18527.3,14500.7 c -291.4,-194.2 -546.4,-465.4 -910.6,-538.2 -704.2,-121.5 -1408.4,112 -1894.1,573.4 -282.8,252.5 -418.2,625.8 -636.9,1049.2 32.2,-278.7 102,-551 233.7,-821.8 404.3,-830.9 1661.9,-1347.4 2228.6,-1268.8 566.8,78.6 959,898.3 1599.1,1184.6 85.9,38.5 84.5,112.5 21.7,178.3 74.1,-126 -416,-211.7 -641.5,-356.7"
         style="fill:#84574e;fill-opacity:1;fill-rule:nonzero;stroke:none"
         id="path92" />
      <path
         d="m 13672.3,18610.7 -2.6,-14.7 c 0,0 1245.4,-608 1459.9,-1058.9 24.4,90 -55.7,469.4 -178.8,561.2 -304.7,227 -835.7,454.8 -1278.5,512.4"
         style="fill:#84574e;fill-opacity:1;fill-rule:nonzero;stroke:none"
         id="path94" />
      <path
         d="m 17419.8,13457.4 c -638.9,0 -1751.7,523.3 -2126.3,1293.3 -336.8,692.3 -275.6,1381.3 -204.6,2179.2 14.7,166.1 30,337.8 41.8,513.4 -53.4,428.4 -1461,1152.7 -1461,1152.7 59.7,-27.7 1460.9,-685.8 1518.4,-1151.1 -11.7,-181.7 -27,-353.7 -41.8,-520.1 -70.1,-789.3 -130.7,-1471 199,-2148.9 385.1,-791.4 1623.5,-1332.5 2198.8,-1252.9 295.9,41.1 547.7,295.8 814.2,565.6 234.6,237.3 477.1,482.7 777,616.8 39.2,17.6 55.5,42.3 48.2,73.5 -18.2,78.5 -176.7,187.3 -413.8,178.8 -244.3,-8.8 -490.1,-74.9 -895.6,-369.3 l -40.7,-29.6 -5,50.1 c -27.8,284.3 -237.6,703.4 -408.2,815.3 l -20,13.1 9.2,22.1 c 341.6,820.9 626.3,2126 492.1,3191.1 -111,881.6 -1525.3,2319.8 -2028,2743.9 -525.6,443.5 -1606.1,514.7 -1617,515.4 0,0 1114.1,-15.7 1654.2,-471.3 507.3,-428 1934.9,-1882.1 2048.1,-2780.8 134.3,-1066.4 -146.7,-2370.1 -487.3,-3199.2 170.9,-130.4 363.5,-507.1 408.1,-795.2 394.2,279.1 641.3,343.2 888.1,352 256.8,9.4 445.3,-108.8 472,-223.4 13.5,-58.4 -16.7,-110.4 -80.9,-139.1 -289.9,-129.7 -528.6,-371.2 -759.4,-604.8 -273.7,-276.9 -532.1,-538.4 -847.4,-582.1 -41.2,-5.7 -85.5,-8.5 -132.2,-8.5"
         style="fill:#63413b;fill-opacity:1;fill-rule:nonzero;stroke:none"
         id="path96" />
      <path
         d="m 15179,17313.2 -57,8.4 c 65.4,442.1 -168.8,773.4 -171.2,776.7 0,0 297,-320.1 228.2,-785.1"
         style="fill:#63413b;fill-opacity:1;fill-rule:nonzero;stroke:none"
         id="path98" />
      <path
         d="m 17098,14918.1 c 2.7,3.9 270.7,391.6 386.9,733 l 54.6,-18.6 c -118.9,-349.1 -441.5,-714.4 -441.5,-714.4"
         style="fill:#63413b;fill-opacity:1;fill-rule:nonzero;stroke:none"
         id="path100" />
      <path
         d="m 5376.81,34902.2 c -544.29,446.8 -773.62,1661.3 -227.46,2445.3 503.67,723 1186.07,-260 1015.47,-901.8 -170.6,-641.7 -788.01,-1543.5 -788.01,-1543.5"
         style="fill:#98675a;fill-opacity:1;fill-rule:nonzero;stroke:none"
         id="path102" />
      <path
         d="m 5171.61,37140.8 c 436.66,632.3 1013.96,-90.7 993.97,-691.6 167.28,641.9 -513.45,1620 -1016.24,898.3 -334.05,-479.5 -377.63,-1119.9 -236.82,-1647.4 -91.09,476.6 -29.88,1022.3 259.09,1440.7"
         style="fill:#ad857b;fill-opacity:1;fill-rule:nonzero;stroke:none"
         id="path104" />
      <path
         d="m 5543.12,37572.9 c -133.71,0 -258.21,-81.4 -370.07,-241.9 -522.85,-750.6 -327.71,-1924.2 197.85,-2385.8 102.6,153.8 614.89,939.6 765.99,1508 71.76,270 -12.48,633.2 -204.79,883.4 -117.23,152.4 -255.34,236.3 -388.98,236.3 z m -160.25,-2713 -24.39,20 c -562.26,461.5 -780.15,1698.5 -232.85,2484.1 121.56,174.5 265.94,266.8 417.49,266.8 152,0 306.42,-92 434.82,-259 202.54,-263.4 290.9,-647.3 214.84,-933.5 -169.95,-639.2 -785.91,-1543.4 -792.12,-1552.4 l -17.79,-26"
         style="fill:#63413b;fill-opacity:1;fill-rule:nonzero;stroke:none"
         id="path106" />
      <path
         d="m 5460.75,35703.8 c -162.47,259.9 -216.63,774.4 0,964 216.64,189.5 357.45,-330.4 287.04,-563.3 -70.4,-232.8 -287.04,-400.7 -287.04,-400.7"
         style="fill:#3f2920;fill-opacity:1;fill-rule:nonzero;stroke:none"
         id="path108" />
      <path
         d="m 5715.52,36021.1 c 12.54,26.7 23.54,54.6 32.27,83.4 70.41,232.9 -70.4,752.8 -287.03,563.3 -36.77,-32.2 -65.17,-74.3 -87.13,-122.4 221.34,136.6 290.03,-306.3 341.89,-524.3"
         style="fill:#281913;fill-opacity:1;fill-rule:nonzero;stroke:none"
         id="path110" />
      <path
         d="m 5552.2,36679.7 c -22.58,0 -46.92,-11.3 -72.43,-33.7 -189.38,-165.7 -162.68,-627.3 -11.58,-898.1 57.88,51.3 199.09,190.3 251.94,365 43.3,143.2 2.03,396.6 -83.34,511.6 -27.16,36.6 -55.62,55.2 -84.59,55.2 z m -99.03,-1018.4 -16.94,27.1 c -162.11,259.4 -231.16,794.1 5.48,1001.2 83.17,72.7 173.74,60.7 241.49,-30.6 95.88,-129.1 140.71,-402.7 92.27,-562.8 -72.23,-239 -287.86,-408.2 -297,-415.3 l -25.3,-19.6"
         style="fill:#000000;fill-opacity:1;fill-rule:nonzero;stroke:none"
         id="path112" />
      <path
         d="m 5108.73,29968.4 c -645.46,757.5 -1050.68,1754.7 -190.47,3575 394.43,834.7 -15.34,1873.3 1279.05,3568.5 1358.45,1779 5684.89,2358.9 8529.99,637.4 2595.6,-1570.6 3097.8,-4228.1 2729.6,-5982.9 -368.3,-1754.7 -1787.3,-3005.8 -3558.3,-3444.4 -1770.9,-438.7 -8009.99,731.1 -8789.87,1646.4"
         style="fill:#98675a;fill-opacity:1;fill-rule:nonzero;stroke:none"
         id="path114" />
      <path
         d="m 6514.47,37230.2 c 1878.12,1585 6252.23,1910.7 9214.73,-238.8 -290.9,332.2 -772.7,619.2 -1001.9,757.9 -2845.1,1721.5 -7171.54,1141.6 -8529.99,-637.4 -704.34,-922.4 -904.08,-1650.4 -1003.37,-2257 237.13,638.6 243.6,1282 1320.53,2375.3"
         style="fill:#ad857b;fill-opacity:1;fill-rule:nonzero;stroke:none"
         id="path116" />
      <path
         d="m 15843,36895 c 1332.3,-1718.8 1315.7,-3758.2 594,-5505.4 -729.5,-1719.6 -2866,-2084.4 -4429.3,-2709.7 -233.4,-95.5 -458.2,-223.6 -680.5,-364.6 1083.7,-111.3 2033.7,-126.5 2571.4,6.7 1771,438.6 3190,1689.7 3558.3,3444.4 307.7,1466.2 7.3,3562.6 -1613.9,5128.6"
         style="fill:#84574e;fill-opacity:1;fill-rule:nonzero;stroke:none"
         id="path118" />
      <path
         d="m 10734.6,38753.4 c -1972.78,0 -3744.78,-651.2 -4514.32,-1659.1 -850,-1113.1 -961.69,-1946.2 -1051.46,-2615.7 -47.49,-354.1 -88.48,-659.9 -224.38,-947.5 -890.77,-1884.9 -405.69,-2849.3 186.32,-3544 669.72,-786 5304.14,-1731.4 7709.24,-1731.4 445.3,0 799.1,31.8 1051.7,94.3 1833.9,454.3 3189.2,1765.7 3536.9,3422.4 370.1,1763.6 -119.1,4380.7 -2716.3,5952.2 -1096.4,663.4 -2509.1,1028.8 -3977.7,1028.8 z M 12840,28197.9 c -2415.3,0 -7075.66,956.5 -7753.28,1751.7 -603.93,708.8 -1099.4,1691.5 -194.57,3606.2 132.07,279.5 172.55,581.2 219.36,930.5 90.68,676.2 203.49,1517.8 1062.81,2643.1 780.1,1021.7 2570.11,1681.8 4560.28,1681.8 1479,0 2902.3,-368.3 4007.6,-1037.2 1175.2,-711.1 2035.7,-1726.7 2488.4,-2936.9 371.9,-994.3 462.3,-2086.9 254.5,-3076.6 -352.2,-1678.6 -1723.8,-3006.9 -3579.5,-3466.6 -257.1,-63.7 -615.6,-96 -1065.6,-96"
         style="fill:#63413b;fill-opacity:1;fill-rule:nonzero;stroke:none"
         id="path120" />
      <path
         d="m 5916.49,36208.7 c 230.45,553.5 538.03,958.3 914.57,1044.4 321.6,73.6 489.71,-213.1 526.83,-441.2 -93.84,134.3 -369.86,233 -638.87,123.3 -141.17,-57.5 -458.8,-237.5 -802.53,-726.5"
         style="fill:#3f2920;fill-opacity:1;fill-rule:nonzero;stroke:none"
         id="path122" />
      <path
         d="m 5916.49,36208.7 c 213.33,397.8 542.8,802.9 919.34,889.1 321.6,73.5 486.61,-167.1 522.06,-285.9 -93.84,134.3 -369.86,233 -638.87,123.3 -141.17,-57.5 -458.8,-237.5 -802.53,-726.5"
         style="fill:#281913;fill-opacity:1;fill-rule:nonzero;stroke:none"
         id="path124" />
      <path
         d="m 6930.76,37241.4 c -30.3,0 -62.08,-3.7 -94.5,-11.1 -301.46,-69 -580.35,-358.2 -813.07,-840.6 307.98,382.2 576.87,522.4 686.97,567.2 79.51,32.5 163.02,48.9 248.23,48.9 137.08,0 269.97,-44.5 357.39,-115.6 -46.63,157.3 -162.89,351.2 -385.02,351.2 z m -1118.2,-1221.2 82.27,197.5 c 254.46,611.2 576.41,977.2 930.98,1058.3 35.82,8.2 71.13,12.3 104.95,12.3 257.9,0 412,-237.3 450.29,-472.6 l 16.51,-101.5 -58.88,84.3 c -66,94.4 -222.38,160.4 -380.29,160.4 -79.1,0 -156.68,-15.3 -230.52,-45.4 -121.06,-49.3 -440.59,-218.1 -792.2,-718.3 l -123.11,-175"
         style="fill:#000000;fill-opacity:1;fill-rule:nonzero;stroke:none"
         id="path126" />
      <path
         d="m 12954.4,36548.1 c -282.3,573.6 -697.1,894.7 -1080.7,939.7 -327.6,38.5 -463.9,-264.7 -476.2,-495.4 78.8,143.6 342.6,271.5 621.9,191.4 146.5,-41.9 540.5,-186.7 935,-635.7"
         style="fill:#3f2920;fill-opacity:1;fill-rule:nonzero;stroke:none"
         id="path128" />
      <path
         d="m 12954.4,36548.1 c -275.8,430.3 -679.2,735.9 -1062.8,780.9 -327.7,38.5 -480,-239.1 -494.1,-336.6 78.8,143.6 342.6,271.5 621.9,191.4 146.5,-41.9 540.5,-186.7 935,-635.7"
         style="fill:#281913;fill-opacity:1;fill-rule:nonzero;stroke:none"
         id="path130" />
      <path
         d="m 11844.2,37232 c 61.3,0 122.3,-8.6 181.6,-25.6 137.5,-39.4 472.4,-164.5 824.1,-513.1 -259.1,444.3 -616.7,728.7 -978.9,771.2 -259.4,30.3 -402.4,-173.3 -440.7,-391.1 85.7,86.5 236,158.6 413.9,158.6 z m 1209.3,-832.3 -116.7,132.9 c -385.7,439.1 -774.6,585.9 -923.9,628.7 -55.1,15.8 -111.8,23.8 -168.7,23.8 -206.2,0 -370.5,-102.6 -426.1,-204 l -49.5,-90.1 5.5,102.6 c 14.3,267.3 176,555.8 502.3,517.5 418.8,-49.1 829.7,-405.3 1099,-952.6 l 78.1,-158.8"
         style="fill:#000000;fill-opacity:1;fill-rule:nonzero;stroke:none"
         id="path132" />
      <path
         d="m 6765.2,32978.9 c 714.19,609.2 638.19,2963.5 0,3009.4 -767.36,55.1 -1517.75,-1422.1 -1426.66,-2343.8 84.44,-854.4 1031.4,-1002.8 1426.66,-665.6"
         style="fill:#84574e;fill-opacity:1;fill-rule:nonzero;stroke:none"
         id="path134" />
      <path
         d="m 6745.25,32965 c 716.13,558.4 639.93,2716.6 0,2758.7 -769.44,50.5 -1521.87,-1303.6 -1430.54,-2148.5 84.68,-783.3 1034.21,-919.3 1430.54,-610.2"
         style="fill:#000000;fill-opacity:1;fill-rule:nonzero;stroke:none"
         id="path136" />
      <path
         d="m 6725.36,32960.6 c 704.59,542.8 629.62,2640.3 0,2681.1 -757.05,49.2 -1497.35,-1266.9 -1407.49,-2088 83.31,-761.3 1017.55,-893.4 1407.49,-593.1"
         style="fill:#ffffff;fill-opacity:1;fill-rule:nonzero;stroke:none"
         id="path138" />
      <path
         d="m 6725.36,32960.6 c 147.63,113.8 261.04,295.7 342.29,512.8 -443.95,-320.3 -1443.37,-220.7 -1682.87,729.1 -62.39,-227.6 -88.41,-452.4 -66.91,-648.8 83.31,-761.3 1017.55,-893.4 1407.49,-593.1"
         style="fill:#dbd8d2;fill-opacity:1;fill-rule:nonzero;stroke:none"
         id="path140" />
      <path
         d="m 6684.01,35614.2 c -303.76,0 -564.29,-219.5 -729.33,-403.6 -400.89,-447.2 -662.32,-1158.2 -608.06,-1653.8 54.15,-494.8 479.32,-716.3 876.71,-716.3 0.06,0 0.06,0 0.06,0 189.77,0 366.28,52.1 484.34,143 474.46,365.5 604.05,1488.7 394.97,2174.9 -86.17,282.8 -220.89,444.2 -379.22,454.5 -13.15,0.8 -26.36,1.3 -39.47,1.3 z m -460.62,-2831.5 c 0,0 0,0 -0.06,0 -423.19,0 -876.14,237.4 -934.18,767.8 -55.85,510.3 211.74,1240.5 622.45,1698.7 261.81,292 543.51,439 815.61,421.4 184.13,-12 337.09,-187.9 430.76,-495.3 214.39,-703.6 77.08,-1858.6 -415,-2237.6 -127.9,-98.5 -317.27,-155 -519.58,-155"
         style="fill:#000000;fill-opacity:1;fill-rule:nonzero;stroke:none"
         id="path142" />
      <path
         d="m 11129.7,33463.7 c -266.4,538.3 20.5,2912.6 921.4,2912.7 940.4,0.1 1666.2,-2313.8 1274.3,-2879.3 -410,-591.5 -1861.8,-708 -2195.7,-33.4"
         style="fill:#84574e;fill-opacity:1;fill-rule:nonzero;stroke:none"
         id="path144" />
      <path
         d="m 11148.3,33431 c -264.2,500 66.9,2623.4 960.5,2623.4 932.8,0.1 1606.2,-2067 1217.5,-2592.3 -406.7,-549.5 -1846.8,-657.8 -2178,-31.1"
         style="fill:#000000;fill-opacity:1;fill-rule:nonzero;stroke:none"
         id="path146" />
      <path
         d="m 11169.1,33415.6 c -259.3,481.9 65.6,2528.2 942.3,2528.3 915.3,0.1 1576,-1992.2 1194.6,-2498.4 -399,-529.6 -1812,-633.9 -2136.9,-29.9"
         style="fill:#ffffff;fill-opacity:1;fill-rule:nonzero;stroke:none"
         id="path148" />
      <path
         d="m 11169.1,33415.6 c -50.4,93.6 -78.7,246.4 -85.2,431.7 500.4,-505 2145.1,-269.1 2185.6,838.5 194,-609.3 170.2,-1062.8 36.5,-1240.3 -399,-529.6 -1812,-633.9 -2136.9,-29.9"
         style="fill:#dbd8d2;fill-opacity:1;fill-rule:nonzero;stroke:none"
         id="path150" />
      <path
         d="m 12111.5,35915 h -0.1 c -232.9,0 -440.4,-149.7 -616.7,-444.9 -365,-610.9 -482.3,-1702.3 -300.2,-2040.8 133.6,-248.2 483.9,-396.4 937.2,-396.4 494.8,0 957.4,172.8 1151.2,430 198.2,263.1 106.8,983.9 -203.8,1606.8 -268,537.2 -620.6,845.3 -967.6,845.3 z m 20.2,-2939.9 c -474.9,0 -844.3,159.5 -988.1,426.8 -188.6,350.6 -71.9,1473 301.5,2097.8 184.8,309.5 415.3,473.1 666.3,473.1 369.8,0 741.3,-319.7 1019.4,-877.3 319.5,-640.6 408.4,-1388.5 198.3,-1667.4 -204.2,-271 -685.4,-453 -1197.4,-453"
         style="fill:#000000;fill-opacity:1;fill-rule:nonzero;stroke:none"
         id="path152" />
      <path
         d="m 11833.5,34193.9 c 0,-470.3 286.6,-851.6 640.1,-851.6 353.5,0 640.1,381.3 640.1,851.6 0,470.4 -286.6,851.7 -640.1,851.7 -353.5,0 -640.1,-381.3 -640.1,-851.7"
         style="fill:#542416;fill-opacity:1;fill-rule:nonzero;stroke:none"
         id="path154" />
      <path
         d="m 11833.5,34193.9 c 0,-470.3 286.6,-851.6 640.1,-851.6 353.5,0 640.1,381.3 640.1,851.6 -132.6,-425.8 -974.8,-653.2 -1280.2,0"
         style="fill:#a74f45;fill-opacity:1;fill-rule:nonzero;stroke:none"
         id="path156" />
      <path
         d="m 12473.6,35021 c -339.4,0 -615.5,-371 -615.5,-827.1 0,-456 276.1,-827 615.5,-827 339.4,0 615.5,371 615.5,827 0,456.1 -276.1,827.1 -615.5,827.1 z m 0,-1703.3 c -366.5,0 -664.7,393.1 -664.7,876.2 0,483.2 298.2,876.3 664.7,876.3 366.5,0 664.8,-393.1 664.8,-876.3 0,-483.1 -298.3,-876.2 -664.8,-876.2"
         style="fill:#261005;fill-opacity:1;fill-rule:nonzero;stroke:none"
         id="path158" />
      <path
         d="m 12110.1,34113.2 c 0,-316.2 192.7,-572.5 430.4,-572.5 237.6,0 430.3,256.3 430.3,572.5 0,316.2 -192.7,572.6 -430.3,572.6 -237.7,0 -430.4,-256.4 -430.4,-572.6"
         style="fill:#000000;fill-opacity:1;fill-rule:nonzero;stroke:none"
         id="path160" />
      <path
         d="m 12529.2,34636.9 c 0,-117.3 -78.9,-212.5 -176.1,-212.5 -97.3,0 -176.2,95.2 -176.2,212.5 0,117.4 78.9,212.5 176.2,212.5 97.2,0 176.1,-95.1 176.1,-212.5"
         style="fill:#ffffff;fill-opacity:1;fill-rule:nonzero;stroke:none"
         id="path162" />
      <path
         d="m 12766.7,33758 c 0,-47.9 -32.2,-86.7 -71.8,-86.7 -39.7,0 -71.9,38.8 -71.9,86.7 0,47.8 32.2,86.6 71.9,86.6 39.6,0 71.8,-38.8 71.8,-86.6"
         style="fill:#ffffff;fill-opacity:1;fill-rule:nonzero;stroke:none"
         id="path164" />
      <path
         d="m 5828.68,33972.9 c -21.97,-438.1 222.23,-806.4 545.43,-822.6 323.2,-16.2 603.01,325.8 624.98,763.9 21.97,438.2 -222.23,806.5 -545.43,822.7 -323.2,16.2 -603.01,-325.8 -624.98,-764"
         style="fill:#542416;fill-opacity:1;fill-rule:nonzero;stroke:none"
         id="path166" />
      <path
         d="m 5828.68,33972.9 c -21.97,-438.1 222.23,-806.4 545.43,-822.6 323.2,-16.2 603.01,325.8 624.98,763.9 -141.15,-390.5 -921.69,-563.8 -1170.41,58.7"
         style="fill:#a74f45;fill-opacity:1;fill-rule:nonzero;stroke:none"
         id="path168" />
      <path
         d="m 6452.5,34713.9 c -310.26,15.6 -580.01,-317.3 -601.31,-742.1 -21.3,-424.8 213.8,-783 524.06,-798.6 310.29,-15.5 580.04,317.4 601.34,742.2 21.3,424.8 -213.8,783 -524.09,798.5 z m -79.55,-1586.5 c -335.09,16.8 -589.35,396.6 -566.78,846.7 22.57,450 313.54,802.5 648.63,785.7 335.09,-16.8 589.38,-396.6 566.81,-846.7 -22.57,-450 -313.57,-802.5 -648.66,-785.7"
         style="fill:#261005;fill-opacity:1;fill-rule:nonzero;stroke:none"
         id="path170" />
      <path
         d="m 6062.3,33882.9 c -14.77,-294.5 149.4,-542.1 366.67,-553 217.28,-10.9 405.38,219 420.15,513.5 14.77,294.6 -149.39,542.2 -366.67,553.1 -217.27,10.9 -405.38,-219.1 -420.15,-513.6"
         style="fill:#000000;fill-opacity:1;fill-rule:nonzero;stroke:none"
         id="path172" />
      <path
         d="m 6469.87,34351.5 c -5.48,-109.3 -82.01,-194.3 -170.93,-189.8 -88.92,4.4 -156.57,96.6 -151.09,206 5.48,109.3 82.01,194.3 170.94,189.8 88.92,-4.4 156.56,-96.7 151.08,-206"
         style="fill:#ffffff;fill-opacity:1;fill-rule:nonzero;stroke:none"
         id="path174" />
      <path
         d="m 6645.96,33521.9 c -2.24,-44.6 -33.46,-79.3 -69.72,-77.5 -36.28,1.9 -63.88,39.5 -61.64,84.1 2.24,44.5 33.46,79.2 69.73,77.4 36.27,-1.8 63.86,-39.4 61.63,-84"
         style="fill:#ffffff;fill-opacity:1;fill-rule:nonzero;stroke:none"
         id="path176" />
      <path
         d="m 6008.15,35580.7 c 0,0 288.81,446.6 647.75,454.9 372.89,9.2 415.16,-304.3 415.16,-304.3 -21.09,27.4 -94.33,253.9 -413.8,246.5 -331.78,-7.7 -646.23,-393.4 -649.11,-397.1"
         style="fill:#63413b;fill-opacity:1;fill-rule:nonzero;stroke:none"
         id="path178" />
      <path
         d="m 12697.1,36011.3 c -2.2,3 -221.1,301.7 -585.2,345.6 -383.2,46.2 -553.1,-256.7 -560.2,-269.6 0,0 145.7,377.9 567.1,327 389.9,-47 578.3,-403 578.3,-403"
         style="fill:#63413b;fill-opacity:1;fill-rule:nonzero;stroke:none"
         id="path180" />
      <path
         d="m 14694.8,32936.3 c -1873.9,487.4 -3013.9,-487.5 -4243.7,-415.7 -1930.39,-299.2 -2515.3,-916.6 -4123.81,-28.4 -400.76,324.9 -912.56,505 -1385.1,249.1 -259.01,-140.3 -404.65,-363.7 -483.94,-632.6 -134.01,-963.4 199.19,-1610.7 650.48,-2140.3 779.88,-915.3 1589.91,-804.8 2396.86,-1303 62.29,-395.4 -349.68,-863.4 -89.71,-1367 259.96,-503.7 1852.22,-714.9 2544.64,-617.4 692.38,97.4 1111.08,649.9 1484.78,1023.6 373.7,373.6 682.4,178.7 2453.3,617.4 1054.5,261.2 1984,810.4 2641.4,1582.5 294.7,1678.1 -818.8,2764.8 -1845.2,3031.8"
         style="fill:#d8c9c3;fill-opacity:1;fill-rule:nonzero;stroke:none"
         id="path182" />
      <path
         d="m 7317.85,29148.9 c -1186.47,107.8 -2370.99,840.2 -2804.18,1890.7 114.83,-421.3 320.34,-779.2 595.06,-1071.2 900.9,-957.8 1589.91,-804.8 2396.86,-1303 0.37,130.6 -66.16,290.2 -187.74,483.5"
         style="fill:#bfaaa3;fill-opacity:1;fill-rule:nonzero;stroke:none"
         id="path184" />
      <path
         d="m 12120.6,28697.3 c -763.3,-163.6 -764.7,-973.9 -2141.77,-1522.1 -666.7,-265.4 -2804.29,-280.1 -2612.05,769.8 -49.21,-206.3 -66.35,-423 49.1,-646.6 259.96,-503.7 1852.22,-714.9 2544.64,-617.4 692.48,97.4 1111.08,649.9 1484.78,1023.6 373.7,373.6 682.4,178.7 2453.3,617.4 1054.5,261.2 1984,810.4 2641.4,1582.5 97.2,553.5 40.5,1042.2 -115,1458.9 -687,-1574.5 -2380.5,-2658.4 -3952.6,-2826.8 -121.6,-13 13,238.8 -351.8,160.7"
         style="fill:#bfaaa3;fill-opacity:1;fill-rule:nonzero;stroke:none"
         id="path186" />
      <path
         d="m 5417.09,32833.8 c -161.54,0 -316.7,-39.7 -461.14,-117.9 -230.99,-125.1 -384.74,-326.4 -470,-615.4 -143.41,-1033.5 269.22,-1672.6 644.81,-2113.4 485.7,-570 972.3,-734.2 1487.48,-908.1 295.36,-99.6 600.71,-202.7 902.51,-389 l 11.29,-7 2.09,-13.1 c 25.86,-164.1 -25.47,-336 -79.84,-518 -80.46,-269.3 -163.69,-547.8 -12.7,-840.3 210.44,-407.7 1372.63,-624.9 2130.65,-624.9 0,0 0,0 0.06,0 147.14,0 276.44,7.7 384.23,22.9 578.37,81.4 959.37,482.6 1295.57,836.5 59.1,62.2 116.4,122.6 172.7,178.9 220.1,220.1 425.9,250.1 876.8,315.8 350.9,51.2 831.4,121.3 1590.1,309.2 1064,263.6 1970.2,805.4 2621.3,1567.2 305.9,1766.3 -923.2,2756.4 -1825.5,2991.1 -352.2,91.6 -693.3,136.1 -1042.8,136.1 -652.8,0 -1203,-155.4 -1735.2,-305.8 -456.6,-128.9 -887.8,-250.7 -1326.7,-250.7 -43.7,0 -87.5,1.2 -130.3,3.6 -517.88,-80.4 -938.14,-183.6 -1308.99,-274.7 -486.83,-119.6 -871.35,-214 -1280.03,-214 -490.89,0 -968.97,143.1 -1550.15,464.1 -209.08,168.9 -530.07,366.9 -896.24,366.9 z M 9572.3,26628.9 c -0.06,0 -0.06,0 -0.06,0 -743.4,0 -1950.98,208.6 -2182.03,656.2 -161.66,313.2 -71.15,616.1 8.69,883.4 50.93,170.4 99.09,331.7 79.95,479.4 -292.48,178.4 -590.61,279 -879.08,376.4 -499.98,168.7 -1016.96,343.1 -1513.05,925.3 -383.44,450 -804.6,1102.5 -657.12,2163.1 90.73,308.7 253.58,521.2 498.8,654 153.01,82.9 317.44,124.9 488.69,124.9 383.11,0 716.3,-205 928.37,-377 567.97,-313.1 1037.47,-454 1517.97,-454 401.73,0.1 783.26,93.7 1266.25,212.4 372.77,91.5 795.23,195.3 1317.02,276.1 l 3,0.5 3.1,-0.2 c 43.4,-2.5 86.6,-3.7 129.9,-3.7 h 0.1 c 430.9,0 858.4,120.7 1310.9,248.6 536,151.4 1090.2,307.9 1751,307.9 354.5,0 700.4,-45.1 1057.4,-138 924.3,-240.4 2184.1,-1255 1866.4,-3064.7 l -1.3,-7.8 -5.1,-6 c -659.3,-774.2 -1577.9,-1324.6 -2656.5,-1591.8 -761.4,-188.6 -1243.6,-258.9 -1595.7,-310.3 -450.9,-65.7 -637.7,-92.9 -844.2,-299.5 -56,-56 -112.9,-116 -171.7,-177.8 -342.7,-360.8 -731.1,-769.7 -1329.45,-854 -110.45,-15.5 -242.4,-23.4 -392.25,-23.4"
         style="fill:#68504a;fill-opacity:1;fill-rule:nonzero;stroke:none"
         id="path188" />
      <path
         d="m 7482.13,28608.6 c -2.2,290.7 -164.54,539.8 -166.17,542.3 0,0 221.61,-233.6 223.99,-541.8 l -57.82,-0.5"
         style="fill:#68504a;fill-opacity:1;fill-rule:nonzero;stroke:none"
         id="path190" />
      <path
         d="m 11427.1,27645 -44.1,37.4 c 183.6,216.8 240.8,339.1 291.3,447 37.8,80.9 73.6,157.3 154.5,259.3 193.2,243.6 477.9,191.3 477.9,191.3 -2.5,-0.1 -257.1,-5.9 -432.6,-227.2 -76.7,-96.8 -109.5,-166.8 -147.4,-247.9 -52,-111.2 -111,-237.1 -299.6,-459.9"
         style="fill:#68504a;fill-opacity:1;fill-rule:nonzero;stroke:none"
         id="path192" />
      <path
         d="m 7425.55,29735.5 c 632.11,-796.1 0,-1516.4 217.79,-1876.6 232.16,-383.9 1486.65,-633.7 2493.96,0 1007.4,633.7 1026.3,1719.5 2394.8,3019.8 -480.3,367.8 -902.7,1169.4 -2440.8,-758.7 -2580.25,974.9 -2665.75,-384.5 -2665.75,-384.5"
         style="fill:#4e1310;fill-opacity:1;fill-rule:nonzero;stroke:none"
         id="path194" />
      <path
         d="m 10690.8,30793.3 c -179,-174 -377.6,-395.1 -599.5,-673.3 -254.7,96.3 -484.75,169.4 -693.16,223.7 -176.12,-139.6 -319.14,-311.4 -412.79,-517.4 -360.3,-720.6 -426.03,-1545 -277.87,-2353.6 445.89,-10.6 964.2,93.3 1429.82,386.2 908.4,571.4 1013.5,1510.6 2028.7,2643.1 -420.9,224.8 -957.3,324.7 -1475.2,291.3"
         style="fill:#160704;fill-opacity:1;fill-rule:nonzero;stroke:none"
         id="path196" />
      <path
         d="m 10102.1,29166.8 c -1358.24,187 -1929.41,-699.2 -2290.6,-1468 432.88,-278.5 1468.62,-379.1 2325.8,160.1 575.2,361.8 828.4,871.3 1194.3,1483.7 -386.8,123 -943.9,29.8 -1229.5,-175.8"
         style="fill:#ffa9a9;fill-opacity:1;fill-rule:nonzero;stroke:none"
         id="path198" />
      <path
         d="m 11102.5,29389.2 c -285.4,-644.5 -935.3,-1230.1 -1604.74,-1421.4 -579.66,-179.9 -1477.08,-340.4 -1424.7,220.9 -100.02,-161.1 -185.53,-328.1 -261.56,-489.9 432.88,-278.5 1468.62,-379.1 2325.8,160.1 575.2,361.8 828.4,871.3 1194.3,1483.7 -71.4,22.7 -148.8,38 -229.1,46.6"
         style="fill:#e58080;fill-opacity:1;fill-rule:nonzero;stroke:none"
         id="path200" />
      <path
         d="m 7848.63,27709.7 c 217.78,-131.1 559.22,-209 920.53,-209 0.06,0 0.11,0 0.11,0 339.63,0 849.89,66.4 1352.63,382.7 504.1,317 763.6,758.5 1064.2,1269.8 33.1,56.4 66.9,113.9 101.7,172.3 -103.1,28.4 -222.6,43.3 -347.9,43.3 -308.4,0 -630.6,-88.5 -820.9,-225.4 l -9.3,-6.8 -11.5,1.6 c -120.56,16.6 -238.56,25 -350.65,25 -1060.26,0 -1556.29,-730.8 -1898.92,-1453.5 z m 920.64,-266.8 c 0,0 -0.05,0 -0.11,0 -384.07,0 -747.92,86.6 -973.32,231.6 l -21.29,13.7 10.79,22.9 c 350.75,746.6 858.19,1510 1962.21,1510 111.19,0 227.95,-8.1 347.25,-24.1 200.4,139.8 530.4,229.7 845.1,229.7 147.8,0 282.5,-19 400.5,-56.5 l 34.8,-11.1 -18.7,-31.3 c -41.5,-69.3 -81.4,-137.3 -120.6,-204 -304.4,-517.7 -567.2,-964.8 -1083.2,-1289.4 -514.4,-323.6 -1036.23,-391.5 -1383.43,-391.5"
         style="fill:#823333;fill-opacity:1;fill-rule:nonzero;stroke:none"
         id="path202" />
      <path
         d="m 9649.25,28662.8 c 0,0 220.21,413.6 544.45,593.9 l 28.2,-50.6 c -312.46,-173.7 -570.11,-539.6 -572.65,-543.3"
         style="fill:#823333;fill-opacity:1;fill-rule:nonzero;stroke:none"
         id="path204" />
      <path
         d="m 7903.3,28538.6 c -148.89,-51 -250.45,-334.3 -293.8,-597.6 7.64,-29.1 18.42,-56.6 33.84,-82.1 77.76,-128.6 270.6,-241.9 530.05,-312.2 -215.44,384 -134.82,1038.2 -270.09,991.9"
         style="fill:#ffffff;fill-opacity:1;fill-rule:nonzero;stroke:none"
         id="path206" />
      <path
         d="m 7934.16,28535 c -14.99,-291.1 -18.59,-608.7 -97.49,-851.8 90.98,-54.1 205.17,-100.9 336.72,-136.5 -196.56,350.3 -146.76,925.3 -239.23,988.3"
         style="fill:#d3cfc9;fill-opacity:1;fill-rule:nonzero;stroke:none"
         id="path208" />
      <path
         d="m 7639.04,27942.5 c 7.28,-25.9 16.83,-48.4 29.02,-68.7 67.31,-111.3 229.36,-212 449.46,-280.7 -91.31,199.1 -119.99,450 -141.45,638 -11.97,105.1 -32.07,280.9 -59.79,280.9 -118.69,-40.1 -225.8,-263.1 -277.24,-569.5 z m 593.26,-441.8 -66.45,18.1 c -266.51,72.2 -466,190.7 -547.25,325.1 -16.09,26.6 -28.17,56 -37.04,89.7 l -1.58,6 1.02,6.1 c 21,127.5 105.64,549.3 312.92,620.3 7.56,2.5 15.07,3.9 22.36,3.9 79.33,0 93.61,-125.1 117.27,-332.2 23.09,-202.8 54.83,-480.4 165.1,-676.9 l 33.65,-60.1"
         style="fill:#4f4f4f;fill-opacity:1;fill-rule:nonzero;stroke:none"
         id="path210" />
      <path
         d="m 9425.16,28380.6 c -134.42,-180 -187,-565.4 -146.05,-858.8 237.59,46.6 480.16,128.4 713.32,253.5 -277.46,241.3 -439.24,776.8 -567.27,605.3"
         style="fill:#ffffff;fill-opacity:1;fill-rule:nonzero;stroke:none"
         id="path212" />
      <path
         d="m 9432.58,28389.2 c 183.12,-205.9 247.79,-476.3 270.15,-745.8 97.47,37.2 194.39,80.8 289.7,131.9 -272.15,236.7 -432.98,755.9 -559.85,613.9"
         style="fill:#d3cfc9;fill-opacity:1;fill-rule:nonzero;stroke:none"
         id="path214" />
      <path
         d="m 9478.62,28385 c -9.37,0 -19.59,-7.3 -30.32,-21.7 -117.62,-157.6 -179.22,-506.8 -144.43,-807 224.5,46.8 439.06,122.6 638.82,225.5 -106.54,103.2 -193.55,242.6 -271.19,366.9 -72.55,116.1 -147.54,236.3 -192.88,236.3 z m -223.88,-897.4 -4.23,30.2 c -38.62,276.6 1.3,679 151.49,880.1 22.24,29.8 47.99,44.9 76.62,44.9 77.36,0 146.41,-110.5 241.95,-263.5 82.77,-132.6 176.61,-282.9 290.83,-382.2 l 31.6,-27.5 -36.9,-19.8 c -223.88,-120.1 -466.61,-206.4 -721.37,-256.4 l -29.99,-5.8"
         style="fill:#4f4f4f;fill-opacity:1;fill-rule:nonzero;stroke:none"
         id="path216" />
      <path
         d="m 7455.53,29744.2 c 393.61,-502.9 296.83,-969.6 218.97,-1345.1 -44.38,-214.2 -82.72,-399.1 -6.44,-525.2 112.2,-185.5 526.3,-373.3 1100.7,-373.3 339.74,0 850.28,66.4 1353.14,382.8 504,317 763.4,758.2 1063.7,1269.2 300.1,510.4 639.7,1088.2 1302.4,1723.9 -46.9,37.4 -92.8,77.9 -140.9,120.4 -186.4,164.5 -379.1,334.6 -648.7,334.6 -406.2,0 -924.5,-402.2 -1584.5,-1229.5 l -13.1,-16.4 -19.7,7.4 c -614.9,232.3 -1138.37,350.1 -1555.75,350.1 -946.28,0 -1058.63,-610.9 -1069.82,-698.9 z m 1313.23,-2301.4 c -534.37,0 -1007.3,165 -1150.16,401.1 -88.02,145.6 -47.54,340.8 -0.67,566.9 75.82,366 170.23,821.5 -215.02,1306.7 l -6.89,8.7 0.68,11.1 c 0.51,7.6 60.36,763.6 1128.65,763.6 419.91,0 943.5,-116.5 1556.45,-346.4 674.6,842.4 1188.5,1234.8 1616.6,1234.8 291.4,0 501.6,-185.5 687,-349 56.4,-49.8 109.6,-96.8 164.3,-138.7 l 26.8,-20.6 -24.5,-23.3 c -672.8,-639.2 -1014.8,-1221 -1316.5,-1734.4 -304.2,-517.5 -566.9,-964.4 -1082.8,-1288.9 -514.52,-323.6 -1036.58,-391.6 -1383.94,-391.6"
         style="fill:#68504a;fill-opacity:1;fill-rule:nonzero;stroke:none"
         id="path218" />
      <path
         d="m 11335.5,31981.9 c -643.6,52.6 -1043.8,783.8 -2062.87,1044 -879.48,224.5 -1931.02,189.8 -2734.12,-414.6 -1158.99,-872.1 -964.02,-2469.6 -163.63,-2980.7 944.37,-603.1 1532.85,258.3 1911.97,231.2 262.3,-142.5 486.09,-361.5 744.31,-452.7 533.18,-188.3 1087.44,-135.7 1525.94,71.9 812.3,384.6 1749.3,1646.4 1749.3,1646.4 l -970.9,854.5"
         style="fill:#d8c9c3;fill-opacity:1;fill-rule:nonzero;stroke:none"
         id="path220" />
      <path
         d="m 6379.87,32223.3 c 1087.79,1106.2 2981.98,808.2 3960.33,143.4 338.7,-273.6 655.7,-390.9 863.6,-363.9 -570.8,132 -983.4,781.1 -1931.18,1023.1 -879.47,224.5 -1931.01,189.8 -2734.11,-414.6 -803.21,-604.4 -955.77,-1556.9 -707.57,-2255.1 -187.12,818.4 65.61,1349.3 548.93,1867.1"
         style="fill:#f4f0ef;fill-opacity:1;fill-rule:nonzero;stroke:none"
         id="path222" />
      <path
         d="m 9879.9,29773.1 c -885.86,-104.3 -1455.61,570 -2289.36,153.1 58.07,5.6 79.79,9.8 184.01,9.8 -312.65,-260.5 -930.04,-300.8 -1294.8,-144.4 -265.26,116 -477.69,270.2 -643.08,549.4 110.68,-302.5 296.58,-556.1 538.21,-710.4 944.37,-603.1 1532.85,258.3 1911.97,231.2 262.29,-142.5 486.09,-361.5 744.31,-452.7 533.18,-188.3 1087.44,-135.7 1525.94,71.9 812.3,384.6 1749.3,1646.4 1749.3,1646.4 l -148.3,130.5 c -471.7,-658.6 -1387.8,-1351.3 -2278.2,-1484.8"
         style="fill:#bfaaa3;fill-opacity:1;fill-rule:nonzero;stroke:none"
         id="path224" />
      <path
         d="m 9709.56,29264.3 c -232.18,0 -465.55,39 -688.01,117.5 -157.36,55.6 -297.85,154.4 -446.63,259 -95.14,66.9 -193.44,136.1 -296.2,192.5 -112.37,5 -246.47,-73 -403.94,-162.7 -360.75,-205.2 -854.75,-486.3 -1515.48,-64.4 -388.41,248.1 -643.18,752 -664.81,1315.1 -25.91,673.9 275.38,1298.3 826.63,1713.1 708.68,533.3 1714.29,686.1 2758.7,419.4 547.97,-139.9 917.38,-410 1243.28,-648.3 280.8,-205.4 523.4,-382.8 812.4,-423.6 0,0 -339.6,-42.1 -846.5,376.9 -321.8,235.2 -686.33,501.9 -1223.53,639 -1027.47,262.4 -2015.07,113.1 -2709.57,-409.6 -535.89,-403.2 -828.77,-1010 -803.64,-1664.6 20.94,-544.5 265.43,-1030.6 638.21,-1268.7 631.43,-403.1 1088.44,-143 1455.68,66 168.6,96 312.24,179 442.79,169.7 l 11.68,-3.4 c 107.79,-58.6 209.37,-130 307.56,-199.1 145.45,-102.3 282.77,-198.9 432.56,-251.8 493.16,-174.1 1041.26,-148.3 1503.96,70.8 796.5,377.1 1729.1,1625 1738.5,1637.5 l 46.4,-34.5 c -9.5,-12.6 -950.6,-1272 -1760.2,-1655.3 -267.4,-126.6 -562.6,-190.5 -859.84,-190.5"
         style="fill:#68504a;fill-opacity:1;fill-rule:nonzero;stroke:none"
         id="path226" />
      <path
         d="m 8380.35,29773.1 c -294.51,220 -785.07,153.8 -789.81,153.1 0,0 510.94,127.3 824.36,-106.8 l -34.55,-46.3"
         style="fill:#68504a;fill-opacity:1;fill-rule:nonzero;stroke:none"
         id="path228" />
      <path
         d="m 12564.7,30815.9 c -95.4,70.7 -178.2,157 -255.8,237.9 -116.7,121.6 -217.5,226.6 -321.5,234.3 0,0 166.4,53 363.2,-194.3 146.6,-152.6 312.6,-325.6 542.6,-363 0,0 -180.2,-17.5 -328.5,85.1"
         style="fill:#68504a;fill-opacity:1;fill-rule:nonzero;stroke:none"
         id="path230" />
      <path
         d="m 6595.38,31465.9 c -35.21,425.1 364.31,1194.3 1396.67,1194.4 994.43,0 1444.29,-713.8 1416.86,-1136.9 -27.08,-417.7 -651.56,-1096.4 -1521.85,-1143.4 -657.91,-35.6 -1260.17,705.3 -1291.68,1085.9"
         style="fill:#342d2b;fill-opacity:1;fill-rule:nonzero;stroke:none"
         id="path232" />
      <path
         d="m 8138.46,32370.5 c 6.82,-70.8 -152.28,-144 -355.37,-163.6 -203.09,-19.6 -373.26,21.8 -380.09,92.5 -6.82,70.8 152.27,144 355.37,163.6 203.09,19.6 373.26,-21.8 380.09,-92.5"
         style="fill:#6d625f;fill-opacity:1;fill-rule:nonzero;stroke:none"
         id="path234" />
      <path
         d="m 9323.96,31912.4 c -309.82,-809.4 -1784.01,-1321.8 -2475.1,-574.9 -63.78,68.9 -171.4,73.1 -252,116.5 42.53,-383.8 638.91,-1109.2 1290.2,-1074 870.29,47 1494.77,725.7 1521.85,1143.4 7.45,114.9 -20.62,251.3 -84.95,389"
         style="fill:#282220;fill-opacity:1;fill-rule:nonzero;stroke:none"
         id="path236" />
      <path
         d="m 7992.16,32631.4 c -0.05,0 -0.05,0 -0.11,0 -564.52,-0.1 -896.02,-231.5 -1074.72,-425.6 -239.86,-260.6 -307.85,-560.1 -293.16,-737.6 30.43,-366.8 626.96,-1094.2 1261.33,-1059.3 827.93,44.7 1467.43,697.9 1494.54,1116.4 13.77,212.3 -95.48,469.9 -285.2,672.3 -185.48,197.9 -527.43,433.8 -1102.68,433.8 z m -150.92,-2281.6 c -671.3,0 -1243.95,742.3 -1274.67,1113.7 -20.61,248.9 100.4,555.7 308.18,781.5 186.56,202.6 531.83,444.1 1117.3,444.2 0,0 0.06,0 0.11,0 465.04,0 871.63,-160.6 1144.86,-452.1 200.27,-213.7 315.52,-487.8 300.72,-715.6 -28.12,-434.1 -660.28,-1122.4 -1549.08,-1170.4 -15.86,-0.8 -31.67,-1.3 -47.42,-1.3"
         style="fill:#000000;fill-opacity:1;fill-rule:nonzero;stroke:none"
         id="path238" />
      <path
         d="m 7042.18,31549.8 c -124.2,91.1 -283.18,-1.6 -433.48,-162.4 67.25,-274.7 361.48,-670.2 741.3,-874.7 40.36,295.9 -174.01,939 -307.82,1037.1"
         style="fill:#302220;fill-opacity:1;fill-rule:nonzero;stroke:none"
         id="path240" />
      <path
         d="m 7353.66,30641.1 c -16.73,322.8 -194.75,823.1 -311.48,908.7 -82.49,60.5 -180.35,39.6 -280.8,-28.1 28.86,-356.8 341.51,-760.7 592.28,-880.6"
         style="fill:#160c09;fill-opacity:1;fill-rule:nonzero;stroke:none"
         id="path242" />
      <path
         d="m 6640.71,31379.2 c 69,-253.6 337.2,-617.3 684.62,-819.6 16.03,308.5 -188.19,884.8 -300.28,966.9 -95.25,70 -227.26,16.7 -384.34,-147.3 z m 732.27,-911.8 -36.69,19.8 c -401.74,216.4 -689.2,621.8 -755.66,893.3 l -3.72,15.2 10.67,11.5 c 186.21,199.1 350.36,254.9 471.69,165.9 145.45,-106.6 360.8,-760.8 319.36,-1064.3 l -5.65,-41.4"
         style="fill:#000000;fill-opacity:1;fill-rule:nonzero;stroke:none"
         id="path244" />
      <path
         d="m 9328.9,31259 c -156.86,262.2 -506.55,522.4 -743.2,326.7 -288.2,-238.3 -407.36,-773.4 -244.2,-1120.6 477.92,155.5 835.23,491.9 987.4,793.9"
         style="fill:#302220;fill-opacity:1;fill-rule:nonzero;stroke:none"
         id="path246" />
      <path
         d="m 9005.69,31583.1 c -141.8,82 -296.27,104.9 -419.99,2.6 -241.99,-200.1 -379.82,-578.2 -290.8,-1019 199.75,93.4 528.8,250 703.49,518.9 105.14,161.9 104.37,333.6 7.3,497.5"
         style="fill:#160c09;fill-opacity:1;fill-rule:nonzero;stroke:none"
         id="path248" />
      <path
         d="m 8774.91,31625.2 c -63.74,0 -121.22,-20.8 -170.8,-61.8 -275.03,-227.4 -388.97,-726.8 -246.91,-1062.6 486.88,166.2 806.92,506.5 938.53,757 -115.41,184.8 -327.82,367.4 -520.82,367.4 z m -448.71,-1195.5 -10.84,23.1 c -167.75,356.9 -47.65,907.5 251.94,1155.2 60.19,49.8 130.04,75 207.61,75 219.26,0 457.14,-205.8 578.76,-409.1 l 8.18,-13.7 -7.17,-14.2 c -133.87,-265.7 -477.23,-636.9 -1004.25,-808.4 l -24.23,-7.9"
         style="fill:#000000;fill-opacity:1;fill-rule:nonzero;stroke:none"
         id="path250" />
      <path
         d="m 15215.7,36666.3 c 0,0 1168.8,905.9 1883.7,421.2 796.4,-540 -308.2,-2104 -308.2,-2104 l -1575.5,1682.8"
         style="fill:#98675a;fill-opacity:1;fill-rule:nonzero;stroke:none"
         id="path252" />
      <path
         d="m 17387.2,36519.2 c -6,227.2 -85.2,431 -287.8,568.3 -714.9,484.7 -1883.7,-421.2 -1883.7,-421.2 l 6.2,-6.7 c 507.3,253.6 1866.5,748.7 2165.3,-140.4"
         style="fill:#ad857b;fill-opacity:1;fill-rule:nonzero;stroke:none"
         id="path254" />
      <path
         d="m 16791.2,34983.5 c 6.8,10 682,1007.4 556.5,1668.7 -33.6,176.8 -122.6,315.2 -264.5,411.4 -689.9,467.8 -1855.9,-388.7 -1867.5,-397.3 0,0 236.8,245.9 570.1,396.4 404.6,182.8 933.1,317.7 1329.8,48.8 155.2,-105.2 252.3,-256.1 288.9,-448.6 59,-311.2 -46.5,-684.5 -181.8,-1003.1 -162.6,-382.5 -431.5,-676.3 -431.5,-676.3"
         style="fill:#63413b;fill-opacity:1;fill-rule:nonzero;stroke:none"
         id="path256" />
      <path
         d="m 15626.3,35552.1 c 0.4,574.1 807,1245.7 1169.8,1029 362.9,-216.6 -310.9,-1310 -855.7,-1316 -200.4,-2.2 -314.2,184.1 -314.1,287"
         style="fill:#3f2920;fill-opacity:1;fill-rule:nonzero;stroke:none"
         id="path258" />
      <path
         d="m 16896.1,36319.7 c 11.1,117 -17.3,212.1 -100,261.4 -362.8,216.7 -1169.4,-454.9 -1169.8,-1029 0,-37.3 15.2,-85.7 43.9,-132.1 167.6,768 1082.6,1150.7 1225.9,899.7"
         style="fill:#281913;fill-opacity:1;fill-rule:nonzero;stroke:none"
         id="path260" />
      <path
         d="m 16632.7,36593.9 c -385.7,0 -977.2,-558.8 -977.5,-1041.8 0,-40.1 22.7,-105.9 73.6,-162.6 39.1,-43.6 106.9,-95.5 208.1,-95.5 v -29 l 3.2,29 c 356,3.9 796.2,508.1 906.8,918.1 26.5,98.1 53.2,273.3 -65.6,344.2 -41.7,24.9 -91.7,37.6 -148.6,37.6 z m -695.8,-1357.8 c -95.6,0 -184.8,40.8 -251.2,114.8 -53.7,59.9 -88.4,138.9 -88.3,201.3 0.3,509.7 626.8,1099.5 1035.3,1099.5 67.5,0 127.5,-15.4 178.2,-45.8 112.3,-67 145,-212.2 91.9,-408.9 -103.6,-383.7 -553.1,-956.3 -962.1,-960.8 l -3.8,-0.1"
         style="fill:#000000;fill-opacity:1;fill-rule:nonzero;stroke:none"
         id="path262" />
    </g>
  </g>
</svg>
